G04 DipTrace 3.1.0.1*
G04 BottomMask.gbr*
%MOMM*%
G04 #@! TF.FileFunction,Soldermask,Bot*
G04 #@! TF.Part,Single*
%ADD34C,3.5*%
%ADD35C,0.9*%
%ADD47R,1.724X1.724*%
%ADD49C,1.724*%
%ADD55C,2.0*%
%ADD59C,1.8*%
%ADD61R,1.8X1.8*%
%FSLAX35Y35*%
G04*
G71*
G90*
G75*
G01*
G04 BotMask*
%LPD*%
D61*
X8270750Y2968500D3*
D59*
Y2714500D3*
D34*
X9001000Y4841750D3*
Y3159000D3*
X1381000Y4841750D3*
Y3159000D3*
D55*
X8874000Y4270250D3*
Y3762247D3*
X8620000Y4270250D3*
Y3762247D3*
X7604000Y4270250D3*
Y3762247D3*
X7350000Y4270250D3*
Y3762247D3*
X7096000Y4270250D3*
Y3762247D3*
X6334000D3*
Y4270250D3*
X6080000D3*
Y3762247D3*
X5064000D3*
X4810000D3*
X4556000D3*
X4302000D3*
X4048000D3*
X1508000D3*
X1762000D3*
X2016000D3*
X2270000D3*
X2524000D3*
X2778000D3*
X3032000D3*
X3286000D3*
X3540000D3*
X3794000D3*
X5064000Y4270250D3*
X4810000D3*
X4556000D3*
X4302000D3*
X4048000D3*
X3794000D3*
X3540000D3*
X3286000D3*
X3032000D3*
X2778000D3*
X2524000D3*
X2270000D3*
X2016000D3*
X1762000D3*
X1508000D3*
X5318000Y3762247D3*
Y4270250D3*
X5572000D3*
Y3762247D3*
X5826000Y4270250D3*
Y3762247D3*
X6588000D3*
Y4270250D3*
X6842000D3*
Y3762247D3*
X7858000D3*
Y4270250D3*
X8112000Y3762247D3*
Y4270250D3*
X8366000Y3762247D3*
Y4270250D3*
D35*
X8849273Y1733923D3*
Y2173923D3*
D49*
X1762000Y1984250D3*
Y2238250D3*
X2016000D3*
Y1984250D3*
X2270000Y2238250D3*
Y1984250D3*
X2524000Y2238250D3*
Y1984250D3*
X2778000D3*
D47*
Y2238250D3*
M02*
