G04 DipTrace 3.1.0.1*
G04 BottomSilk.gbr*
%MOMM*%
G04 #@! TF.FileFunction,Legend,Bot*
G04 #@! TF.Part,Single*
%ADD37C,0.2*%
%FSLAX35Y35*%
G04*
G71*
G90*
G75*
G01*
G04 BotSilk*
%LPD*%
X2921868Y2713578D2*
D37*
X2926697Y2723236D1*
X2936468Y2733007D1*
X2946126Y2737836D1*
X2965556D1*
X2975326Y2733007D1*
X2984985Y2723236D1*
X2989926Y2713578D1*
X2994756Y2698978D1*
Y2674607D1*
X2989926Y2660119D1*
X2984985Y2650349D1*
X2975326Y2640690D1*
X2965556Y2635749D1*
X2946126D1*
X2936468Y2640690D1*
X2926697Y2650349D1*
X2921868Y2660119D1*
X2881868Y2718295D2*
X2872097Y2723236D1*
X2857497Y2737724D1*
Y2635749D1*
X2807726Y2640578D2*
X2812668Y2635749D1*
X2817497Y2640578D1*
X2812668Y2645519D1*
X2807726Y2640578D1*
Y2630919D1*
X2812668Y2621149D1*
X2817497Y2616319D1*
X2694839Y2713578D2*
X2699668Y2723236D1*
X2709439Y2733007D1*
X2719097Y2737836D1*
X2738526D1*
X2748297Y2733007D1*
X2757956Y2723236D1*
X2762897Y2713578D1*
X2767726Y2698978D1*
Y2674607D1*
X2762897Y2660119D1*
X2757956Y2650349D1*
X2748297Y2640690D1*
X2738526Y2635749D1*
X2719097D1*
X2709439Y2640690D1*
X2699668Y2650349D1*
X2694839Y2660119D1*
X2649897Y2713466D2*
Y2718295D1*
X2645068Y2728066D1*
X2640239Y2732895D1*
X2630468Y2737724D1*
X2611039D1*
X2601380Y2732895D1*
X2596551Y2728066D1*
X2591609Y2718295D1*
Y2708636D1*
X2596551Y2698866D1*
X2606209Y2684378D1*
X2654839Y2635749D1*
X2586780D1*
X2537009Y2640578D2*
X2541951Y2635749D1*
X2546780Y2640578D1*
X2541951Y2645519D1*
X2537009Y2640578D1*
Y2630919D1*
X2541951Y2621149D1*
X2546780Y2616319D1*
X2424122Y2713578D2*
X2428951Y2723236D1*
X2438722Y2733007D1*
X2448380Y2737836D1*
X2467809D1*
X2477580Y2733007D1*
X2487239Y2723236D1*
X2492180Y2713578D1*
X2497009Y2698978D1*
Y2674607D1*
X2492180Y2660119D1*
X2487239Y2650349D1*
X2477580Y2640690D1*
X2467809Y2635749D1*
X2448380D1*
X2438722Y2640690D1*
X2428951Y2650349D1*
X2424122Y2660119D1*
X2374351Y2737724D2*
X2321005D1*
X2350093Y2698866D1*
X2335493D1*
X2325834Y2694036D1*
X2321005Y2689207D1*
X2316063Y2674607D1*
Y2664949D1*
X2321005Y2650349D1*
X2330663Y2640578D1*
X2345263Y2635749D1*
X2359863D1*
X2374351Y2640578D1*
X2379180Y2645519D1*
X2384122Y2655178D1*
X2139479Y2737724D2*
X2154079Y2732895D1*
X2163849Y2718295D1*
X2168679Y2694036D1*
Y2679436D1*
X2163849Y2655178D1*
X2154079Y2640578D1*
X2139479Y2635749D1*
X2129820D1*
X2115220Y2640578D1*
X2105562Y2655178D1*
X2100620Y2679436D1*
Y2694036D1*
X2105562Y2718295D1*
X2115220Y2732895D1*
X2129820Y2737724D1*
X2139479D1*
X2105562Y2718295D2*
X2163849Y2655178D1*
X2011991Y2635749D2*
Y2737724D1*
X2060620Y2669778D1*
X1987733D1*
X1918533Y2737724D2*
X1933133Y2732895D1*
X1942903Y2718295D1*
X1947733Y2694036D1*
Y2679436D1*
X1942903Y2655178D1*
X1933133Y2640578D1*
X1918533Y2635749D1*
X1908874D1*
X1894274Y2640578D1*
X1884616Y2655178D1*
X1879674Y2679436D1*
Y2694036D1*
X1884616Y2718295D1*
X1894274Y2732895D1*
X1908874Y2737724D1*
X1918533D1*
X1884616Y2718295D2*
X1942903Y2655178D1*
X1834733Y2713466D2*
Y2718295D1*
X1829903Y2728066D1*
X1825074Y2732895D1*
X1815303Y2737724D1*
X1795874D1*
X1786216Y2732895D1*
X1781386Y2728066D1*
X1776445Y2718295D1*
Y2708636D1*
X1781386Y2698866D1*
X1791045Y2684378D1*
X1839674Y2635749D1*
X1771616D1*
X1595031Y2737724D2*
X1609631Y2732895D1*
X1619402Y2718295D1*
X1624231Y2694036D1*
Y2679436D1*
X1619402Y2655178D1*
X1609631Y2640578D1*
X1595031Y2635749D1*
X1585373D1*
X1570773Y2640578D1*
X1561114Y2655178D1*
X1556173Y2679436D1*
Y2694036D1*
X1561114Y2718295D1*
X1570773Y2732895D1*
X1585373Y2737724D1*
X1595031D1*
X1561114Y2718295D2*
X1619402Y2655178D1*
X1511343Y2645519D2*
X1516173Y2640578D1*
X1511343Y2635749D1*
X1506402Y2640578D1*
X1511343Y2645519D1*
X1466402Y2718295D2*
X1456631Y2723236D1*
X1442031Y2737724D1*
Y2635749D1*
X1402031Y2703807D2*
Y2655178D1*
X1397202Y2640690D1*
X1387431Y2635749D1*
X1372831D1*
X1363173Y2640690D1*
X1348573Y2655178D1*
Y2703807D2*
Y2635749D1*
X1245343Y2737836D2*
X1308573D1*
Y2635749D1*
Y2689207D2*
X1269714D1*
X2501686Y2548465D2*
X2506515Y2558123D1*
X2516286Y2567894D1*
X2525945Y2572723D1*
X2545374D1*
X2555145Y2567894D1*
X2564803Y2558123D1*
X2569745Y2548465D1*
X2574574Y2533865D1*
Y2509494D1*
X2569745Y2495006D1*
X2564803Y2485235D1*
X2555145Y2475577D1*
X2545374Y2470635D1*
X2525945D1*
X2516286Y2475577D1*
X2506515Y2485235D1*
X2501686Y2495006D1*
X2413057Y2470635D2*
Y2572611D1*
X2461686Y2504665D1*
X2388798D1*
X2241414Y2538694D2*
Y2470635D1*
Y2509494D2*
X2236472Y2524094D1*
X2226814Y2533865D1*
X2217043Y2538694D1*
X2202443D1*
X2104155D2*
Y2470635D1*
Y2524094D2*
X2113814Y2533865D1*
X2123585Y2538694D1*
X2138072D1*
X2147843Y2533865D1*
X2157502Y2524094D1*
X2162443Y2509494D1*
Y2499835D1*
X2157502Y2485235D1*
X2147843Y2475577D1*
X2138072Y2470635D1*
X2123585D1*
X2113814Y2475577D1*
X2104155Y2485235D1*
X2005868Y2572723D2*
Y2470635D1*
Y2524094D2*
X2015526Y2533865D1*
X2025297Y2538694D1*
X2039897D1*
X2049555Y2533865D1*
X2059326Y2524094D1*
X2064155Y2509494D1*
Y2499835D1*
X2059326Y2485235D1*
X2049555Y2475577D1*
X2039897Y2470635D1*
X2025297D1*
X2015526Y2475577D1*
X2005868Y2485235D1*
X1965868Y2572723D2*
X1961038Y2567894D1*
X1956097Y2572723D1*
X1961038Y2577665D1*
X1965868Y2572723D1*
X1961038Y2538694D2*
Y2470635D1*
X1857809Y2538694D2*
Y2470635D1*
Y2524094D2*
X1867468Y2533865D1*
X1877238Y2538694D1*
X1891726D1*
X1901497Y2533865D1*
X1911155Y2524094D1*
X1916097Y2509494D1*
Y2499835D1*
X1911155Y2485235D1*
X1901497Y2475577D1*
X1891726Y2470635D1*
X1877238D1*
X1867468Y2475577D1*
X1857809Y2485235D1*
X1817809Y2572723D2*
Y2470635D1*
X1621795D2*
Y2572611D1*
X1670425Y2504665D1*
X1597537D1*
X1552708Y2480406D2*
X1557537Y2475465D1*
X1552708Y2470635D1*
X1547766Y2475465D1*
X1552708Y2480406D1*
X1488337Y2470635D2*
X1439708Y2572611D1*
X1507766D1*
X1399708Y2538694D2*
Y2490065D1*
X1394878Y2475577D1*
X1385108Y2470635D1*
X1370508D1*
X1360849Y2475577D1*
X1346249Y2490065D1*
Y2538694D2*
Y2470635D1*
X1243020Y2572723D2*
X1306249D1*
Y2470635D1*
Y2524094D2*
X1267391D1*
X3099546Y1653277D2*
X3055858D1*
X3041258Y1658219D1*
X3036317Y1663048D1*
X3031488Y1672706D1*
Y1682477D1*
X3036317Y1692136D1*
X3041258Y1697077D1*
X3055858Y1701906D1*
X3099546D1*
Y1599819D1*
X3065517Y1653277D2*
X3031488Y1599819D1*
X2991488Y1682365D2*
X2981717Y1687306D1*
X2967117Y1701794D1*
Y1599819D1*
X2917346Y1604648D2*
X2922288Y1599819D1*
X2927117Y1604648D1*
X2922288Y1609589D1*
X2917346Y1604648D1*
Y1594989D1*
X2922288Y1585219D1*
X2927117Y1580389D1*
X2877346Y1653277D2*
X2833658D1*
X2819058Y1658219D1*
X2814117Y1663048D1*
X2809288Y1672706D1*
Y1682477D1*
X2814117Y1692136D1*
X2819058Y1697077D1*
X2833658Y1701906D1*
X2877346D1*
Y1599819D1*
X2843317Y1653277D2*
X2809288Y1599819D1*
X2764346Y1677536D2*
Y1682365D1*
X2759517Y1692136D1*
X2754688Y1696965D1*
X2744917Y1701794D1*
X2725488D1*
X2715829Y1696965D1*
X2711000Y1692136D1*
X2706058Y1682365D1*
Y1672706D1*
X2711000Y1662936D1*
X2720658Y1648448D1*
X2769288Y1599819D1*
X2701229D1*
X2524645Y1701794D2*
X2539245Y1696965D1*
X2549015Y1682365D1*
X2553845Y1658106D1*
Y1643506D1*
X2549015Y1619248D1*
X2539245Y1604648D1*
X2524645Y1599819D1*
X2514986D1*
X2500386Y1604648D1*
X2490728Y1619248D1*
X2485786Y1643506D1*
Y1658106D1*
X2490728Y1682365D1*
X2500386Y1696965D1*
X2514986Y1701794D1*
X2524645D1*
X2490728Y1682365D2*
X2549015Y1619248D1*
X2397157Y1599819D2*
Y1701794D1*
X2445786Y1633848D1*
X2372898D1*
X2303698Y1701794D2*
X2318298Y1696965D1*
X2328069Y1682365D1*
X2332898Y1658106D1*
Y1643506D1*
X2328069Y1619248D1*
X2318298Y1604648D1*
X2303698Y1599819D1*
X2294040D1*
X2279440Y1604648D1*
X2269782Y1619248D1*
X2264840Y1643506D1*
Y1658106D1*
X2269782Y1682365D1*
X2279440Y1696965D1*
X2294040Y1701794D1*
X2303698D1*
X2269782Y1682365D2*
X2328069Y1619248D1*
X2219898Y1677536D2*
Y1682365D1*
X2215069Y1692136D1*
X2210240Y1696965D1*
X2200469Y1701794D1*
X2181040D1*
X2171382Y1696965D1*
X2166552Y1692136D1*
X2161611Y1682365D1*
Y1672706D1*
X2166552Y1662936D1*
X2176211Y1648448D1*
X2224840Y1599819D1*
X2156782D1*
X2004455Y1677536D2*
Y1682365D1*
X1999626Y1692136D1*
X1994797Y1696965D1*
X1985026Y1701794D1*
X1965597D1*
X1955938Y1696965D1*
X1951109Y1692136D1*
X1946168Y1682365D1*
Y1672706D1*
X1951109Y1662936D1*
X1960768Y1648448D1*
X2009397Y1599819D1*
X1941338D1*
X1872138Y1701794D2*
X1886738Y1696965D1*
X1896509Y1682365D1*
X1901338Y1658106D1*
Y1643506D1*
X1896509Y1619248D1*
X1886738Y1604648D1*
X1872138Y1599819D1*
X1862480D1*
X1847880Y1604648D1*
X1838222Y1619248D1*
X1833280Y1643506D1*
Y1658106D1*
X1838222Y1682365D1*
X1847880Y1696965D1*
X1862480Y1701794D1*
X1872138D1*
X1838222Y1682365D2*
X1896509Y1619248D1*
X1764080Y1701794D2*
X1778680Y1696965D1*
X1788451Y1682365D1*
X1793280Y1658106D1*
Y1643506D1*
X1788451Y1619248D1*
X1778680Y1604648D1*
X1764080Y1599819D1*
X1754422D1*
X1739822Y1604648D1*
X1730163Y1619248D1*
X1725222Y1643506D1*
Y1658106D1*
X1730163Y1682365D1*
X1739822Y1696965D1*
X1754422Y1701794D1*
X1764080D1*
X1730163Y1682365D2*
X1788451Y1619248D1*
X1553578Y1667877D2*
X1563237Y1663048D1*
X1573008Y1653277D1*
X1577837Y1638677D1*
Y1629019D1*
X1573008Y1614419D1*
X1563237Y1604760D1*
X1553578Y1599819D1*
X1538978D1*
X1529208Y1604760D1*
X1519549Y1614419D1*
X1514608Y1629019D1*
Y1638677D1*
X1519549Y1653277D1*
X1529208Y1663048D1*
X1538978Y1667877D1*
X1553578D1*
X1474608Y1701906D2*
Y1599819D1*
Y1648448D2*
X1460008Y1663048D1*
X1450237Y1667877D1*
X1435637D1*
X1425978Y1663048D1*
X1421149Y1648448D1*
Y1599819D1*
X1381149Y1667877D2*
Y1599819D1*
Y1648448D2*
X1366549Y1663048D1*
X1356778Y1667877D1*
X1342291D1*
X1332520Y1663048D1*
X1327691Y1648448D1*
Y1599819D1*
Y1648448D2*
X1313091Y1663048D1*
X1303320Y1667877D1*
X1288832D1*
X1279062Y1663048D1*
X1274120Y1648448D1*
Y1599819D1*
X2769288Y1497774D2*
X2725600D1*
X2711000Y1502715D1*
X2706058Y1507545D1*
X2701229Y1517203D1*
Y1526974D1*
X2706058Y1536632D1*
X2711000Y1541574D1*
X2725600Y1546403D1*
X2769288D1*
Y1444315D1*
X2735258Y1497774D2*
X2701229Y1444315D1*
X2651458Y1546291D2*
X2598112D1*
X2627200Y1507432D1*
X2612600D1*
X2602942Y1502603D1*
X2598112Y1497774D1*
X2593171Y1483174D1*
Y1473515D1*
X2598112Y1458915D1*
X2607771Y1449145D1*
X2622371Y1444315D1*
X2636971D1*
X2651458Y1449145D1*
X2656288Y1454086D1*
X2661229Y1463745D1*
X2416586Y1546291D2*
X2431186Y1541462D1*
X2440957Y1526862D1*
X2445786Y1502603D1*
Y1488003D1*
X2440957Y1463745D1*
X2431186Y1449145D1*
X2416586Y1444315D1*
X2406928D1*
X2392328Y1449145D1*
X2382669Y1463745D1*
X2377728Y1488003D1*
Y1502603D1*
X2382669Y1526862D1*
X2392328Y1541462D1*
X2406928Y1546291D1*
X2416586D1*
X2382669Y1526862D2*
X2440957Y1463745D1*
X2289098Y1444315D2*
Y1546291D1*
X2337728Y1478345D1*
X2264840D1*
X2195640Y1546291D2*
X2210240Y1541462D1*
X2220011Y1526862D1*
X2224840Y1502603D1*
Y1488003D1*
X2220011Y1463745D1*
X2210240Y1449145D1*
X2195640Y1444315D1*
X2185982D1*
X2171382Y1449145D1*
X2161723Y1463745D1*
X2156782Y1488003D1*
Y1502603D1*
X2161723Y1526862D1*
X2171382Y1541462D1*
X2185982Y1546291D1*
X2195640D1*
X2161723Y1526862D2*
X2220011Y1463745D1*
X2111840Y1522032D2*
Y1526862D1*
X2107011Y1536632D1*
X2102182Y1541462D1*
X2092411Y1546291D1*
X2072982D1*
X2063323Y1541462D1*
X2058494Y1536632D1*
X2053552Y1526862D1*
Y1517203D1*
X2058494Y1507432D1*
X2068152Y1492945D1*
X2116782Y1444315D1*
X2048723D1*
X1843051Y1546291D2*
X1891568D1*
X1896397Y1502603D1*
X1891568Y1507432D1*
X1876968Y1512374D1*
X1862480D1*
X1847880Y1507432D1*
X1838109Y1497774D1*
X1833280Y1483174D1*
Y1473515D1*
X1838109Y1458915D1*
X1847880Y1449145D1*
X1862480Y1444315D1*
X1876968D1*
X1891568Y1449145D1*
X1896397Y1454086D1*
X1901338Y1463745D1*
X1793280Y1546403D2*
Y1444315D1*
X1725222Y1546403D2*
X1793280Y1478345D1*
X1769022Y1502715D2*
X1725222Y1444315D1*
X1553578Y1512374D2*
X1563237Y1507545D1*
X1573008Y1497774D1*
X1577837Y1483174D1*
Y1473515D1*
X1573008Y1458915D1*
X1563237Y1449257D1*
X1553578Y1444315D1*
X1538978D1*
X1529208Y1449257D1*
X1519549Y1458915D1*
X1514608Y1473515D1*
Y1483174D1*
X1519549Y1497774D1*
X1529208Y1507545D1*
X1538978Y1512374D1*
X1553578D1*
X1474608Y1546403D2*
Y1444315D1*
Y1492945D2*
X1460008Y1507545D1*
X1450237Y1512374D1*
X1435637D1*
X1425978Y1507545D1*
X1421149Y1492945D1*
Y1444315D1*
X1381149Y1512374D2*
Y1444315D1*
Y1492945D2*
X1366549Y1507545D1*
X1356778Y1512374D1*
X1342291D1*
X1332520Y1507545D1*
X1327691Y1492945D1*
Y1444315D1*
Y1492945D2*
X1313091Y1507545D1*
X1303320Y1512374D1*
X1288832D1*
X1279062Y1507545D1*
X1274120Y1492945D1*
Y1444315D1*
X2205013Y1380663D2*
Y1278575D1*
X2170984D1*
X2156384Y1283517D1*
X2146613Y1293175D1*
X2141784Y1302946D1*
X2136955Y1317434D1*
Y1341805D1*
X2141784Y1356405D1*
X2146613Y1366063D1*
X2156384Y1375834D1*
X2170984Y1380663D1*
X2205013D1*
X2096955Y1361122D2*
X2087184Y1366063D1*
X2072584Y1380551D1*
Y1278575D1*
X2022813Y1283405D2*
X2027755Y1278575D1*
X2032584Y1283405D1*
X2027755Y1288346D1*
X2022813Y1283405D1*
Y1273746D1*
X2027755Y1263975D1*
X2032584Y1259146D1*
X1982813Y1380663D2*
Y1278575D1*
X1948784D1*
X1934184Y1283517D1*
X1924413Y1293175D1*
X1919584Y1302946D1*
X1914755Y1317434D1*
Y1341805D1*
X1919584Y1356405D1*
X1924413Y1366063D1*
X1934184Y1375834D1*
X1948784Y1380663D1*
X1982813D1*
X1869813Y1356292D2*
Y1361122D1*
X1864984Y1370892D1*
X1860155Y1375722D1*
X1850384Y1380551D1*
X1830955D1*
X1821296Y1375722D1*
X1816467Y1370892D1*
X1811525Y1361122D1*
Y1351463D1*
X1816467Y1341692D1*
X1826125Y1327205D1*
X1874755Y1278575D1*
X1806696D1*
X1630112Y1380551D2*
X1644712Y1375722D1*
X1654482Y1361122D1*
X1659312Y1336863D1*
Y1322263D1*
X1654482Y1298005D1*
X1644712Y1283405D1*
X1630112Y1278575D1*
X1620453D1*
X1605853Y1283405D1*
X1596195Y1298005D1*
X1591253Y1322263D1*
Y1336863D1*
X1596195Y1361122D1*
X1605853Y1375722D1*
X1620453Y1380551D1*
X1630112D1*
X1596195Y1361122D2*
X1654482Y1298005D1*
X1526995Y1380551D2*
X1541482Y1375722D1*
X1546424Y1366063D1*
Y1356292D1*
X1541482Y1346634D1*
X1531824Y1341692D1*
X1512395Y1336863D1*
X1497795Y1332034D1*
X1488136Y1322263D1*
X1483307Y1312605D1*
Y1298005D1*
X1488136Y1288346D1*
X1492965Y1283405D1*
X1507565Y1278575D1*
X1526995D1*
X1541482Y1283405D1*
X1546424Y1288346D1*
X1551253Y1298005D1*
Y1312605D1*
X1546424Y1322263D1*
X1536653Y1332034D1*
X1522165Y1336863D1*
X1502736Y1341692D1*
X1492965Y1346634D1*
X1488136Y1356292D1*
Y1366063D1*
X1492965Y1375722D1*
X1507565Y1380551D1*
X1526995D1*
X1414107D2*
X1428707Y1375722D1*
X1438478Y1361122D1*
X1443307Y1336863D1*
Y1322263D1*
X1438478Y1298005D1*
X1428707Y1283405D1*
X1414107Y1278575D1*
X1404448D1*
X1389848Y1283405D1*
X1380190Y1298005D1*
X1375248Y1322263D1*
Y1336863D1*
X1380190Y1361122D1*
X1389848Y1375722D1*
X1404448Y1380551D1*
X1414107D1*
X1380190Y1361122D2*
X1438478Y1298005D1*
X1276961Y1380551D2*
X1325478D1*
X1330307Y1336863D1*
X1325478Y1341692D1*
X1310878Y1346634D1*
X1296390D1*
X1281790Y1341692D1*
X1272019Y1332034D1*
X1267190Y1317434D1*
Y1307775D1*
X1272019Y1293175D1*
X1281790Y1283405D1*
X1296390Y1278575D1*
X1310878D1*
X1325478Y1283405D1*
X1330307Y1288346D1*
X1335248Y1298005D1*
M02*
