G04 DipTrace 2.4.0.2*
%INBottom.gbr*%
%MOIN*%
%ADD13C,0.0118*%
%ADD14C,0.0059*%
%ADD15C,0.025*%
%ADD18R,0.063X0.063*%
%ADD19C,0.063*%
%ADD21C,0.0709*%
%ADD25C,0.06*%
%ADD26R,0.06X0.06*%
%ADD32C,0.0276*%
%FSLAX44Y44*%
G04*
G70*
G90*
G75*
G01*
%LNBottom*%
%LPD*%
X27081Y7699D2*
D13*
X21674D1*
X20807Y8565D1*
X20034D1*
X19926Y8457D1*
X18701D1*
Y8536D1*
X18406D1*
X28455Y7266D2*
X29419D1*
X29734Y7581D1*
X33566D1*
Y11687D1*
Y12544D1*
X34937Y13915D1*
Y14812D1*
X20807Y8565D2*
X20925Y8684D1*
Y12506D1*
X33566Y7581D2*
Y7062D1*
X33379D1*
Y7063D1*
X33441D1*
X18406Y8536D2*
X17075D1*
X16839Y8772D1*
Y12427D1*
X33566Y11687D2*
X32562D1*
X21695Y14182D2*
D14*
Y12941D1*
X21319Y12565D1*
X15937Y13847D2*
Y14812D1*
X27937D2*
Y8987D1*
X27819Y8869D1*
X24522D1*
X24380Y9012D1*
X26937Y14812D2*
Y9583D1*
X26819Y9465D1*
X23173D1*
X23055Y9583D1*
Y10941D1*
X23173Y11059D1*
X23518D1*
X25937Y14812D2*
Y9701D1*
X25819Y9583D1*
X23400D1*
X23281Y9701D1*
Y10803D1*
X21909Y8014D2*
Y10482D1*
Y6387D2*
Y6345D1*
X21440Y5875D1*
X13501D1*
X12208Y7168D1*
Y13477D1*
X11380Y14305D1*
Y17255D1*
X11498Y17373D1*
X13262D1*
X13380Y17255D1*
Y15255D1*
X12937Y14812D1*
X23519Y10557D2*
Y9819D1*
X23637Y9701D1*
X24819D1*
X24937Y9819D1*
Y14812D1*
X23937Y10242D2*
Y14812D1*
Y15658D1*
X24380Y9927D2*
Y16359D1*
Y16812D1*
X24937D1*
X25937D2*
X25380Y16255D1*
Y11363D1*
X26937Y16812D2*
Y16293D1*
X26380Y15736D1*
Y10642D1*
X26163D1*
X27937Y16812D2*
X27380Y16255D1*
Y9214D1*
X27262Y9096D1*
X25423D1*
X28937Y16812D2*
X28380Y16255D1*
Y11590D1*
X29937Y16812D2*
X29380Y16255D1*
Y12150D1*
X7937Y18298D2*
Y16812D1*
X10380Y11374D2*
Y16369D1*
X9937Y16812D1*
X17627Y7375D2*
X27190D1*
X27366Y7551D1*
Y8473D1*
X27248Y8592D1*
X23055D1*
X22937Y8710D1*
Y14812D1*
X21965Y10826D2*
X22437Y11298D1*
Y16312D1*
X22937Y16812D1*
X18937Y13237D2*
Y14812D1*
X17937Y16812D2*
X18380Y17255D1*
X19291D1*
X19518Y17481D1*
X30262D1*
X30380Y17363D1*
Y15369D1*
X30937Y14812D1*
X19291Y17255D2*
X19409Y17137D1*
Y11909D1*
X19291Y11791D1*
X17724D1*
X17606Y11673D1*
Y8939D1*
X17724Y8821D1*
X19665D1*
X35562Y17750D2*
Y13875D1*
X33754Y12066D1*
Y6254D1*
X33042Y5542D1*
X22605D1*
X33380Y16422D2*
Y14487D1*
X33262Y14369D1*
X32380D1*
X31937Y14812D1*
X16937Y16812D2*
X17380D1*
Y10200D1*
X20295Y8250D2*
X16612D1*
X16494Y8369D1*
Y16255D1*
X15937Y16812D1*
X16724Y17599D1*
X32262D1*
X32380Y17481D1*
Y15369D1*
X32937Y14812D1*
X20610Y8014D2*
X15498D1*
X15380Y8132D1*
Y15895D1*
X14937Y16338D1*
Y16812D1*
X20925Y6364D2*
X14612D1*
X14494Y6482D1*
Y16812D1*
X13937D1*
X14843Y17718D1*
X34031D1*
X34937Y16812D1*
X26055Y15658D2*
Y16089D1*
X26380Y16413D1*
Y17137D1*
X26262Y17255D1*
X20380D1*
X33711Y15658D2*
X33937Y15885D1*
Y16812D1*
X20380Y17255D2*
Y14338D1*
X20325Y14283D1*
Y10318D1*
X11937Y16812D2*
X12380Y16369D1*
Y7184D1*
X13544Y6020D1*
X21207D1*
X21555Y6368D1*
X31937Y16812D2*
X31380Y16255D1*
Y14369D1*
X31498Y14251D1*
X34262D1*
X34380Y14369D1*
Y15314D1*
X35380Y16314D1*
Y17119D1*
X34545Y17954D1*
X11055D1*
X10937Y17836D1*
Y16812D1*
X31380Y14369D2*
X30979Y13969D1*
Y11256D1*
X15154Y9375D2*
Y8098D1*
X16627Y6625D1*
X28753D1*
X27690Y7125D2*
X27440D1*
X17127D1*
X5937Y14812D2*
D13*
Y14080D1*
X6312Y13705D1*
Y8437D1*
X6937Y7812D1*
X17954Y11266D2*
X18720Y10499D1*
Y9590D1*
X19449Y4900D2*
X20036Y4312D1*
X26390D1*
X15937Y4978D2*
X16661D1*
X16740Y4900D1*
X19449D1*
X10937Y7812D2*
Y5185D1*
X11173Y4949D1*
X15907D1*
X15937Y4978D1*
X6937Y7812D2*
X7414Y8289D1*
X10460D1*
X10937Y7812D1*
X20610Y12841D2*
Y13684D1*
X20937Y14011D1*
Y14812D1*
X18720Y9590D2*
X20404D1*
X20640Y9826D1*
Y11634D1*
X20610Y11663D1*
Y12841D1*
X26875Y8187D2*
X25812D1*
X22812D1*
X22562Y8437D1*
Y10937D1*
X22750Y11125D1*
Y11750D1*
X22687Y11812D1*
Y13062D2*
Y11812D1*
X25812Y8187D2*
D3*
X10937Y7812D2*
Y6877D1*
X12314Y5500D1*
X13562D1*
X13625Y5562D1*
X15937D1*
X22002D1*
X22377Y5937D1*
X23187D1*
X23562Y6312D1*
X7438Y13313D2*
D14*
Y16311D1*
X6937Y16812D1*
X23380Y11453D2*
Y16255D1*
X23937Y16812D1*
X21319Y11285D2*
X21937Y11904D1*
Y14812D1*
X21035Y13532D2*
X21439Y13936D1*
Y16314D1*
X21937Y16812D1*
X12110Y4585D2*
Y4358D1*
X12228Y4240D1*
X17016D1*
Y4538D1*
X22937Y5264D2*
X12110D1*
X11693Y7160D2*
Y8056D1*
X10937Y8812D1*
X19937Y12447D2*
Y14812D1*
X16681Y4467D2*
X12445D1*
X18406Y12447D2*
Y16281D1*
X18937Y16812D1*
D32*
X30125Y13375D3*
X28875D3*
X31812Y13500D3*
X33750D3*
X36625Y20125D3*
X4250D3*
Y4250D3*
X36625D3*
X9000Y12750D3*
X11312D3*
X17875Y13375D3*
X12875Y13625D3*
X14000D3*
X12875Y11875D3*
X14000D3*
X12875Y10062D3*
X13812Y9187D3*
X15750Y10250D3*
X28375Y8125D3*
X30562Y7062D3*
X33441Y6500D3*
X29125Y10437D3*
X31750Y8500D3*
X26875Y8187D3*
X22687Y11812D3*
Y13062D3*
X21625Y9875D3*
Y8500D3*
X13625Y5562D3*
X15937D3*
X22187Y11687D3*
X20500Y9125D3*
X13437Y12750D3*
X15937D3*
X17812D3*
X23562Y6312D3*
X25437D3*
X25812Y8187D3*
X25375Y10437D3*
X27000Y6125D3*
X30253Y8188D3*
X32937Y6000D3*
X29687Y6687D3*
X18406Y8536D3*
X16839Y12427D3*
X20925Y12506D3*
X33441Y7063D3*
X27081Y7699D3*
X29734Y7581D3*
X28455Y7266D3*
X21319Y12565D3*
X21695Y14182D3*
X15937Y13847D3*
X24380Y9012D3*
X23518Y11059D3*
X23281Y10803D3*
X21909Y10482D3*
Y8014D3*
Y6387D3*
X23519Y10557D3*
X23937Y15658D3*
Y10242D3*
X24380Y16359D3*
Y9927D3*
X25380Y11363D3*
X26163Y10642D3*
X25423Y9096D3*
X28380Y11590D3*
X29380Y12150D3*
X7937Y18298D3*
X10380Y11374D3*
X17627Y7375D3*
X21965Y10826D3*
X18937Y13237D3*
X19665Y8821D3*
X22605Y5542D3*
X35562Y17750D3*
X33380Y16422D3*
X17380Y10200D3*
X20295Y8250D3*
X20610Y8014D3*
X15380Y15895D3*
X20925Y6364D3*
X20325Y10318D3*
X26055Y15658D3*
X33711D3*
X20380Y17255D3*
X21555Y6368D3*
X30979Y11256D3*
X28753Y6625D3*
X15154Y9375D3*
X17127Y7125D3*
X27690D3*
X15937Y4978D3*
X20610Y12841D3*
X19449Y4900D3*
X18720Y9590D3*
X26390Y4312D3*
X17954Y11266D3*
X7438Y13313D3*
X23380Y11453D3*
X21319Y11285D3*
X21035Y13532D3*
X17016Y4538D3*
X12110Y4585D3*
Y5264D3*
X22937D3*
X11693Y7160D3*
X19937Y12447D3*
X12445Y4467D3*
X16681D3*
X18406Y12447D3*
X14064Y6250D3*
X13439Y6812D3*
X4275Y19876D2*
D15*
X4914D1*
X5960D2*
X34914D1*
X35960D2*
X36598D1*
X4275Y19627D2*
X4644D1*
X6230D2*
X34644D1*
X36230D2*
X36598D1*
X4275Y19378D2*
X4512D1*
X6362D2*
X34512D1*
X36362D2*
X36598D1*
X4275Y19130D2*
X4461D1*
X6413D2*
X34461D1*
X36413D2*
X36596D1*
X4275Y18881D2*
X4476D1*
X6398D2*
X34476D1*
X36398D2*
X36598D1*
X4275Y18632D2*
X4562D1*
X6312D2*
X7687D1*
X8187D2*
X34562D1*
X36312D2*
X36598D1*
X4275Y18384D2*
X4742D1*
X6132D2*
X7519D1*
X8355D2*
X34742D1*
X36132D2*
X36598D1*
X4275Y18135D2*
X5187D1*
X5687D2*
X7543D1*
X8331D2*
X10797D1*
X34804D2*
X35187D1*
X35702D2*
X36598D1*
X4275Y17886D2*
X7617D1*
X8257D2*
X10621D1*
X35964D2*
X36598D1*
X4275Y17638D2*
X7617D1*
X8257D2*
X10617D1*
X35972D2*
X36598D1*
X4275Y17389D2*
X5687D1*
X6187D2*
X6687D1*
X7187D2*
X7617D1*
X8257D2*
X8687D1*
X9187D2*
X9687D1*
X10187D2*
X10617D1*
X35882D2*
X36598D1*
X4275Y17140D2*
X5387D1*
X35882D2*
X36598D1*
X4275Y16892D2*
X5297D1*
X35882D2*
X36598D1*
X4275Y16643D2*
X5316D1*
X35882D2*
X36598D1*
X4275Y16394D2*
X5457D1*
X35882D2*
X36598D1*
X4275Y16145D2*
X7117D1*
X20698D2*
X21121D1*
X35882D2*
X36598D1*
X4275Y15897D2*
X7117D1*
X20698D2*
X21121D1*
X35882D2*
X36598D1*
X4275Y15648D2*
X7117D1*
X20698D2*
X21121D1*
X35882D2*
X36598D1*
X4275Y15399D2*
X6715D1*
X20698D2*
X21121D1*
X35882D2*
X36598D1*
X4275Y15151D2*
X6394D1*
X20698D2*
X21121D1*
X35882D2*
X36598D1*
X4275Y14902D2*
X6301D1*
X20698D2*
X21121D1*
X35882D2*
X36598D1*
X4275Y14653D2*
X6312D1*
X20698D2*
X21121D1*
X35882D2*
X36598D1*
X4275Y14405D2*
X6445D1*
X20698D2*
X21121D1*
X35882D2*
X36598D1*
X4275Y14156D2*
X7117D1*
X7757D2*
X10062D1*
X10698D2*
X11101D1*
X12698D2*
X14176D1*
X17698D2*
X18086D1*
X20644D2*
X21121D1*
X28698D2*
X29062D1*
X29698D2*
X30726D1*
X35882D2*
X36598D1*
X4275Y13907D2*
X7117D1*
X7757D2*
X10062D1*
X10698D2*
X11336D1*
X12698D2*
X14176D1*
X17698D2*
X18086D1*
X20644D2*
X20863D1*
X28698D2*
X29062D1*
X29698D2*
X30660D1*
X31358D2*
X34445D1*
X35882D2*
X36598D1*
X4275Y13659D2*
X7117D1*
X7757D2*
X10062D1*
X10698D2*
X11586D1*
X12698D2*
X14176D1*
X17698D2*
X18086D1*
X28698D2*
X29062D1*
X29698D2*
X30660D1*
X31300D2*
X34199D1*
X35788D2*
X36598D1*
X4275Y13410D2*
X7023D1*
X7855D2*
X10062D1*
X10698D2*
X11836D1*
X12698D2*
X14176D1*
X15698D2*
X16176D1*
X17698D2*
X18086D1*
X28698D2*
X29062D1*
X29698D2*
X30660D1*
X31300D2*
X33949D1*
X35538D2*
X36598D1*
X4275Y13161D2*
X4793D1*
X6081D2*
X7039D1*
X7835D2*
X10062D1*
X10698D2*
X11887D1*
X12698D2*
X14176D1*
X15698D2*
X16176D1*
X17698D2*
X18086D1*
X20644D2*
X20855D1*
X21218D2*
X21375D1*
X28698D2*
X29062D1*
X29698D2*
X30660D1*
X31300D2*
X33699D1*
X36081D2*
X36598D1*
X4275Y12913D2*
X4586D1*
X6288D2*
X10062D1*
X10698D2*
X11887D1*
X12698D2*
X14176D1*
X15698D2*
X16176D1*
X17698D2*
X18086D1*
X20644D2*
X21090D1*
X28698D2*
X29062D1*
X29698D2*
X30660D1*
X31300D2*
X33453D1*
X36288D2*
X36598D1*
X4275Y12664D2*
X4484D1*
X6390D2*
X10062D1*
X10698D2*
X11887D1*
X12698D2*
X14176D1*
X15698D2*
X16176D1*
X17698D2*
X18043D1*
X28698D2*
X29062D1*
X29698D2*
X30660D1*
X31300D2*
X33238D1*
X36390D2*
X36598D1*
X4275Y12415D2*
X4457D1*
X6417D2*
X10062D1*
X10698D2*
X11887D1*
X12698D2*
X14176D1*
X15698D2*
X16176D1*
X17698D2*
X17980D1*
X28698D2*
X29051D1*
X29706D2*
X30660D1*
X31300D2*
X33219D1*
X36417D2*
X36596D1*
X4275Y12166D2*
X4496D1*
X6378D2*
X10062D1*
X10698D2*
X11887D1*
X12698D2*
X14176D1*
X15698D2*
X16176D1*
X17698D2*
X18090D1*
X28698D2*
X28953D1*
X29808D2*
X30660D1*
X31300D2*
X31957D1*
X34296D2*
X34496D1*
X36378D2*
X36598D1*
X4275Y11918D2*
X4613D1*
X6261D2*
X10062D1*
X10698D2*
X11887D1*
X12698D2*
X14176D1*
X15698D2*
X16176D1*
X19730D2*
X20004D1*
X28698D2*
X29027D1*
X29733D2*
X30660D1*
X31300D2*
X31957D1*
X34073D2*
X34613D1*
X36261D2*
X36598D1*
X4275Y11669D2*
X4848D1*
X6026D2*
X10062D1*
X10698D2*
X11887D1*
X12698D2*
X14176D1*
X15698D2*
X16176D1*
X19612D2*
X20004D1*
X28800D2*
X30660D1*
X31300D2*
X31957D1*
X34073D2*
X34848D1*
X36026D2*
X36598D1*
X4275Y11420D2*
X9957D1*
X10804D2*
X11887D1*
X12698D2*
X14176D1*
X15698D2*
X16176D1*
X17925D2*
X20004D1*
X21894D2*
X22117D1*
X28769D2*
X30586D1*
X31370D2*
X31957D1*
X34073D2*
X36598D1*
X4275Y11172D2*
X10008D1*
X10753D2*
X11887D1*
X12698D2*
X14176D1*
X15698D2*
X16176D1*
X17925D2*
X20004D1*
X28257D2*
X30562D1*
X31398D2*
X31957D1*
X34073D2*
X36598D1*
X4275Y10923D2*
X11887D1*
X12698D2*
X14176D1*
X15698D2*
X16176D1*
X17925D2*
X20004D1*
X25257D2*
X25617D1*
X28257D2*
X30726D1*
X31230D2*
X33219D1*
X34073D2*
X36598D1*
X4275Y10674D2*
X11887D1*
X12698D2*
X14176D1*
X15698D2*
X16176D1*
X17925D2*
X20004D1*
X21273D2*
X21531D1*
X22362D2*
X22617D1*
X25257D2*
X25617D1*
X28257D2*
X33219D1*
X34073D2*
X36598D1*
X4275Y10426D2*
X11887D1*
X12698D2*
X14176D1*
X15698D2*
X16176D1*
X17925D2*
X19910D1*
X21273D2*
X21484D1*
X22335D2*
X22617D1*
X25257D2*
X25617D1*
X28257D2*
X33219D1*
X34073D2*
X36598D1*
X4275Y10177D2*
X11887D1*
X12698D2*
X14176D1*
X15698D2*
X16176D1*
X17925D2*
X19922D1*
X21273D2*
X21590D1*
X22230D2*
X22617D1*
X25257D2*
X25617D1*
X28257D2*
X33219D1*
X34073D2*
X36598D1*
X4275Y9928D2*
X11887D1*
X12698D2*
X14176D1*
X15698D2*
X16176D1*
X17925D2*
X20199D1*
X20452D2*
X20578D1*
X21273D2*
X21590D1*
X22230D2*
X22617D1*
X25257D2*
X25617D1*
X28257D2*
X33219D1*
X34073D2*
X36598D1*
X4275Y9680D2*
X11887D1*
X12698D2*
X14176D1*
X15698D2*
X16176D1*
X17925D2*
X20578D1*
X21273D2*
X21590D1*
X22230D2*
X22617D1*
X28257D2*
X33219D1*
X34073D2*
X36598D1*
X4275Y9431D2*
X11887D1*
X12698D2*
X14176D1*
X15698D2*
X16176D1*
X17925D2*
X20578D1*
X21273D2*
X21590D1*
X22230D2*
X22617D1*
X28257D2*
X33219D1*
X34073D2*
X36598D1*
X4275Y9182D2*
X6484D1*
X11526D2*
X11887D1*
X12698D2*
X14176D1*
X15698D2*
X16176D1*
X17925D2*
X19461D1*
X19870D2*
X20578D1*
X21273D2*
X21590D1*
X22230D2*
X22617D1*
X28257D2*
X33219D1*
X34073D2*
X36598D1*
X4275Y8934D2*
X6359D1*
X11526D2*
X11887D1*
X12698D2*
X14176D1*
X15698D2*
X16176D1*
X20077D2*
X20578D1*
X21273D2*
X21590D1*
X22230D2*
X22617D1*
X28253D2*
X33219D1*
X34073D2*
X36598D1*
X4275Y8685D2*
X6363D1*
X11526D2*
X11887D1*
X12698D2*
X14176D1*
X15698D2*
X16176D1*
X21273D2*
X21590D1*
X22230D2*
X22617D1*
X28077D2*
X33219D1*
X34073D2*
X36598D1*
X4275Y8436D2*
X6492D1*
X11753D2*
X11887D1*
X12698D2*
X14176D1*
X15698D2*
X16176D1*
X21421D2*
X21589D1*
X22230D2*
X22769D1*
X27687D2*
X33219D1*
X34073D2*
X36598D1*
X4275Y8187D2*
X7488D1*
X10386D2*
X11121D1*
X12698D2*
X14176D1*
X22296D2*
X27047D1*
X27687D2*
X33219D1*
X34073D2*
X36598D1*
X4275Y7939D2*
X7363D1*
X10511D2*
X11367D1*
X12698D2*
X14176D1*
X27687D2*
X29523D1*
X29944D2*
X33219D1*
X34073D2*
X36598D1*
X4275Y7690D2*
X7359D1*
X10515D2*
X11375D1*
X12698D2*
X14176D1*
X27687D2*
X29320D1*
X34073D2*
X36598D1*
X4275Y7441D2*
X7484D1*
X10390D2*
X11375D1*
X12698D2*
X14176D1*
X34073D2*
X36598D1*
X4275Y7193D2*
X11266D1*
X12812D2*
X14176D1*
X29866D2*
X33035D1*
X34073D2*
X36598D1*
X4275Y6944D2*
X11328D1*
X13062D2*
X14176D1*
X29480D2*
X33031D1*
X34073D2*
X36598D1*
X4275Y6695D2*
X12238D1*
X13308D2*
X14176D1*
X29175D2*
X33250D1*
X34073D2*
X36598D1*
X4275Y6447D2*
X12488D1*
X13558D2*
X14176D1*
X29140D2*
X33433D1*
X34073D2*
X36598D1*
X4275Y6198D2*
X12738D1*
X22288D2*
X33258D1*
X34069D2*
X36598D1*
X4275Y5949D2*
X12984D1*
X21956D2*
X33008D1*
X33890D2*
X36598D1*
X4275Y5701D2*
X13234D1*
X21706D2*
X22211D1*
X33644D2*
X36598D1*
X4275Y5452D2*
X11730D1*
X33394D2*
X36598D1*
X4275Y5203D2*
X11687D1*
X23358D2*
X36598D1*
X4275Y4955D2*
X11828D1*
X12394D2*
X22656D1*
X23218D2*
X36598D1*
X4275Y4706D2*
X11703D1*
X17405D2*
X36598D1*
X4275Y4457D2*
X11703D1*
X17437D2*
X36598D1*
X32107Y12267D2*
X33142D1*
Y12013D1*
X33246Y12011D1*
X33242Y12544D1*
X33266Y12666D1*
X33337Y12773D1*
X34616Y14052D1*
X34509Y14082D1*
X34470Y14043D1*
X34378Y13981D1*
X34262Y13957D1*
X31494D1*
X31410Y13971D1*
X31274Y13844D1*
Y11527D1*
X31353Y11407D1*
X31382Y11256D1*
X31363Y11133D1*
X31307Y11021D1*
X31220Y10932D1*
X31110Y10874D1*
X30987Y10853D1*
X30864Y10870D1*
X30751Y10924D1*
X30661Y11009D1*
X30601Y11118D1*
X30577Y11240D1*
X30592Y11364D1*
X30643Y11477D1*
X30683Y11520D1*
X30685Y13631D1*
Y13969D1*
X30713Y14093D1*
X30771Y14177D1*
X30802Y14207D1*
X30669Y14254D1*
X30562Y14319D1*
X30471Y14404D1*
X30437Y14452D1*
X30365Y14365D1*
X30267Y14288D1*
X30155Y14232D1*
X30034Y14200D1*
X29910Y14193D1*
X29786Y14211D1*
X29673Y14252D1*
X29674Y12423D1*
X29753Y12301D1*
X29783Y12150D1*
X29763Y12027D1*
X29708Y11915D1*
X29620Y11826D1*
X29510Y11769D1*
X29388Y11747D1*
X29264Y11764D1*
X29152Y11818D1*
X29061Y11903D1*
X29001Y12012D1*
X28977Y12134D1*
X28992Y12258D1*
X29044Y12371D1*
X29083Y12415D1*
X29085Y14208D1*
X28910Y14193D1*
X28786Y14211D1*
X28673Y14252D1*
X28674Y11868D1*
X28753Y11742D1*
X28783Y11590D1*
X28763Y11467D1*
X28708Y11356D1*
X28620Y11267D1*
X28510Y11209D1*
X28388Y11188D1*
X28264Y11204D1*
X28233Y11220D1*
X28231Y8987D1*
X28203Y8863D1*
X28219Y8903D1*
X28168Y8805D1*
X28027Y8661D1*
X27936Y8599D1*
X27819Y8575D1*
X27643D1*
X27661Y8473D1*
X27660Y7547D1*
X27668Y7527D1*
X27792Y7515D1*
X27906Y7465D1*
X27999Y7383D1*
X28054Y7293D1*
X28067Y7374D1*
X28119Y7488D1*
X28202Y7580D1*
X28310Y7642D1*
X28432Y7668D1*
X28556Y7656D1*
X28670Y7606D1*
X28691Y7588D1*
X29287Y7590D1*
X29346Y7689D1*
X29398Y7802D1*
X29482Y7895D1*
X29590Y7957D1*
X29712Y7983D1*
X29835Y7971D1*
X29950Y7921D1*
X29970Y7903D1*
X33246Y7905D1*
X33242Y8331D1*
Y11366D1*
X33140Y11363D1*
X33142Y11107D1*
X31982D1*
Y12267D1*
X32107D1*
X36383Y18937D2*
X36358Y18815D1*
X36318Y18697D1*
X36263Y18585D1*
X36193Y18481D1*
X36111Y18387D1*
X36017Y18305D1*
X35913Y18235D1*
X35801Y18180D1*
X35671Y18138D1*
X35777Y18090D1*
X35871Y18008D1*
X35935Y17901D1*
X35965Y17750D1*
X35945Y17627D1*
X35890Y17515D1*
X35854Y17479D1*
X35856Y15000D1*
Y13875D1*
X35828Y13750D1*
X35770Y13666D1*
X35491Y13387D1*
X35689Y13357D1*
X35807Y13316D1*
X35919Y13260D1*
X36022Y13190D1*
X36116Y13107D1*
X36197Y13013D1*
X36266Y12909D1*
X36321Y12796D1*
X36360Y12678D1*
X36384Y12555D1*
X36391Y12437D1*
X36383Y12312D1*
X36358Y12190D1*
X36318Y12072D1*
X36263Y11960D1*
X36193Y11856D1*
X36111Y11762D1*
X36017Y11680D1*
X35913Y11610D1*
X35801Y11555D1*
X35683Y11515D1*
X35560Y11491D1*
X35435Y11483D1*
X35311Y11492D1*
X35188Y11516D1*
X35070Y11556D1*
X34958Y11612D1*
X34854Y11682D1*
X34761Y11764D1*
X34679Y11858D1*
X34610Y11962D1*
X34555Y12075D1*
X34515Y12193D1*
X34487Y12382D1*
X34048Y11941D1*
Y6254D1*
X34020Y6129D1*
X33962Y6045D1*
X33251Y5334D1*
X33142Y5266D1*
X33042Y5248D1*
X23343D1*
X23320Y5141D1*
X23265Y5030D1*
X23177Y4941D1*
X23067Y4883D1*
X22945Y4861D1*
X22821Y4878D1*
X22709Y4932D1*
X22667Y4972D1*
X20937Y4969D1*
X12386D1*
X12327Y4928D1*
X12422Y4869D1*
X12546Y4856D1*
X12660Y4807D1*
X12710Y4763D1*
X15445Y4761D1*
X16410D1*
X16536Y4842D1*
X16658Y4869D1*
X16770Y4857D1*
X16871Y4914D1*
X16993Y4940D1*
X17117Y4928D1*
X17231Y4879D1*
X17325Y4797D1*
X17389Y4690D1*
X17418Y4538D1*
X17399Y4415D1*
X17343Y4304D1*
X17308Y4268D1*
X17375Y4250D1*
X36625D1*
Y20125D1*
X4250D1*
Y4250D1*
X11839D1*
X11732Y4447D1*
X11708Y4569D1*
X11722Y4693D1*
X11774Y4806D1*
X11858Y4898D1*
X11895Y4920D1*
X11792Y5017D1*
X11732Y5126D1*
X11708Y5249D1*
X11722Y5372D1*
X11774Y5486D1*
X11858Y5578D1*
X11966Y5640D1*
X12087Y5666D1*
X12211Y5654D1*
X12326Y5604D1*
X12375Y5560D1*
X15110Y5558D1*
X22200D1*
X22217Y5651D1*
X22269Y5764D1*
X22353Y5856D1*
X22461Y5918D1*
X22582Y5944D1*
X22706Y5932D1*
X22820Y5883D1*
X22870Y5839D1*
X25605Y5837D1*
X32922Y5839D1*
X33459Y6379D1*
Y6664D1*
X33325Y6677D1*
X33213Y6731D1*
X33122Y6816D1*
X33062Y6925D1*
X33039Y7047D1*
X33053Y7171D1*
X33094Y7259D1*
X32191Y7257D1*
X29976D1*
X29864Y7200D1*
X29799Y7188D1*
X29648Y7037D1*
X29545Y6967D1*
X29419Y6942D1*
X29001D1*
X29062Y6883D1*
X29126Y6776D1*
X29156Y6625D1*
X29136Y6502D1*
X29081Y6391D1*
X28993Y6302D1*
X28883Y6244D1*
X28761Y6222D1*
X28637Y6239D1*
X28525Y6293D1*
X28483Y6333D1*
X26753Y6331D1*
X22312D1*
X22293Y6264D1*
X22237Y6153D1*
X22150Y6064D1*
X22040Y6006D1*
X21975Y5994D1*
X21648Y5667D1*
X21540Y5599D1*
X21440Y5580D1*
X13501D1*
X13377Y5609D1*
X13293Y5667D1*
X12026Y6934D1*
X11933Y6837D1*
X11823Y6779D1*
X11700Y6757D1*
X11577Y6774D1*
X11464Y6828D1*
X11374Y6914D1*
X11314Y7023D1*
X11290Y7145D1*
X11305Y7268D1*
X11356Y7382D1*
X11396Y7425D1*
Y7937D1*
X11084Y8249D1*
X10372Y8247D1*
Y8454D1*
X10295Y8375D1*
X10200Y8313D1*
X10255Y8279D1*
X10350Y8198D1*
X10424Y8098D1*
X10475Y7984D1*
X10502Y7812D1*
X10488Y7688D1*
X10448Y7570D1*
X10382Y7464D1*
X10295Y7375D1*
X10190Y7307D1*
X10073Y7264D1*
X9949Y7247D1*
X9825Y7258D1*
X9706Y7296D1*
X9599Y7360D1*
X9508Y7445D1*
X9436Y7552D1*
X9382Y7464D1*
X9295Y7375D1*
X9190Y7307D1*
X9073Y7264D1*
X8949Y7247D1*
X8825Y7258D1*
X8706Y7296D1*
X8599Y7360D1*
X8508Y7445D1*
X8436Y7552D1*
X8382Y7464D1*
X8295Y7375D1*
X8190Y7307D1*
X8073Y7264D1*
X7949Y7247D1*
X7825Y7258D1*
X7706Y7296D1*
X7599Y7360D1*
X7508Y7445D1*
X7438Y7548D1*
X7392Y7664D1*
X7373Y7787D1*
X7381Y7912D1*
X7416Y8031D1*
X7477Y8140D1*
X7560Y8233D1*
X7673Y8310D1*
X7599Y8360D1*
X7508Y8445D1*
X7436Y8552D1*
X7382Y8464D1*
X7295Y8375D1*
X7190Y8307D1*
X7073Y8264D1*
X6949Y8247D1*
X6825Y8258D1*
X6706Y8296D1*
X6599Y8360D1*
X6508Y8445D1*
X6438Y8548D1*
X6392Y8664D1*
X6373Y8787D1*
X6381Y8912D1*
X6416Y9031D1*
X6477Y9140D1*
X6560Y9233D1*
X6662Y9306D1*
X6777Y9354D1*
X6900Y9376D1*
X7025Y9370D1*
X7145Y9337D1*
X7255Y9279D1*
X7350Y9198D1*
X7435Y9073D1*
X7477Y9140D1*
X7560Y9233D1*
X7662Y9306D1*
X7777Y9354D1*
X7900Y9376D1*
X8025Y9370D1*
X8145Y9337D1*
X8255Y9279D1*
X8350Y9198D1*
X8435Y9073D1*
X8477Y9140D1*
X8560Y9233D1*
X8662Y9306D1*
X8777Y9354D1*
X8900Y9376D1*
X9025Y9370D1*
X9145Y9337D1*
X9255Y9279D1*
X9350Y9198D1*
X9435Y9073D1*
X9477Y9140D1*
X9560Y9233D1*
X9662Y9306D1*
X9777Y9354D1*
X9900Y9376D1*
X10025Y9370D1*
X10145Y9337D1*
X10255Y9279D1*
X10371Y9170D1*
X10372Y9377D1*
X11502D1*
Y8662D1*
X11903Y8261D1*
X11913Y8293D1*
X11911Y13358D1*
X11172Y14097D1*
X11104Y14205D1*
X10910Y14193D1*
X10786Y14211D1*
X10673Y14252D1*
X10674Y11869D1*
Y11646D1*
X10753Y11526D1*
X10783Y11374D1*
X10763Y11251D1*
X10708Y11140D1*
X10620Y11051D1*
X10510Y10993D1*
X10388Y10971D1*
X10264Y10988D1*
X10152Y11042D1*
X10061Y11128D1*
X10001Y11237D1*
X9977Y11359D1*
X9992Y11482D1*
X10044Y11596D1*
X10083Y11639D1*
X10085Y13749D1*
Y14214D1*
X10034Y14200D1*
X9910Y14193D1*
X9786Y14211D1*
X9669Y14254D1*
X9562Y14319D1*
X9471Y14404D1*
X9437Y14452D1*
X9365Y14365D1*
X9267Y14288D1*
X9155Y14232D1*
X9034Y14200D1*
X8910Y14193D1*
X8786Y14211D1*
X8669Y14254D1*
X8562Y14319D1*
X8471Y14404D1*
X8437Y14452D1*
X8365Y14365D1*
X8267Y14288D1*
X8155Y14232D1*
X8034Y14200D1*
X7910Y14193D1*
X7786Y14211D1*
X7731Y14231D1*
X7733Y13588D1*
X7811Y13465D1*
X7841Y13313D1*
X7822Y13190D1*
X7766Y13079D1*
X7679Y12990D1*
X7568Y12932D1*
X7446Y12911D1*
X7323Y12927D1*
X7210Y12981D1*
X7120Y13067D1*
X7060Y13176D1*
X7036Y13298D1*
X7050Y13422D1*
X7102Y13535D1*
X7141Y13578D1*
X7144Y14231D1*
X7034Y14200D1*
X6910Y14193D1*
X6786Y14211D1*
X6669Y14254D1*
X6562Y14319D1*
X6471Y14404D1*
X6399Y14506D1*
X6348Y14620D1*
X6322Y14742D1*
X6320Y14866D1*
X6344Y14989D1*
X6391Y15104D1*
X6461Y15208D1*
X6550Y15295D1*
X6655Y15363D1*
X6771Y15409D1*
X6894Y15430D1*
X7019Y15426D1*
X7144Y15395D1*
X7142Y16191D1*
X7111Y16221D1*
X7034Y16200D1*
X6910Y16193D1*
X6786Y16211D1*
X6669Y16254D1*
X6562Y16319D1*
X6471Y16404D1*
X6437Y16452D1*
X6365Y16365D1*
X6267Y16288D1*
X6155Y16232D1*
X6034Y16200D1*
X5910Y16193D1*
X5786Y16211D1*
X5669Y16254D1*
X5562Y16319D1*
X5471Y16404D1*
X5399Y16506D1*
X5348Y16620D1*
X5322Y16742D1*
X5320Y16866D1*
X5344Y16989D1*
X5391Y17104D1*
X5461Y17208D1*
X5550Y17295D1*
X5655Y17363D1*
X5771Y17409D1*
X5894Y17430D1*
X6019Y17426D1*
X6140Y17397D1*
X6253Y17344D1*
X6354Y17270D1*
X6439Y17174D1*
X6461Y17208D1*
X6550Y17295D1*
X6655Y17363D1*
X6771Y17409D1*
X6894Y17430D1*
X7019Y17426D1*
X7140Y17397D1*
X7253Y17344D1*
X7354Y17270D1*
X7439Y17174D1*
X7461Y17208D1*
X7550Y17295D1*
X7645Y17357D1*
X7643Y18027D1*
X7618Y18052D1*
X7558Y18161D1*
X7535Y18283D1*
X7549Y18407D1*
X7601Y18520D1*
X7685Y18612D1*
X7793Y18674D1*
X7914Y18700D1*
X8038Y18688D1*
X8152Y18639D1*
X8246Y18556D1*
X8310Y18450D1*
X8340Y18298D1*
X8320Y18175D1*
X8265Y18064D1*
X8229Y18028D1*
X8231Y17357D1*
X8354Y17270D1*
X8439Y17174D1*
X8461Y17208D1*
X8550Y17295D1*
X8655Y17363D1*
X8771Y17409D1*
X8894Y17430D1*
X9019Y17426D1*
X9140Y17397D1*
X9253Y17344D1*
X9354Y17270D1*
X9439Y17174D1*
X9461Y17208D1*
X9550Y17295D1*
X9655Y17363D1*
X9771Y17409D1*
X9894Y17430D1*
X10019Y17426D1*
X10140Y17397D1*
X10253Y17344D1*
X10354Y17270D1*
X10439Y17174D1*
X10461Y17208D1*
X10550Y17295D1*
X10645Y17357D1*
X10643Y17836D1*
X10671Y17960D1*
X10655Y17920D1*
X10706Y18018D1*
X10847Y18162D1*
X10939Y18224D1*
X11055Y18248D1*
X34545D1*
X34670Y18220D1*
X34753Y18162D1*
X35160Y17756D1*
X35174Y17858D1*
X35226Y17971D1*
X35310Y18063D1*
X35387Y18108D1*
X35188Y18141D1*
X35070Y18181D1*
X34958Y18237D1*
X34854Y18307D1*
X34761Y18389D1*
X34679Y18483D1*
X34610Y18587D1*
X34555Y18700D1*
X34515Y18818D1*
X34491Y18941D1*
X34483Y19065D1*
X34492Y19190D1*
X34517Y19312D1*
X34557Y19430D1*
X34613Y19542D1*
X34683Y19646D1*
X34765Y19739D1*
X34860Y19821D1*
X34964Y19890D1*
X35076Y19945D1*
X35195Y19985D1*
X35317Y20008D1*
X35442Y20016D1*
X35566Y20007D1*
X35689Y19982D1*
X35807Y19941D1*
X35919Y19885D1*
X36022Y19815D1*
X36116Y19732D1*
X36197Y19638D1*
X36266Y19534D1*
X36321Y19421D1*
X36360Y19303D1*
X36384Y19180D1*
X36391Y19062D1*
X36383Y18937D1*
X6383D2*
X6358Y18815D1*
X6318Y18697D1*
X6263Y18585D1*
X6193Y18481D1*
X6111Y18387D1*
X6017Y18305D1*
X5913Y18235D1*
X5801Y18180D1*
X5683Y18140D1*
X5560Y18116D1*
X5435Y18108D1*
X5311Y18117D1*
X5188Y18141D1*
X5070Y18181D1*
X4958Y18237D1*
X4854Y18307D1*
X4761Y18389D1*
X4679Y18483D1*
X4610Y18587D1*
X4555Y18700D1*
X4515Y18818D1*
X4491Y18941D1*
X4483Y19065D1*
X4492Y19190D1*
X4517Y19312D1*
X4557Y19430D1*
X4613Y19542D1*
X4683Y19646D1*
X4765Y19739D1*
X4860Y19821D1*
X4964Y19890D1*
X5076Y19945D1*
X5195Y19985D1*
X5317Y20008D1*
X5442Y20016D1*
X5566Y20007D1*
X5689Y19982D1*
X5807Y19941D1*
X5919Y19885D1*
X6022Y19815D1*
X6116Y19732D1*
X6197Y19638D1*
X6266Y19534D1*
X6321Y19421D1*
X6360Y19303D1*
X6384Y19180D1*
X6391Y19062D1*
X6383Y18937D1*
Y12312D2*
X6358Y12190D1*
X6318Y12072D1*
X6263Y11960D1*
X6193Y11856D1*
X6111Y11762D1*
X6017Y11680D1*
X5913Y11610D1*
X5801Y11555D1*
X5683Y11515D1*
X5560Y11491D1*
X5435Y11483D1*
X5311Y11492D1*
X5188Y11516D1*
X5070Y11556D1*
X4958Y11612D1*
X4854Y11682D1*
X4761Y11764D1*
X4679Y11858D1*
X4610Y11962D1*
X4555Y12075D1*
X4515Y12193D1*
X4491Y12316D1*
X4483Y12440D1*
X4492Y12565D1*
X4517Y12687D1*
X4557Y12805D1*
X4613Y12917D1*
X4683Y13021D1*
X4765Y13114D1*
X4860Y13196D1*
X4964Y13265D1*
X5076Y13320D1*
X5195Y13360D1*
X5317Y13383D1*
X5442Y13391D1*
X5566Y13382D1*
X5689Y13357D1*
X5807Y13316D1*
X5919Y13260D1*
X6022Y13190D1*
X6116Y13107D1*
X6197Y13013D1*
X6266Y12909D1*
X6321Y12796D1*
X6360Y12678D1*
X6384Y12555D1*
X6391Y12437D1*
X6383Y12312D1*
X18113Y14221D2*
X18034Y14200D1*
X17910Y14193D1*
X17786Y14211D1*
X17673Y14252D1*
X17675Y12081D1*
X18099Y12085D1*
X18228D1*
X18177Y12115D1*
X18087Y12200D1*
X18027Y12309D1*
X18003Y12432D1*
X18018Y12555D1*
X18069Y12669D1*
X18109Y12712D1*
X18111Y14216D1*
X13439Y14451D2*
X13365Y14365D1*
X13267Y14288D1*
X13155Y14232D1*
X13034Y14200D1*
X12910Y14193D1*
X12786Y14211D1*
X12673Y14252D1*
X12674Y11869D1*
X12677Y7304D1*
X13669Y6314D1*
X14250Y6317D1*
X14204Y6432D1*
X14200Y6857D1*
Y14252D1*
X14034Y14200D1*
X13910Y14193D1*
X13786Y14211D1*
X13669Y14254D1*
X13562Y14319D1*
X13471Y14404D1*
X13437Y14452D1*
X21144Y16229D2*
X21034Y16200D1*
X20910Y16193D1*
X20786Y16211D1*
X20673Y16252D1*
X20674Y14338D1*
X20642Y14204D1*
X20619Y14158D1*
Y12771D1*
X20673Y12820D1*
X20781Y12882D1*
X20902Y12908D1*
X21026Y12896D1*
X21066Y12879D1*
X21174Y12941D1*
X21308Y12966D1*
X21400Y13066D1*
Y13359D1*
X21363Y13298D1*
X21276Y13209D1*
X21166Y13151D1*
X21043Y13130D1*
X20920Y13147D1*
X20807Y13200D1*
X20717Y13286D1*
X20657Y13395D1*
X20633Y13517D1*
X20648Y13641D1*
X20699Y13754D1*
X20783Y13846D1*
X20891Y13908D1*
X21024Y13933D1*
X21145Y14061D1*
Y16229D1*
X26845Y8022D2*
X26936Y8075D1*
X27070Y8100D1*
X27072Y8297D1*
X23055D1*
X22931Y8326D1*
X22971Y8310D1*
X22872Y8361D1*
X22729Y8501D1*
X22667Y8593D1*
X22643Y8710D1*
Y11089D1*
X22366Y10811D1*
X22349Y10703D1*
X22294Y10595D1*
X22312Y10482D1*
X22293Y10359D1*
X22237Y10247D1*
X22202Y10211D1*
X22204Y8290D1*
X22283Y8165D1*
X22312Y8022D1*
X26842Y8023D1*
X16202Y13549D2*
X16177Y13524D1*
X16067Y13466D1*
X15945Y13445D1*
X15821Y13462D1*
X15709Y13516D1*
X15672Y13550D1*
X15674Y11895D1*
Y8305D1*
X16205Y8308D1*
X16200Y8619D1*
Y13544D1*
X21616Y10211D2*
X21591Y10235D1*
X21531Y10344D1*
X21507Y10466D1*
X21522Y10590D1*
X21581Y10712D1*
X21563Y10811D1*
X21577Y10934D1*
X21611Y11009D1*
X21559Y10962D1*
X21449Y10904D1*
X21326Y10883D1*
X21246Y10894D1*
X21249Y10506D1*
X21248Y8664D1*
X21301Y8529D1*
X21580Y8250D1*
X21615Y8389D1*
Y10205D1*
X25645Y11065D2*
X25620Y11040D1*
X25510Y10982D1*
X25388Y10961D1*
X25264Y10978D1*
X25233Y10993D1*
X25231Y9874D1*
X25646Y9877D1*
X25643Y10826D1*
Y11056D1*
X21673Y11097D2*
X21713Y11140D1*
X21821Y11202D1*
X21954Y11227D1*
X22143Y11423D1*
Y11693D1*
X21723Y11273D1*
X21702Y11162D1*
X21673Y11103D1*
X19395Y9115D2*
X19413Y9135D1*
X19521Y9197D1*
X19643Y9223D1*
X19767Y9211D1*
X19881Y9162D1*
X19974Y9080D1*
X20038Y8973D1*
X20059Y8886D1*
X20601Y8889D1*
Y10023D1*
X20455Y9937D1*
X20332Y9915D1*
X20209Y9932D1*
X20097Y9986D1*
X20006Y10072D1*
X19946Y10181D1*
X19922Y10303D1*
X19937Y10427D1*
X19989Y10540D1*
X20028Y10583D1*
X20030Y12056D1*
X19945Y12044D1*
X19821Y12061D1*
X19706Y12118D1*
X19704Y11909D1*
X19675Y11785D1*
X19692Y11824D1*
X19640Y11726D1*
X19500Y11583D1*
X19408Y11520D1*
X19291Y11496D1*
X17897D1*
X17901Y10923D1*
Y9114D1*
X19392Y9116D1*
D18*
X32562Y11687D3*
D19*
Y10687D3*
D21*
X34937Y16812D3*
Y14812D3*
X33937Y16812D3*
Y14812D3*
X29937Y16812D3*
Y14812D3*
X28937Y16812D3*
Y14812D3*
X27937Y16812D3*
Y14812D3*
X24937D3*
Y16812D3*
X23937D3*
Y14812D3*
X19937D3*
X18937D3*
X17937D3*
X16937D3*
X15937D3*
X5937D3*
X6937D3*
X7937D3*
X8937D3*
X9937D3*
X10937D3*
X11937D3*
X12937D3*
X13937D3*
X14937D3*
X19937Y16812D3*
X18937D3*
X17937D3*
X16937D3*
X15937D3*
X14937D3*
X13937D3*
X12937D3*
X11937D3*
X10937D3*
X9937D3*
X8937D3*
X7937D3*
X6937D3*
X5937D3*
X20937Y14812D3*
Y16812D3*
X21937D3*
Y14812D3*
X22937Y16812D3*
Y14812D3*
X25937D3*
Y16812D3*
X26937D3*
Y14812D3*
X30937D3*
Y16812D3*
X31937Y14812D3*
Y16812D3*
X32937Y14812D3*
Y16812D3*
D25*
X6937Y7812D3*
Y8812D3*
X7937D3*
Y7812D3*
X8937Y8812D3*
Y7812D3*
X9937Y8812D3*
Y7812D3*
X10937D3*
D26*
Y8812D3*
M02*
