M48
METRIC,0000.00
T01C0.3
T02C0.9
T03C0.965
T04C3.5
%
T02
X+008271Y+002969
X+008271Y+002714
T04
X+009001Y+004842
X+009001Y+003159
X+001381Y+004842
X+001381Y+003159
T03
X+008874Y+004270
X+008874Y+003762
X+008620Y+004270
X+008620Y+003762
X+007604Y+004270
X+007604Y+003762
X+007350Y+004270
X+007350Y+003762
X+007096Y+004270
X+007096Y+003762
X+006334Y+003762
X+006334Y+004270
X+006080Y+004270
X+006080Y+003762
X+005064Y+003762
X+004810Y+003762
X+004556Y+003762
X+004302Y+003762
X+004048Y+003762
X+001508Y+003762
X+001762Y+003762
X+002016Y+003762
X+002270Y+003762
X+002524Y+003762
X+002778Y+003762
X+003032Y+003762
X+003286Y+003762
X+003540Y+003762
X+003794Y+003762
X+005064Y+004270
X+004810Y+004270
X+004556Y+004270
X+004302Y+004270
X+004048Y+004270
X+003794Y+004270
X+003540Y+004270
X+003286Y+004270
X+003032Y+004270
X+002778Y+004270
X+002524Y+004270
X+002270Y+004270
X+002016Y+004270
X+001762Y+004270
X+001508Y+004270
X+005318Y+003762
X+005318Y+004270
X+005572Y+004270
X+005572Y+003762
X+005826Y+004270
X+005826Y+003762
X+006588Y+003762
X+006588Y+004270
X+006842Y+004270
X+006842Y+003762
X+007858Y+003762
X+007858Y+004270
X+008112Y+003762
X+008112Y+004270
X+008366Y+003762
X+008366Y+004270
T02
X+008849Y+001734
X+008849Y+002174
T03
X+001762Y+001984
X+001762Y+002238
X+002016Y+002238
X+002016Y+001984
X+002270Y+002238
X+002270Y+001984
X+002524Y+002238
X+002524Y+001984
X+002778Y+001984
X+002778Y+002238
T01
X+007652Y+003397
X+007334Y+003397
X+008080Y+003429
X+008572Y+003429
X+009293Y+005105
X+001085Y+005106
X+001085Y+001085
X+009299Y+001083
X+002286Y+003238
X+002873Y+003238
X+004540Y+003397
X+003270Y+003461
X+003556Y+003461
X+003270Y+003016
X+003556Y+003016
X+003254Y+002485
X+003508Y+002333
X+004000Y+002603
X+007207Y+002064
X+007763Y+001794
X+008469Y+001696
X+007398Y+002651
X+008064Y+002159
X+006826Y+002079
X+005762Y+003000
X+005762Y+003318
X+005493Y+002508
X+005493Y+002159
X+003461Y+001413
X+004048Y+001413
X+005635Y+002969
X+005207Y+002318
X+003413Y+003238
X+004048Y+003238
X+004524Y+003238
X+005985Y+001603
X+006461Y+001603
X+006556Y+002079
X+006445Y+002651
X+006858Y+001556
X+007684Y+002080
X+008366Y+001524
X+007541Y+001698
X+003614Y+001601
X+003413Y+001730
X+004675Y+002168
X+004277Y+003157
X+005315Y+003177
X+008356Y+001726
X+006878Y+001955
X+007552Y+001926
X+007227Y+001846
X+005414Y+003191
X+005511Y+003602
X+004080Y+003503
X+006193Y+002289
X+005970Y+002826
X+005925Y+002745
X+005565Y+002639
X+005565Y+002036
X+005563Y+001630
X+005986Y+002667
X+006080Y+003977
X+006080Y+002602
X+006214Y+004173
X+006193Y+002522
X+006446Y+002886
X+006645Y+002703
X+006458Y+002310
X+007224Y+003016
X+007462Y+003086
X+002016Y+004648
X+002636Y+002889
X+004477Y+001873
X+005566Y+002729
X+004811Y+003325
X+004995Y+002241
X+005742Y+001408
X+009054Y+004458
X+008494Y+004175
X+004415Y+002591
X+005155Y+002077
X+005235Y+001976
X+003906Y+004037
X+005315Y+001633
X+005162Y+002621
X+006618Y+003977
X+008562Y+003977
X+005177Y+004383
X+005475Y+001630
X+007869Y+002859
X+007303Y+001695
X+003849Y+002381
X+004350Y+001810
X+007033Y+001810
X+004034Y+001253
X+005242Y+003260
X+004907Y+001237
X+004755Y+002436
X+006734Y+001095
X+004560Y+002861
X+001889Y+003429
X+005938Y+002909
X+005402Y+002862
X+005343Y+003437
X+004322Y+001153
X+003076Y+001165
X+003075Y+001329
X+005825Y+001320
X+002970Y+001819
X+005082Y+003257
X+003178Y+001148
X+004220Y+001146
X+004675Y+003161
T00
M30
