M48
INCH
T01C0.0118
T02C0.0354
T03C0.038
T04C0.1378
%
T01
X+030125Y+013375
X+028875Y+013375
X+029380Y+012150
X+028380Y+011590
X+029125Y+010437
X+030979Y+011256
X+031812Y+013500
X+033750Y+013500
X+033711Y+015658
X+033380Y+016422
X+035562Y+017750
X+036625Y+020125
X+026055Y+015658
X+024380Y+016359
X+023937Y+015658
X+021695Y+014182
X+021035Y+013532
X+020610Y+012841
X+020925Y+012506
X+021319Y+012565
X+022187Y+011687
X+022687Y+011812
X+023380Y+011453
X+023518Y+011059
X+023281Y+010803
X+023519Y+010557
X+023937Y+010242
X+024380Y+009927
X+024380Y+009012
X+025423Y+009096
X+025812Y+008187
X+026875Y+008187
X+027081Y+007699
X+027690Y+007125
X+028455Y+007266
X+028753Y+006625
X+029687Y+006687
X+029734Y+007581
X+030253Y+008188
X+030562Y+007062
X+031750Y+008500
X+033441Y+007063
X+033441Y+006500
X+032937Y+006000
X+036625Y+004250
X+028375Y+008125
X+027000Y+006125
X+025437Y+006312
X+023562Y+006312
X+022937Y+005264
X+022605Y+005542
X+021909Y+006387
X+021555Y+006368
X+020925Y+006364
X+020610Y+008014
X+020295Y+008250
X+019665Y+008821
X+020500Y+009125
X+020325Y+010318
X+021625Y+009875
X+021909Y+010482
X+021965Y+010826
X+021319Y+011285
X+019937Y+012447
X+018937Y+013237
X+018406Y+012447
X+017812Y+012750
X+017875Y+013375
X+016839Y+012427
X+015937Y+012750
X+015937Y+013847
X+014000Y+013625
X+013437Y+012750
X+012875Y+011875
X+014000Y+011875
X+012875Y+013625
X+011312Y+012750
X+010380Y+011374
X+009000Y+012750
X+007438Y+013313
X+007937Y+018298
X+004250Y+020125
X+015380Y+015895
X+020380Y+017255
X+022687Y+013062
X+025380Y+011363
X+025375Y+010437
X+026163Y+010642
X+021909Y+008014
X+021625Y+008500
X+018720Y+009590
X+018406Y+008536
X+017627Y+007375
X+017127Y+007125
X+015937Y+005562
X+015937Y+004978
X+016681Y+004467
X+017016Y+004538
X+019449Y+004900
X+014064Y+006250
X+013625Y+005562
X+013439Y+006812
X+011693Y+007160
X+012110Y+005264
X+012110Y+004585
X+012445Y+004467
X+013812Y+009187
X+012875Y+010062
X+015154Y+009375
X+015750Y+010250
X+017380Y+010200
X+017954Y+011266
X+026390Y+004312
X+004250Y+004250
T02
X+032562Y+011687
X+032562Y+010687
T03
X+034937Y+016812
X+033937Y+016812
X+032937Y+016812
X+031937Y+016812
X+030937Y+016812
X+029937Y+016812
X+028937Y+016812
X+027937Y+016812
X+026937Y+016812
X+025937Y+016812
X+024937Y+016812
X+023937Y+016812
X+022937Y+016812
X+021937Y+016812
X+020937Y+016812
X+019937Y+016812
X+018937Y+016812
X+017937Y+016812
X+016937Y+016812
X+015937Y+016812
X+014937Y+016812
X+013937Y+016812
X+012937Y+016812
X+011937Y+016812
X+010937Y+016812
X+009937Y+016812
X+008937Y+016812
X+007937Y+016812
X+006937Y+016812
X+005937Y+016812
X+005937Y+014812
X+006937Y+014812
X+007937Y+014812
X+008937Y+014812
X+009937Y+014812
X+010937Y+014812
X+011937Y+014812
X+012937Y+014812
X+013937Y+014812
X+014937Y+014812
X+015937Y+014812
X+016937Y+014812
X+017937Y+014812
X+018937Y+014812
X+019937Y+014812
X+020937Y+014812
X+021937Y+014812
X+022937Y+014812
X+023937Y+014812
X+024937Y+014812
X+025937Y+014812
X+026937Y+014812
X+027937Y+014812
X+028937Y+014812
X+029937Y+014812
X+030937Y+014812
X+031937Y+014812
X+032937Y+014812
X+033937Y+014812
X+034937Y+014812
X+010937Y+008812
X+009937Y+008812
X+008937Y+008812
X+007937Y+008812
X+007937Y+007812
X+008937Y+007812
X+009937Y+007812
X+010937Y+007812
X+006937Y+007812
X+006937Y+008812
T04
X+035437Y+019062
X+035437Y+012437
X+005437Y+012437
X+005437Y+019062
T00
M30
