G04 DipTrace 3.1.0.1*
G04 Top.gbr*
%MOMM*%
G04 #@! TF.FileFunction,Copper,L1,Top*
G04 #@! TF.Part,Single*
G04 #@! TA.AperFunction,Conductor*
%ADD13C,0.3*%
%ADD14C,0.15*%
G04 #@! TA.AperFunction,CopperBalancing*
%ADD15C,0.635*%
%ADD16C,0.33*%
%ADD17R,0.9X0.7*%
%ADD18R,0.7X0.9*%
G04 #@! TA.AperFunction,ComponentPad*
%ADD19R,1.6X1.6*%
%ADD20C,1.6*%
%ADD21R,1.0X1.45*%
G04 #@! TA.AperFunction,ComponentPad*
%ADD22C,1.8*%
%ADD24R,2.3X0.5*%
%ADD25R,2.5X2.0*%
G04 #@! TA.AperFunction,ComponentPad*
%ADD26C,1.524*%
%ADD27R,1.524X1.524*%
%ADD28R,1.5X1.0*%
%ADD29R,0.4X1.8*%
%ADD31R,1.8X0.5*%
%ADD32R,0.5X1.8*%
G04 #@! TA.AperFunction,ViaPad*
%ADD33C,0.7*%
%FSLAX35Y35*%
G04*
G71*
G90*
G75*
G01*
G04 Top*
%LPD*%
X7747500Y2259750D2*
D13*
Y2433750D1*
X7797500Y2483750D1*
Y2587500D1*
X4675000Y2168110D2*
Y1461500D1*
X4515000Y3021500D2*
Y3121487D1*
X4479987Y3156500D1*
X4277000D1*
X7227500Y1539750D2*
Y1845510D1*
X4277000Y3156500D2*
Y3041953D1*
X4297453Y3021500D1*
X4355000D1*
X5315000Y3176500D2*
Y3021500D1*
X7552500Y1925510D2*
Y2259750D1*
X4559000Y1095250D2*
X4810000D1*
X4675000Y1461500D2*
Y1291250D1*
X4559000Y1175250D1*
Y1095250D1*
X4277000Y3156500D2*
X1892090D1*
X1373000Y3675590D1*
Y4135250D1*
X1508000Y4270250D1*
X6878500Y1955500D2*
Y1825500D1*
X6778500D1*
X7227500Y1845510D2*
X7117510Y1955500D1*
X6878500D1*
X8589273Y1793877D2*
X8423060D1*
X8355610Y1726427D1*
X4556000Y3762247D2*
D14*
X4715997Y3602250D1*
X5510510D1*
X5413940Y3191023D2*
Y3143393D1*
X5398063Y3127517D1*
Y3021500D1*
X5395000D1*
X5510510Y3602250D2*
X7444003D1*
X7604000Y3762247D1*
X4302000D2*
X4106953Y3567200D1*
X4038060D1*
X4004627Y3533767D1*
Y3471763D1*
X4035493Y3440897D1*
X4227737D1*
X4281570Y3494730D1*
X5445000D1*
X5475000Y3464730D1*
X7940500D1*
X7985960Y3510190D1*
Y3859290D1*
X7940500Y3904750D1*
X6984500D1*
X6954500Y3874750D1*
Y3662250D1*
X6984500Y3632250D1*
X7220003D1*
X7350000Y3762247D1*
X5475000Y3464730D2*
Y3021500D1*
X7096000Y3762247D2*
X7208503Y3874750D1*
X7686500D1*
X7716500Y3844750D1*
Y3564490D1*
X7686500Y3534490D1*
X4183590D1*
X4079850Y3503073D1*
X6192500Y2289000D2*
X6250000Y2346500D1*
Y3134000D1*
X6220000Y3164000D1*
X5585000D1*
X5555000Y3134000D1*
Y3021500D1*
X6842000Y3762247D2*
X6684497Y3919750D1*
X3824000D1*
X3794000Y3889750D1*
Y3762247D1*
X5969623Y2825860D2*
X5874363D1*
X5858723Y2841500D1*
X5735000D1*
X6588000Y3762247D2*
X6460497Y3889750D1*
X3936500D1*
X3906500Y3859750D1*
Y3679750D1*
X3876500Y3649750D1*
X3652497D1*
X3540000Y3762247D1*
X5924517Y2745003D2*
X5875837D1*
X5858487Y2762353D1*
X5788547D1*
X5789400Y2761500D1*
X5735000D1*
X5985627Y2667433D2*
X5922237D1*
X5895937Y2681500D1*
X5735000D1*
X5563140Y1629697D2*
Y2035500D1*
X5565000D1*
X5735000Y2681500D2*
X5634743D1*
X5592680Y2639437D1*
X5565000D1*
X6080000Y3977250D2*
X3247003D1*
X3032000Y3762247D1*
X6080000Y2601500D2*
X5735000D1*
X6214113Y4173047D2*
X6168283D1*
X6122987Y4127750D1*
X2808000D1*
X2778000Y4097750D1*
Y3762247D1*
X6192500Y2521500D2*
X5735000D1*
X6588000Y4270250D2*
Y4410250D1*
X6558000Y4440250D1*
X2666500D1*
X2651263Y4425013D1*
Y3889510D1*
X2524000Y3762247D1*
X5735000Y1801500D2*
X6645500D1*
X6675500Y1831500D1*
Y2387760D1*
X6733000Y2445260D1*
Y2856310D1*
X6703000Y2886310D1*
X6446500D1*
X6842000Y4270250D2*
X6642000Y4470250D1*
X2158500D1*
X2143500Y4455250D1*
Y3888747D1*
X2270000Y3762247D1*
X6645500Y2703020D2*
Y1911500D1*
X6615500Y1881500D1*
X5735000D1*
X7096000Y4270250D2*
X6866000Y4500250D1*
X1904500D1*
X1889950Y4485700D1*
Y3888297D1*
X2016000Y3762247D1*
X6457500Y2310310D2*
Y1991500D1*
X6427500Y1961500D1*
X5735000D1*
X7350000Y4270250D2*
X7090000Y4530250D1*
X1665500D1*
X1635500Y4500250D1*
Y3888747D1*
X1762000Y3762247D1*
X7223880Y3016380D2*
X6442480D1*
X6340000Y2913900D1*
Y2071500D1*
X6310000Y2041500D1*
X5735000D1*
X7462500Y3086000D2*
X6340000D1*
X6310000Y3056000D1*
Y2151500D1*
X6280000Y2121500D1*
X5735000D1*
X7604000Y4270250D2*
X7226500Y4647750D1*
X2016000D1*
X2270000Y4270250D2*
X2397373Y4142877D1*
Y3634887D1*
X2412500Y3619760D1*
X2860500D1*
X2905427Y3664687D1*
Y4082677D1*
X2920500Y4097750D1*
X7828000D1*
X7858000Y4127750D1*
Y4270250D1*
Y4128693D2*
X7888943Y4097750D1*
X8587517D1*
X8732500Y3952767D1*
Y3355577D1*
X8702500Y3325577D1*
X6310007D1*
X6280000Y3295570D1*
Y2231500D1*
X6250000Y2201500D1*
X5735000D1*
X2636500Y2889000D2*
X4302940D1*
X4513640Y2678300D1*
X5395000D1*
X5425000Y2648300D1*
Y2311500D1*
X5455000Y2281500D1*
X5735000D1*
X4477217Y1873260D2*
Y1825630D1*
X4397833Y1746247D1*
X4318450D1*
X4287500Y1777197D1*
Y2601500D1*
X4175000D1*
X5565903Y2729470D2*
X4882800D1*
X4835000Y2777270D1*
Y3021500D1*
X4811270Y3325353D2*
X5122940D1*
X5155000Y3293290D1*
Y3021500D1*
X4995000Y2240610D2*
Y1461500D1*
X8494013Y4175377D2*
Y4350640D1*
X8601130Y4457757D1*
X9053790D1*
X5075000Y1461500D2*
Y1333453D1*
X5715597D1*
X5741677Y1359533D1*
Y1407747D1*
X4414500Y2590790D2*
X5045003D1*
X5075000Y2560793D1*
Y1461500D1*
X5155000Y2076533D2*
Y1461500D1*
X3906500Y4037250D2*
X8590000D1*
X8620000Y4007250D1*
Y3762247D1*
X5235000Y1975610D2*
Y1461500D1*
X5315000Y1633253D2*
Y1461500D1*
X5176500Y4382750D2*
Y4390203D1*
X3405953D1*
X3286000Y4270250D1*
X5162500Y2620800D2*
X5395000Y2388300D1*
Y1461500D1*
X8562500Y3977250D2*
X6618000D1*
X3032000Y4270250D2*
X3144500Y4157750D1*
X5400500D1*
X5445687Y4202937D1*
Y4367937D1*
X5477617Y4399867D1*
X6399383D1*
X6459420Y4339830D1*
Y4174830D1*
X6484960Y4149290D1*
X7678040D1*
X7716500Y4187750D1*
Y4382750D1*
X7746500Y4412750D1*
X8223500D1*
X8366000Y4270250D1*
X5475000Y1630407D2*
Y1461500D1*
X7868780Y2858900D2*
X7310493D1*
X6705500Y2253907D1*
Y1527000D1*
X6675500Y1497000D1*
X5638000D1*
X5602500Y1461500D1*
X5555000D1*
X3682877Y2381127D2*
X3849000Y2381130D1*
X7303263Y1695327D2*
Y1539750D1*
X7292500D1*
X3849000Y2381130D2*
Y2651500D1*
X3879000Y2681500D1*
X4175000D1*
X4350203Y1809753D2*
Y2726297D1*
X4315000Y2761500D1*
X4175000D1*
X7033360Y1809753D2*
Y1539750D1*
X7032500D1*
X4175000Y2761500D2*
X3843257D1*
X3780380Y2698623D1*
X3682873D1*
X7162500Y2259750D2*
D13*
Y2397190D1*
X7227500D1*
X7489940D1*
X7525537Y2432787D1*
Y2540080D1*
X7572957Y2587500D1*
X7667500D1*
X7489940Y2397190D2*
X7487500Y2259750D1*
X6778500Y1955500D2*
Y2045500D1*
X6826127D1*
X7092500D1*
X7122500Y2015500D1*
X7207127D1*
X7227500D1*
Y2045500D1*
X7422500Y1850500D1*
Y1539750D1*
X4755000Y2435790D2*
Y1461500D1*
X4034017Y1253313D2*
X4048000D1*
Y1127000D1*
X7525537Y2432787D2*
X7648707D1*
X7682500Y2398993D1*
Y2259750D1*
X7227500Y2045500D2*
Y2259750D1*
X5242353Y3260450D2*
X5235000D1*
Y3021500D1*
X4560250Y2861500D2*
X4435000D1*
Y3021500D1*
X7667500Y2587500D2*
Y2666167D1*
X7715833Y2714500D1*
X8270750D1*
X6733690Y1095250D2*
X6718690Y1110250D1*
X6588000D1*
Y1127000D1*
X7422500Y1539750D2*
Y1155250D1*
X7362500Y1095250D1*
X6733690D1*
X4907427Y1236707D2*
X4936977Y1207157D1*
Y1095250D1*
X4940000D1*
X4755000Y1461500D2*
Y1304500D1*
X4822793Y1236707D1*
X4907427D1*
X7227500Y2259750D2*
Y2397190D1*
X7207127Y2063623D2*
Y2015500D1*
X6826127Y2079500D2*
Y2045500D1*
X8080250Y3428877D2*
X8000877D1*
X7969127Y3397127D1*
X7651627D1*
X7334127D1*
X5841877D1*
X5762500Y3317750D1*
X4524250Y3238373D2*
X4048000D1*
X3413000D1*
X2873250D1*
X2285873D1*
X1905477D1*
X1682627Y3461223D1*
Y3587620D1*
X1508000Y3762247D1*
X8589273Y2113877D2*
X8364533D1*
X8287617Y2190793D1*
Y2317807D1*
X8368687Y2398877D1*
X8599273D1*
X3286000Y1127000D2*
D14*
Y1412370D1*
X3539770Y1666140D1*
X3679433D1*
X3704077Y1641500D1*
X4175000D1*
X3888000Y1127000D2*
X3746280D1*
X3416000D1*
X1889320Y3429173D2*
X2000457Y3318037D1*
X4551043D1*
X4595000Y3274080D1*
Y3021500D1*
X5938500Y2909010D2*
X5918490Y2889000D1*
X5579610D1*
X5470420Y2779810D1*
X4945000D1*
X4915000Y2809810D1*
Y3021500D1*
X5402287Y2862187D2*
X5029323D1*
X4995000Y2896510D1*
Y3021500D1*
X5343010Y3437230D2*
X5340220Y3440020D1*
X4742800D1*
X4722500Y3419720D1*
Y3265250D1*
X4755000Y3232750D1*
Y3021500D1*
X4321960Y1152750D2*
X4294460Y1180250D1*
Y1461500D1*
X4355000D1*
X3074600Y1328610D2*
Y1164500D1*
X3076000D1*
X5824600Y1320220D2*
Y1127000D1*
X5826000D1*
X6428000D2*
X6325500D1*
X5956000D1*
X2969900Y1818630D2*
X3984390D1*
X4001520Y1801500D1*
X4175000D1*
Y2041500D2*
X4043557D1*
X4021430Y2063627D1*
X3682877D1*
X3495697D1*
X3162373Y2396950D1*
X1920700D1*
X1762000Y2238250D1*
X4175000Y1881500D2*
X3315810D1*
X3099360Y2097950D1*
X2664300D1*
X2524000Y2238250D1*
X4175000Y1961500D2*
X3397280D1*
X3021830Y2336950D1*
X2368700D1*
X2270000Y2238250D1*
X8589273Y1873877D2*
X8466773D1*
X8441773Y1898877D1*
X8417773D1*
X8045713D1*
X7830047Y2114543D1*
X7830037Y2144757D1*
X7812530Y2162250D1*
X7812500Y2259750D1*
X8589273Y1953877D2*
X8466773D1*
X8441773Y1928877D1*
X8417773D1*
X8058140D1*
X7860040Y2126977D1*
X7860037Y2144763D1*
X7877530Y2162270D1*
X7877500Y2259770D1*
X5081887Y3256843D2*
Y3128873D1*
X5077367Y3124353D1*
Y3073533D1*
X5075000Y3075900D1*
Y3021500D1*
X3177753Y1147530D2*
Y1351753D1*
X3572123Y1746123D1*
X3682877D1*
X4429000Y1095250D2*
Y1258860D1*
X4459000Y1288860D1*
X4565000D1*
X4595000Y1318860D1*
Y1461500D1*
X4220207Y1145667D2*
Y1128753D1*
X4271960Y1077000D1*
X4347777D1*
X4366027Y1095250D1*
X4429000D1*
X4675000Y3161500D2*
Y3021500D1*
D33*
X7651627Y3397127D3*
X7334127D3*
X8080250Y3428877D3*
X8572377D3*
X9293393Y5105470D3*
X1084587Y5106413D3*
Y1085450D3*
X9299150Y1082847D3*
X2285873Y3238373D3*
X2873250D3*
X4540123Y3397127D3*
X3270127Y3460623D3*
X3555873Y3460627D3*
X3270127Y3016127D3*
X3555873D3*
X3253777Y2484897D3*
X3508250Y2333500D3*
X4000373Y2603377D3*
X7207127Y2063623D3*
X7762750Y1793757D3*
X8469067Y1695803D3*
X7397627Y2651000D3*
X8064377Y2158873D3*
X6826127Y2079500D3*
X5762500Y3000250D3*
Y3317750D3*
X5492627Y2508123D3*
Y2158873D3*
X3460627Y1412753D3*
X4048000D3*
X5635500Y2968500D3*
X5206873Y2317627D3*
X3413000Y3238373D3*
X4048000D3*
X4524250D3*
X5984750Y1603250D3*
X6461000D3*
X6556250Y2079500D3*
X6445127Y2651000D3*
X6857873Y1555623D3*
X7684303Y2079657D3*
X8366000Y1523873D3*
X7540500Y1698500D3*
X3614273Y1601140D3*
X3413480Y1730370D3*
X4675000Y2168110D3*
X4277000Y3156500D3*
X5315000Y3176500D3*
X8355610Y1726427D3*
X6878500Y1955500D3*
X7552500Y1925510D3*
X7227500Y1845510D3*
X5413940Y3191023D3*
X5510510Y3602250D3*
X4079850Y3503073D3*
X6192500Y2289000D3*
X5969623Y2825860D3*
X5924517Y2745003D3*
X5565000Y2639437D3*
Y2035500D3*
X5563140Y1629697D3*
X5985627Y2667433D3*
X6080000Y3977250D3*
Y2601500D3*
X6214113Y4173047D3*
X6192500Y2521500D3*
X6446500Y2886310D3*
X6645500Y2703020D3*
X6457500Y2310310D3*
X7223880Y3016380D3*
X7462500Y3086000D3*
X2016000Y4647750D3*
X2636500Y2889000D3*
X4477217Y1873260D3*
X5565903Y2729470D3*
X4811270Y3325353D3*
X4995000Y2240610D3*
X5741677Y1407747D3*
X9053790Y4457757D3*
X8494013Y4175377D3*
X4414500Y2590790D3*
X5155000Y2076533D3*
X5235000Y1975610D3*
X3906500Y4037250D3*
X5315000Y1633253D3*
X5162500Y2620800D3*
X6618000Y3977250D3*
X8562500D3*
X5176500Y4382750D3*
X5475000Y1630407D3*
X7868780Y2858900D3*
X7303263Y1695327D3*
X3849000Y2381130D3*
X4350203Y1809753D3*
X7033360D3*
X4034017Y1253313D3*
X5242353Y3260450D3*
X4907427Y1236707D3*
X4755000Y2435790D3*
X6733690Y1095250D3*
X4560250Y2861500D3*
X1889320Y3429173D3*
X5938500Y2909010D3*
X5402287Y2862187D3*
X5343010Y3437230D3*
X4321960Y1152750D3*
X3076000Y1164500D3*
X3074600Y1328610D3*
X5824600Y1320220D3*
X2969900Y1818630D3*
X5081887Y3256843D3*
X3177753Y1147530D3*
X4220207Y1145667D3*
X4675000Y3161500D3*
X1085773Y5048457D2*
D15*
X1248253D1*
X1513793D2*
X8868230D1*
X9133767D2*
X9296340D1*
X1085773Y4985290D2*
X1179440D1*
X1582517D2*
X8799413D1*
X9202583D2*
X9296340D1*
X1085773Y4922123D2*
X1146080D1*
X1615877D2*
X8766053D1*
X9235940D2*
X9296340D1*
X1085773Y4858957D2*
X1132957D1*
X1629000D2*
X8752930D1*
X9249067D2*
X9296340D1*
X1085773Y4795790D2*
X1136783D1*
X1625263D2*
X8756757D1*
X9245240D2*
X9296340D1*
X1085773Y4732623D2*
X1158293D1*
X1603663D2*
X1952540D1*
X2079443D2*
X8778360D1*
X9223637D2*
X9296340D1*
X1085773Y4669457D2*
X1204323D1*
X1557727D2*
X1909700D1*
X7316957D2*
X8824297D1*
X9177700D2*
X9296430D1*
X1085773Y4606290D2*
X1317527D1*
X1444430D2*
X1916170D1*
X7380120D2*
X8937500D1*
X9064497D2*
X9296430D1*
X1085773Y4543123D2*
X1567903D1*
X7443287D2*
X8991093D1*
X9116450D2*
X9296430D1*
X1085773Y4479957D2*
X1554323D1*
X7506450D2*
X7707303D1*
X8262687D2*
X8511210D1*
X9160017D2*
X9296430D1*
X1085773Y4416790D2*
X1444490D1*
X9153910D2*
X9296430D1*
X1085773Y4353623D2*
X1368293D1*
X9013727D2*
X9296523D1*
X1085773Y4290457D2*
X1345690D1*
X9036333D2*
X9296523D1*
X1085773Y4227290D2*
X1342317D1*
X9031683D2*
X9296523D1*
X1085773Y4164123D2*
X1289633D1*
X8996410D2*
X9296523D1*
X1085773Y4100957D2*
X1284347D1*
X8696450D2*
X9296523D1*
X1085773Y4037790D2*
X1284347D1*
X8759613D2*
X9296613D1*
X1085773Y3974623D2*
X1284347D1*
X8810380D2*
X9296613D1*
X1085773Y3911457D2*
X1284347D1*
X8930147D2*
X9296613D1*
X1085773Y3848290D2*
X1284347D1*
X9011997D2*
X9296613D1*
X1085773Y3785123D2*
X1284347D1*
X9035967D2*
X9296613D1*
X1085773Y3721957D2*
X1284347D1*
X9032413D2*
X9296613D1*
X1085773Y3658790D2*
X1286080D1*
X8998870D2*
X9296707D1*
X1085773Y3595623D2*
X1330287D1*
X1575680D2*
X2327330D1*
X2948520D2*
X3594530D1*
X8067087D2*
X8651393D1*
X8813663D2*
X9296707D1*
X1085773Y3532457D2*
X1393450D1*
X1638847D2*
X3923477D1*
X8067087D2*
X8651393D1*
X8813663D2*
X9296707D1*
X1085773Y3469290D2*
X1456613D1*
X1702010D2*
X1788840D1*
X1989757D2*
X3923567D1*
X8054963D2*
X8651393D1*
X8813663D2*
X9296707D1*
X1085773Y3406123D2*
X1519777D1*
X2024483D2*
X3958110D1*
X4305043D2*
X4641340D1*
X7993350D2*
X8651393D1*
X8813663D2*
X9296707D1*
X1085773Y3342957D2*
X1216990D1*
X1545057D2*
X1582943D1*
X5217230D2*
X5296953D1*
X5556110D2*
X6215793D1*
X9165030D2*
X9296797D1*
X1085773Y3279790D2*
X1164583D1*
X1597373D2*
X1646107D1*
X1891500D2*
X1926563D1*
X5236097D2*
X5356743D1*
X5556110D2*
X6198840D1*
X9217347D2*
X9296797D1*
X1085773Y3216623D2*
X1139337D1*
X1622713D2*
X1709270D1*
X6361110D2*
X8759310D1*
X9242687D2*
X9296797D1*
X1085773Y3153457D2*
X1132407D1*
X1629547D2*
X1772433D1*
X7545733D2*
X8752383D1*
X9249613D2*
X9296797D1*
X1085773Y3090290D2*
X1142343D1*
X1619703D2*
X1836873D1*
X7571073D2*
X8117097D1*
X8424380D2*
X8762317D1*
X9239680D2*
X9296797D1*
X1085773Y3027123D2*
X1171420D1*
X1590630D2*
X4189713D1*
X5653637D2*
X6168853D1*
X7552477D2*
X8117097D1*
X8424380D2*
X8791393D1*
X9210603D2*
X9296887D1*
X1085773Y2963957D2*
X1230937D1*
X1531110D2*
X2560573D1*
X2712453D2*
X4232277D1*
X5653637D2*
X5845833D1*
X6031163D2*
X6168853D1*
X7318050D2*
X8117097D1*
X8424380D2*
X8850910D1*
X9151083D2*
X9296887D1*
X1085773Y2900790D2*
X2528580D1*
X6046840D2*
X6168853D1*
X6799430D2*
X7240273D1*
X7968467D2*
X8117097D1*
X8424380D2*
X9296887D1*
X1085773Y2837623D2*
X2541707D1*
X4466463D2*
X4753813D1*
X6077557D2*
X6168853D1*
X6814107D2*
X7177110D1*
X7975213D2*
X8117097D1*
X8424380D2*
X9296887D1*
X1085773Y2774457D2*
X3534193D1*
X4529627D2*
X4753907D1*
X6064430D2*
X6168853D1*
X6421177D2*
X6565977D1*
X6814107D2*
X7113943D1*
X7338193D2*
X7804740D1*
X7932830D2*
X8129857D1*
X8411620D2*
X9296887D1*
X1085773Y2711290D2*
X3534193D1*
X6084393D2*
X6168853D1*
X6421177D2*
X6537173D1*
X6814107D2*
X7050780D1*
X7275030D2*
X8117187D1*
X8424380D2*
X9296887D1*
X1085773Y2648123D2*
X3534193D1*
X6421177D2*
X6552850D1*
X6814107D2*
X6987617D1*
X7211867D2*
X7548893D1*
X7916150D2*
X8132957D1*
X8408610D2*
X9296980D1*
X1085773Y2584957D2*
X3534193D1*
X3930160D2*
X4011340D1*
X6421177D2*
X6564337D1*
X6814107D2*
X6924453D1*
X7148703D2*
X7548893D1*
X7916150D2*
X8194297D1*
X8347180D2*
X9296980D1*
X1085773Y2521790D2*
X3767890D1*
X3930160D2*
X4011340D1*
X5506163D2*
X5571393D1*
X6421177D2*
X6564337D1*
X6814107D2*
X6861290D1*
X7085537D2*
X7548893D1*
X7916150D2*
X9296980D1*
X1085773Y2458623D2*
X1872057D1*
X3211020D2*
X3534193D1*
X3930160D2*
X4011340D1*
X4431370D2*
X4993893D1*
X5156163D2*
X5212550D1*
X5506163D2*
X5571393D1*
X6421177D2*
X6564337D1*
X7022373D2*
X7662733D1*
X7882243D2*
X9296980D1*
X1085773Y2395457D2*
X1807070D1*
X3276007D2*
X3534193D1*
X3956593D2*
X4011340D1*
X4431370D2*
X4993893D1*
X5156163D2*
X5275717D1*
X5506163D2*
X5571393D1*
X6520523D2*
X6564337D1*
X7971110D2*
X9296980D1*
X1085773Y2332290D2*
X1647290D1*
X3339170D2*
X3534193D1*
X3945200D2*
X4011340D1*
X4431370D2*
X4943307D1*
X5156163D2*
X5313813D1*
X6896047D2*
X6938853D1*
X7971110D2*
X9297070D1*
X1085773Y2269123D2*
X1615480D1*
X3402333D2*
X3534193D1*
X3831540D2*
X4011340D1*
X4431370D2*
X4652550D1*
X4697533D2*
X4890443D1*
X5156163D2*
X5313813D1*
X6832790D2*
X6938853D1*
X7971110D2*
X8783373D1*
X8915200D2*
X9297070D1*
X1085773Y2205957D2*
X1615847D1*
X3465500D2*
X4011340D1*
X4431370D2*
X4573620D1*
X4776357D2*
X4892447D1*
X5156163D2*
X5313813D1*
X5476177D2*
X5571393D1*
X6786670D2*
X6938853D1*
X7971110D2*
X8400650D1*
X8963233D2*
X9297070D1*
X1085773Y2142790D2*
X1648477D1*
X3831540D2*
X4011340D1*
X4431370D2*
X4569517D1*
X4780460D2*
X4913867D1*
X5239287D2*
X5313813D1*
X5476177D2*
X5571393D1*
X6786670D2*
X6938853D1*
X7971110D2*
X8400650D1*
X8963507D2*
X9297070D1*
X1085773Y2079623D2*
X1648477D1*
X4431370D2*
X4586380D1*
X4763597D2*
X4913867D1*
X5263623D2*
X5313813D1*
X6786670D2*
X7463853D1*
X7641163D2*
X7757527D1*
X8019510D2*
X8400650D1*
X8916567D2*
X9297070D1*
X1085773Y2016457D2*
X1615847D1*
X2924183D2*
X3068710D1*
X4431370D2*
X4586380D1*
X4763597D2*
X4913867D1*
X7179143D2*
X7463853D1*
X7641163D2*
X7816040D1*
X8082673D2*
X8400650D1*
X8777933D2*
X9297160D1*
X1085773Y1953290D2*
X1615573D1*
X2924457D2*
X3131873D1*
X4547310D2*
X4586380D1*
X4763597D2*
X4913867D1*
X7242490D2*
X7447720D1*
X7657297D2*
X7879207D1*
X8777933D2*
X9297160D1*
X1085773Y1890123D2*
X1647383D1*
X4763597D2*
X4913867D1*
X7325890D2*
X7450180D1*
X7654833D2*
X7942370D1*
X8777933D2*
X9297160D1*
X1085773Y1826957D2*
X2861627D1*
X4763597D2*
X4913867D1*
X7334457D2*
X7518723D1*
X7586203D2*
X8018840D1*
X8918480D2*
X9297160D1*
X1085773Y1763790D2*
X2877213D1*
X4527530D2*
X4586380D1*
X4763597D2*
X4913867D1*
X7385590D2*
X8253997D1*
X8963870D2*
X9297160D1*
X1085773Y1700623D2*
X3414517D1*
X4464367D2*
X4586380D1*
X4763597D2*
X4913867D1*
X5898637D2*
X6624400D1*
X6786670D2*
X6952253D1*
X7411750D2*
X8250260D1*
X8460930D2*
X8735703D1*
X8962870D2*
X9297160D1*
X1085773Y1637457D2*
X3351353D1*
X4338677D2*
X4586380D1*
X4763597D2*
X4913867D1*
X5898637D2*
X6624400D1*
X6786670D2*
X6938853D1*
X7971110D2*
X8298750D1*
X8412440D2*
X8785467D1*
X8913103D2*
X9297253D1*
X1085773Y1574290D2*
X3288190D1*
X3560017D2*
X3664897D1*
X5898637D2*
X6624400D1*
X6786670D2*
X6938853D1*
X7971110D2*
X9297253D1*
X1085773Y1511123D2*
X3225027D1*
X3496853D2*
X4232187D1*
X6784940D2*
X6938853D1*
X7971110D2*
X9297253D1*
X1085773Y1447957D2*
X3161860D1*
X3433690D2*
X4213320D1*
X6738547D2*
X6938853D1*
X7971110D2*
X9297253D1*
X1085773Y1384790D2*
X2982760D1*
X3370523D2*
X4213320D1*
X5910303D2*
X6938853D1*
X7971110D2*
X9297253D1*
X1085773Y1321623D2*
X2966170D1*
X3367153D2*
X4213320D1*
X5933273D2*
X9297343D1*
X1085773Y1258457D2*
X2993423D1*
X3367153D2*
X3764337D1*
X4171607D2*
X4213320D1*
X4756853D2*
X5736730D1*
X5912490D2*
X6304387D1*
X6711657D2*
X9297343D1*
X1085773Y1195290D2*
X2972097D1*
X5058637D2*
X5707383D1*
X6711657D2*
X9297343D1*
X1085773Y1132123D2*
X2972643D1*
X5058637D2*
X5707383D1*
X6711657D2*
X9297343D1*
X7708543Y2689790D2*
X7909790D1*
Y2485210D1*
X7879803D1*
X7878777Y2470877D1*
X7875763Y2458320D1*
X7870820Y2446390D1*
X7864073Y2435380D1*
X7855670Y2425543D1*
X7860210Y2417060D1*
X7964790D1*
Y2128037D1*
X8089067Y2003720D1*
X8406957Y2003667D1*
X8406983Y2206167D1*
X8741727D1*
X8749223Y2224903D1*
X8758430Y2239927D1*
X8769873Y2253323D1*
X8783270Y2264767D1*
X8798293Y2273973D1*
X8814573Y2280717D1*
X8831707Y2284830D1*
X8849273Y2286213D1*
X8866840Y2284830D1*
X8883973Y2280717D1*
X8900253Y2273973D1*
X8915277Y2264767D1*
X8928673Y2253323D1*
X8940117Y2239927D1*
X8949323Y2224903D1*
X8956067Y2208623D1*
X8960180Y2191490D1*
X8961563Y2173923D1*
X8960180Y2156357D1*
X8956067Y2139223D1*
X8949323Y2122943D1*
X8940117Y2107920D1*
X8928673Y2094523D1*
X8915277Y2083080D1*
X8900253Y2073873D1*
X8883973Y2067130D1*
X8866840Y2063017D1*
X8849273Y2061633D1*
X8831707Y2063017D1*
X8814573Y2067130D1*
X8798293Y2073873D1*
X8783270Y2083080D1*
X8771567Y2092957D1*
X8771563Y1814957D1*
X8783270Y1824767D1*
X8798293Y1833973D1*
X8814573Y1840717D1*
X8831707Y1844830D1*
X8849273Y1846213D1*
X8866840Y1844830D1*
X8883973Y1840717D1*
X8900253Y1833973D1*
X8915277Y1824767D1*
X8928673Y1813323D1*
X8940117Y1799927D1*
X8949323Y1784903D1*
X8956067Y1768623D1*
X8960180Y1751490D1*
X8961563Y1733923D1*
X8960180Y1716357D1*
X8956067Y1699223D1*
X8949323Y1682943D1*
X8940117Y1667920D1*
X8928673Y1654523D1*
X8915277Y1643080D1*
X8900253Y1633873D1*
X8883973Y1627130D1*
X8866840Y1623017D1*
X8849273Y1621633D1*
X8831707Y1623017D1*
X8814573Y1627130D1*
X8798293Y1633873D1*
X8783270Y1643080D1*
X8769873Y1654523D1*
X8758430Y1667920D1*
X8749223Y1682943D1*
X8742480Y1699223D1*
X8741817Y1701577D1*
X8454833Y1701587D1*
X8450113Y1687283D1*
X8442827Y1672980D1*
X8433393Y1659993D1*
X8422043Y1648643D1*
X8409057Y1639210D1*
X8394753Y1631923D1*
X8379490Y1626963D1*
X8363637Y1624453D1*
X8347583D1*
X8331730Y1626963D1*
X8316467Y1631923D1*
X8302163Y1639210D1*
X8289177Y1648643D1*
X8277827Y1659993D1*
X8268393Y1672980D1*
X8261107Y1687283D1*
X8256147Y1702547D1*
X8253637Y1718400D1*
Y1734453D1*
X8256147Y1750307D1*
X8261107Y1765570D1*
X8268393Y1779873D1*
X8277827Y1792860D1*
X8289177Y1804210D1*
X8302163Y1813643D1*
X8316467Y1820930D1*
X8324440Y1824087D1*
X8039847Y1824317D1*
X8028253Y1826153D1*
X8017093Y1829780D1*
X8006637Y1835107D1*
X7997140Y1842007D1*
X7844337Y1994483D1*
X7773193Y2065953D1*
X7766290Y2075443D1*
X7760960Y2085900D1*
X7757323Y2097083D1*
X7741457Y2102460D1*
X7634777D1*
X7635253Y1985633D1*
X7643640Y1971950D1*
X7649783Y1957120D1*
X7653530Y1941513D1*
X7654790Y1925510D1*
X7653530Y1909507D1*
X7649783Y1893900D1*
X7643640Y1879070D1*
X7635253Y1865387D1*
X7624830Y1853180D1*
X7612623Y1842757D1*
X7598940Y1834370D1*
X7584110Y1828227D1*
X7568503Y1824480D1*
X7552500Y1823220D1*
X7536497Y1824480D1*
X7520890Y1828227D1*
X7506060Y1834370D1*
X7492377Y1842757D1*
X7480170Y1853180D1*
X7469747Y1865387D1*
X7461360Y1879070D1*
X7455217Y1893900D1*
X7451470Y1909507D1*
X7450210Y1925510D1*
X7451470Y1941513D1*
X7455217Y1957120D1*
X7461360Y1971950D1*
X7470193Y1986200D1*
X7470210Y2102423D1*
X6945210Y2102460D1*
Y2387837D1*
X6780300Y2222937D1*
X6780290Y2067877D1*
X6880790Y2067790D1*
Y2057783D1*
X6894503Y2056530D1*
X6910110Y2052783D1*
X6924940Y2046640D1*
X6939190Y2037807D1*
X7123967Y2037537D1*
X7136720Y2035517D1*
X7149000Y2031527D1*
X7160507Y2025663D1*
X7170953Y2018073D1*
X7242660Y1946723D1*
X7259110Y1942793D1*
X7273940Y1936650D1*
X7287623Y1928263D1*
X7299830Y1917840D1*
X7310253Y1905633D1*
X7318640Y1891950D1*
X7324783Y1877120D1*
X7328530Y1861513D1*
X7329790Y1845510D1*
X7328530Y1829507D1*
X7324783Y1813900D1*
X7318640Y1799070D1*
X7317277Y1796637D1*
X7334873Y1792610D1*
X7349703Y1786467D1*
X7363387Y1778080D1*
X7375593Y1767657D1*
X7386017Y1755450D1*
X7394403Y1741767D1*
X7400547Y1726937D1*
X7404293Y1711330D1*
X7405487Y1697050D1*
X7704790Y1697040D1*
X7899790Y1696947D1*
X7964790Y1697040D1*
Y1382460D1*
X7595210D1*
X7400210Y1382550D1*
X7205210D1*
X7010210Y1382460D1*
X6945210D1*
Y1697040D1*
X6958610D1*
X6958570Y1739997D1*
X6950607Y1749630D1*
X6942220Y1763313D1*
X6939183Y1769897D1*
X6926870Y1758927D1*
X6915860Y1752180D1*
X6903930Y1747237D1*
X6891373Y1744223D1*
X6884930Y1743463D1*
X6880790Y1727790D1*
Y1713210D1*
X6780257D1*
X6780060Y1521133D1*
X6778223Y1509540D1*
X6774597Y1498380D1*
X6769270Y1487923D1*
X6762370Y1478427D1*
X6728383Y1444117D1*
X6719460Y1436493D1*
X6709453Y1430360D1*
X6698610Y1425870D1*
X6687200Y1423130D1*
X6675500Y1422210D1*
X5842883D1*
X5856210Y1417503D1*
X5871040Y1411360D1*
X5884723Y1402973D1*
X5896930Y1392550D1*
X5907353Y1380343D1*
X5915740Y1366660D1*
X5921883Y1351830D1*
X5925630Y1336223D1*
X5926890Y1320220D1*
X5925630Y1304217D1*
X5921883Y1288610D1*
X5915740Y1273780D1*
X5907353Y1260097D1*
X5899390Y1250220D1*
Y1229347D1*
X6068290Y1229290D1*
Y1201853D1*
X6310647Y1201790D1*
X6310710Y1266790D1*
X6705290D1*
Y1079413D1*
X9303707Y1079423D1*
X9302633Y5111583D1*
X1079387Y5111623D1*
X1079377Y1079453D1*
X3019203Y1079387D1*
X3009567Y1086717D1*
X2998217Y1098067D1*
X2988783Y1111053D1*
X2981497Y1125357D1*
X2976537Y1140620D1*
X2974027Y1156473D1*
Y1172527D1*
X2976537Y1188380D1*
X2981497Y1203643D1*
X2988783Y1217947D1*
X2999817Y1232660D1*
X2999810Y1258837D1*
X2991847Y1268487D1*
X2983460Y1282170D1*
X2977317Y1297000D1*
X2973570Y1312607D1*
X2972310Y1328610D1*
X2973570Y1344613D1*
X2977317Y1360220D1*
X2983460Y1375050D1*
X2991847Y1388733D1*
X3002270Y1400940D1*
X3014477Y1411363D1*
X3028160Y1419750D1*
X3042990Y1425893D1*
X3058597Y1429640D1*
X3074600Y1430900D1*
X3090603Y1429640D1*
X3106210Y1425893D1*
X3121040Y1419750D1*
X3132873Y1412603D1*
X3464067Y1743837D1*
X3039663Y1743840D1*
X3030023Y1735877D1*
X3016340Y1727490D1*
X3001510Y1721347D1*
X2985903Y1717600D1*
X2969900Y1716340D1*
X2953897Y1717600D1*
X2938290Y1721347D1*
X2923460Y1727490D1*
X2909777Y1735877D1*
X2897570Y1746300D1*
X2887147Y1758507D1*
X2878760Y1772190D1*
X2872617Y1787020D1*
X2868870Y1802627D1*
X2867610Y1818630D1*
X2868870Y1834633D1*
X2872617Y1850240D1*
X2878760Y1865070D1*
X2887147Y1878753D1*
X2897570Y1890960D1*
X2909777Y1901383D1*
X2923460Y1909770D1*
X2938290Y1915913D1*
X2953897Y1919660D1*
X2969900Y1920920D1*
X2985903Y1919660D1*
X3001510Y1915913D1*
X3016340Y1909770D1*
X3030023Y1901383D1*
X3039900Y1893420D1*
X3198037D1*
X3068350Y2023190D1*
X2916067Y2023160D1*
X2919447Y2008377D1*
X2921383Y1989823D1*
X2920807Y1970273D1*
X2917787Y1951863D1*
X2912407Y1934003D1*
X2904750Y1916993D1*
X2894957Y1901120D1*
X2883183Y1886650D1*
X2869633Y1873830D1*
X2854537Y1862877D1*
X2838143Y1853973D1*
X2820737Y1847270D1*
X2802603Y1842887D1*
X2784060Y1840887D1*
X2765410Y1841313D1*
X2746973Y1844153D1*
X2729063Y1849363D1*
X2711977Y1856850D1*
X2696010Y1866493D1*
X2681427Y1878123D1*
X2668473Y1891547D1*
X2657373Y1906540D1*
X2651007Y1917487D1*
X2640087Y1899910D1*
X2625463Y1882787D1*
X2608340Y1868163D1*
X2589143Y1856400D1*
X2568340Y1847783D1*
X2546447Y1842527D1*
X2524000Y1840760D1*
X2501553Y1842527D1*
X2479660Y1847783D1*
X2458857Y1856400D1*
X2439660Y1868163D1*
X2422537Y1882787D1*
X2407913Y1899910D1*
X2397030Y1917533D1*
X2386087Y1899910D1*
X2371463Y1882787D1*
X2354340Y1868163D1*
X2335143Y1856400D1*
X2314340Y1847783D1*
X2292447Y1842527D1*
X2270000Y1840760D1*
X2247553Y1842527D1*
X2225660Y1847783D1*
X2204857Y1856400D1*
X2185660Y1868163D1*
X2168537Y1882787D1*
X2153913Y1899910D1*
X2143030Y1917533D1*
X2132087Y1899910D1*
X2117463Y1882787D1*
X2100340Y1868163D1*
X2081143Y1856400D1*
X2060340Y1847783D1*
X2038447Y1842527D1*
X2016000Y1840760D1*
X1993553Y1842527D1*
X1971660Y1847783D1*
X1950857Y1856400D1*
X1931660Y1868163D1*
X1914537Y1882787D1*
X1899913Y1899910D1*
X1889030Y1917533D1*
X1878957Y1901120D1*
X1867183Y1886650D1*
X1853633Y1873830D1*
X1838537Y1862877D1*
X1822143Y1853973D1*
X1804737Y1847270D1*
X1786603Y1842887D1*
X1768060Y1840887D1*
X1749410Y1841313D1*
X1730973Y1844153D1*
X1713063Y1849363D1*
X1695977Y1856850D1*
X1680010Y1866493D1*
X1665427Y1878123D1*
X1652473Y1891547D1*
X1641373Y1906540D1*
X1632313Y1922843D1*
X1625443Y1940187D1*
X1620880Y1958273D1*
X1618703Y1976800D1*
X1618947Y1995450D1*
X1621610Y2013913D1*
X1626643Y2031877D1*
X1633967Y2049033D1*
X1643450Y2065093D1*
X1654940Y2079790D1*
X1668240Y2092870D1*
X1683123Y2104113D1*
X1695223Y2111253D1*
X1677660Y2122163D1*
X1660537Y2136787D1*
X1645913Y2153910D1*
X1634150Y2173107D1*
X1625533Y2193910D1*
X1620277Y2215803D1*
X1618510Y2238250D1*
X1620277Y2260697D1*
X1625533Y2282590D1*
X1634150Y2303393D1*
X1645913Y2322590D1*
X1660537Y2339713D1*
X1677660Y2354337D1*
X1696857Y2366100D1*
X1717660Y2374717D1*
X1739553Y2379973D1*
X1762000Y2381740D1*
X1784447Y2379973D1*
X1795710Y2377717D1*
X1872127Y2453820D1*
X1881623Y2460720D1*
X1892080Y2466047D1*
X1903240Y2469673D1*
X1914833Y2471510D1*
X2130700Y2471740D1*
X3168240Y2471510D1*
X3179833Y2469673D1*
X3190993Y2466047D1*
X3201450Y2460720D1*
X3210947Y2453820D1*
X3363750Y2301343D1*
X3526617Y2138477D1*
X3540587Y2156337D1*
Y2180917D1*
X3825167D1*
Y2138350D1*
X4017670Y2138417D1*
X4017710Y2606800D1*
X3923710Y2606710D1*
X3923790Y2450887D1*
X3931753Y2441253D1*
X3940140Y2427570D1*
X3946283Y2412740D1*
X3950030Y2397133D1*
X3951290Y2381130D1*
X3950030Y2365127D1*
X3946283Y2349520D1*
X3940140Y2334690D1*
X3931753Y2321007D1*
X3921330Y2308800D1*
X3909123Y2298377D1*
X3895440Y2289990D1*
X3880610Y2283847D1*
X3865003Y2280100D1*
X3849000Y2278840D1*
X3832997Y2280100D1*
X3825150Y2281660D1*
X3825167Y2263837D1*
X3540587D1*
Y2498417D1*
X3774193D1*
X3774210Y2581377D1*
X3540583Y2581333D1*
Y2814210D1*
X2706340D1*
X2696623Y2806247D1*
X2682940Y2797860D1*
X2668110Y2791717D1*
X2652503Y2787970D1*
X2636500Y2786710D1*
X2620497Y2787970D1*
X2604890Y2791717D1*
X2590060Y2797860D1*
X2576377Y2806247D1*
X2564170Y2816670D1*
X2553747Y2828877D1*
X2545360Y2842560D1*
X2539217Y2857390D1*
X2535470Y2872997D1*
X2534210Y2889000D1*
X2535470Y2905003D1*
X2539217Y2920610D1*
X2545360Y2935440D1*
X2553747Y2949123D1*
X2564170Y2961330D1*
X2576377Y2971753D1*
X2590060Y2980140D1*
X2604890Y2986283D1*
X2620497Y2990030D1*
X2636500Y2991290D1*
X2652503Y2990030D1*
X2668110Y2986283D1*
X2682940Y2980140D1*
X2696623Y2971753D1*
X2706500Y2963790D1*
X4238753D1*
X4214427Y2988510D1*
X4206837Y2998957D1*
X4200973Y3010463D1*
X4196983Y3022743D1*
X4194963Y3035497D1*
X4194710Y3074127D1*
X1892090Y3074210D1*
X1879217Y3075223D1*
X1866660Y3078237D1*
X1854730Y3083180D1*
X1843720Y3089927D1*
X1833903Y3098313D1*
X1310427Y3622147D1*
X1302837Y3632593D1*
X1296973Y3644100D1*
X1292983Y3656380D1*
X1290963Y3669133D1*
X1290710Y3838923D1*
X1290963Y4141707D1*
X1292983Y4154460D1*
X1296973Y4166740D1*
X1302837Y4178247D1*
X1310427Y4188693D1*
X1354963Y4233590D1*
X1351193Y4257910D1*
Y4282590D1*
X1355057Y4306970D1*
X1362683Y4330443D1*
X1373887Y4352433D1*
X1388397Y4372403D1*
X1405847Y4389853D1*
X1425817Y4404363D1*
X1447807Y4415567D1*
X1471280Y4423193D1*
X1495660Y4427057D1*
X1520340D1*
X1544720Y4423193D1*
X1560723Y4418323D1*
X1560940Y4506117D1*
X1562777Y4517710D1*
X1566403Y4528870D1*
X1571730Y4539327D1*
X1578630Y4548823D1*
X1612617Y4583133D1*
X1621540Y4590757D1*
X1631547Y4596890D1*
X1642390Y4601380D1*
X1653800Y4604120D1*
X1665523Y4605040D1*
X1922987D1*
X1916537Y4623870D1*
X1914027Y4639723D1*
Y4655777D1*
X1916537Y4671630D1*
X1921497Y4686893D1*
X1928783Y4701197D1*
X1938217Y4714183D1*
X1949567Y4725533D1*
X1962553Y4734967D1*
X1976857Y4742253D1*
X1992120Y4747213D1*
X2007973Y4749723D1*
X2024027D1*
X2039880Y4747213D1*
X2055143Y4742253D1*
X2069447Y4734967D1*
X2082433Y4725533D1*
X2086000Y4722540D1*
X7232367Y4722310D1*
X7243960Y4720473D1*
X7255120Y4716847D1*
X7265577Y4711520D1*
X7275073Y4704620D1*
X7427877Y4552143D1*
X7559033Y4420987D1*
X7579393Y4425603D1*
X7604000Y4427540D1*
X7628607Y4425603D1*
X7651723Y4420090D1*
X7659630Y4431323D1*
X7693617Y4465633D1*
X7702540Y4473257D1*
X7712547Y4479390D1*
X7723390Y4483880D1*
X7734800Y4486620D1*
X7746500Y4487540D1*
X8229367Y4487310D1*
X8240960Y4485473D1*
X8252120Y4481847D1*
X8262577Y4476520D1*
X8272073Y4469620D1*
X8321047Y4420970D1*
X8341393Y4425603D1*
X8366000Y4427540D1*
X8390607Y4425603D1*
X8414607Y4419843D1*
X8437407Y4410397D1*
X8444187Y4406600D1*
X8552557Y4514627D1*
X8562053Y4521527D1*
X8572510Y4526853D1*
X8583670Y4530480D1*
X8595263Y4532317D1*
X8811130Y4532547D1*
X8984033D1*
X8993667Y4540510D1*
X9007350Y4548897D1*
X9022180Y4555040D1*
X9037787Y4558787D1*
X9053790Y4560047D1*
X9069793Y4558787D1*
X9085400Y4555040D1*
X9100230Y4548897D1*
X9113913Y4540510D1*
X9126120Y4530087D1*
X9136543Y4517880D1*
X9144930Y4504197D1*
X9151073Y4489367D1*
X9154820Y4473760D1*
X9156080Y4457757D1*
X9154820Y4441753D1*
X9151073Y4426147D1*
X9144930Y4411317D1*
X9136543Y4397633D1*
X9126120Y4385427D1*
X9113913Y4375003D1*
X9100230Y4366617D1*
X9085400Y4360473D1*
X9069793Y4356727D1*
X9053790Y4355467D1*
X9037787Y4356727D1*
X9022180Y4360473D1*
X9007350Y4366617D1*
X8993667Y4375003D1*
X8983700Y4382967D1*
X8993603Y4372403D1*
X9008113Y4352433D1*
X9019317Y4330443D1*
X9026943Y4306970D1*
X9030807Y4282590D1*
Y4257910D1*
X9026943Y4233530D1*
X9019317Y4210057D1*
X9008113Y4188067D1*
X8993603Y4168097D1*
X8976153Y4150647D1*
X8956183Y4136137D1*
X8934193Y4124933D1*
X8910720Y4117307D1*
X8886340Y4113443D1*
X8861660D1*
X8837280Y4117307D1*
X8813807Y4124933D1*
X8791817Y4136137D1*
X8771847Y4150647D1*
X8754397Y4168097D1*
X8747020Y4177457D1*
X8731220Y4159030D1*
X8712453Y4143000D1*
X8691407Y4130103D1*
X8669917Y4121143D1*
X8789370Y4001340D1*
X8796270Y3991843D1*
X8801597Y3981387D1*
X8805223Y3970227D1*
X8807060Y3958633D1*
X8807290Y3904733D1*
X8825393Y3911840D1*
X8849393Y3917600D1*
X8874000Y3919537D1*
X8898607Y3917600D1*
X8922607Y3911840D1*
X8945407Y3902393D1*
X8966453Y3889497D1*
X8985220Y3873467D1*
X9001250Y3854700D1*
X9014147Y3833653D1*
X9023593Y3810853D1*
X9029353Y3786853D1*
X9031290Y3762247D1*
X9029353Y3737640D1*
X9023593Y3713640D1*
X9014147Y3690840D1*
X9001250Y3669793D1*
X8985220Y3651027D1*
X8966453Y3634997D1*
X8945407Y3622100D1*
X8922607Y3612653D1*
X8898607Y3606893D1*
X8874000Y3604957D1*
X8849393Y3606893D1*
X8825393Y3612653D1*
X8807280Y3619940D1*
X8807060Y3349710D1*
X8805223Y3338117D1*
X8801597Y3326957D1*
X8796270Y3316500D1*
X8789370Y3307003D1*
X8755383Y3272693D1*
X8746460Y3265070D1*
X8736453Y3258937D1*
X8725610Y3254447D1*
X8714200Y3251707D1*
X8702500Y3250787D1*
X6354857D1*
X6354790Y3160767D1*
X7392643Y3160790D1*
X7402377Y3168753D1*
X7416060Y3177140D1*
X7430890Y3183283D1*
X7446497Y3187030D1*
X7462500Y3188290D1*
X7478503Y3187030D1*
X7494110Y3183283D1*
X7508940Y3177140D1*
X7522623Y3168753D1*
X7534830Y3158330D1*
X7545253Y3146123D1*
X7553640Y3132440D1*
X7559783Y3117610D1*
X7563530Y3102003D1*
X7564790Y3086000D1*
X7563530Y3069997D1*
X7559783Y3054390D1*
X7553640Y3039560D1*
X7545253Y3025877D1*
X7534830Y3013670D1*
X7522623Y3003247D1*
X7508940Y2994860D1*
X7494110Y2988717D1*
X7478503Y2984970D1*
X7462500Y2983710D1*
X7446497Y2984970D1*
X7430890Y2988717D1*
X7416060Y2994860D1*
X7402377Y3003247D1*
X7392500Y3011210D1*
X7326053D1*
X7323343Y2992500D1*
X7318383Y2977237D1*
X7311097Y2962933D1*
X7301663Y2949947D1*
X7290313Y2938597D1*
X7277327Y2929163D1*
X7263023Y2921877D1*
X7247760Y2916917D1*
X7231907Y2914407D1*
X7215853D1*
X7200000Y2916917D1*
X7184737Y2921877D1*
X7170433Y2929163D1*
X7157447Y2938597D1*
X7153880Y2941590D1*
X6753293D1*
X6789870Y2904883D1*
X6796770Y2895387D1*
X6802097Y2884930D1*
X6805723Y2873770D1*
X6807560Y2862177D1*
X6807790Y2646310D1*
Y2461923D1*
X7261920Y2915770D1*
X7271417Y2922670D1*
X7281873Y2927997D1*
X7293033Y2931623D1*
X7304627Y2933460D1*
X7520493Y2933690D1*
X7798943D1*
X7808657Y2941653D1*
X7822340Y2950040D1*
X7837170Y2956183D1*
X7852777Y2959930D1*
X7868780Y2961190D1*
X7884783Y2959930D1*
X7900390Y2956183D1*
X7915220Y2950040D1*
X7928903Y2941653D1*
X7941110Y2931230D1*
X7951533Y2919023D1*
X7959920Y2905340D1*
X7966063Y2890510D1*
X7969810Y2874903D1*
X7971070Y2858900D1*
X7969810Y2842897D1*
X7966063Y2827290D1*
X7959920Y2812460D1*
X7951533Y2798777D1*
X7941110Y2786570D1*
X7928903Y2776147D1*
X7915220Y2767760D1*
X7900390Y2761617D1*
X7884783Y2757870D1*
X7868780Y2756610D1*
X7852777Y2757870D1*
X7837170Y2761617D1*
X7822340Y2767760D1*
X7808657Y2776147D1*
X7798780Y2784110D1*
X7341500D1*
X6974423Y2417060D1*
X7665223Y2417040D1*
X7665463Y2440207D1*
X7667483Y2452960D1*
X7671473Y2465240D1*
X7677337Y2476747D1*
X7680940Y2482140D1*
X7681790Y2485210D1*
X7555210D1*
Y2689790D1*
X7708543D1*
X4721043Y1197540D2*
X5052290D1*
Y1079397D1*
X5713657Y1079403D1*
X5713710Y1229290D1*
X5749897D1*
X5749810Y1250503D1*
X5740050Y1262783D1*
X5727297Y1259583D1*
X5715573Y1258663D1*
X5069133Y1258893D1*
X5057540Y1260730D1*
X5046380Y1264357D1*
X5035923Y1269683D1*
X5026427Y1276583D1*
X5018130Y1284880D1*
X5011230Y1294377D1*
X5008353Y1299520D1*
X5003957Y1304210D1*
X4757233D1*
X4757037Y1284793D1*
X4755017Y1272040D1*
X4751027Y1259760D1*
X4745163Y1248253D1*
X4737573Y1237807D1*
X4677697Y1177570D1*
X4697710Y1179627D1*
Y1197540D1*
X4721043D1*
X8146793Y3115790D2*
X8418040D1*
Y2821210D1*
X8372193D1*
X8382747Y2810160D1*
X8393940Y2795237D1*
X8403157Y2779020D1*
X8410250Y2761767D1*
X8415107Y2743753D1*
X8417647Y2725273D1*
X8417743Y2705173D1*
X8415387Y2686670D1*
X8410710Y2668610D1*
X8403787Y2651287D1*
X8394730Y2634980D1*
X8383683Y2619947D1*
X8370827Y2606430D1*
X8356367Y2594650D1*
X8340530Y2584790D1*
X8323577Y2577010D1*
X8305773Y2571433D1*
X8287410Y2568157D1*
X8268780Y2567223D1*
X8250180Y2568653D1*
X8231910Y2572423D1*
X8214263Y2578470D1*
X8197523Y2586703D1*
X8181957Y2596983D1*
X8167817Y2609147D1*
X8155327Y2623003D1*
X8144687Y2638327D1*
X8136070Y2654870D1*
X8129613Y2672370D1*
X8125420Y2690547D1*
X8123560Y2709110D1*
X8124057Y2727757D1*
X8126910Y2746193D1*
X8132070Y2764117D1*
X8139453Y2781250D1*
X8148943Y2797310D1*
X8160387Y2812040D1*
X8169237Y2821200D1*
X8123460Y2821210D1*
Y3115790D1*
X8146793D1*
X3794043Y1266790D2*
X4165290D1*
Y1231953D1*
X4181063Y1240170D1*
X4196330Y1245130D1*
X4212183Y1247643D1*
X4219677Y1247937D1*
X4219900Y1467367D1*
X4221737Y1478960D1*
X4225363Y1490120D1*
X4230690Y1500577D1*
X4237590Y1510073D1*
X4245887Y1518370D1*
X4255383Y1525270D1*
X4260527Y1528147D1*
X4262710Y1537543D1*
X4262290Y1549210D1*
X4017710D1*
Y1566620D1*
X3698210Y1566940D1*
X3686617Y1568777D1*
X3675457Y1572403D1*
X3665000Y1577730D1*
X3655503Y1584630D1*
X3651177Y1588633D1*
X3632767Y1591350D1*
X3570697D1*
X3360830Y1381430D1*
X3360790Y1229257D1*
X3528290Y1229290D1*
Y1201857D1*
X3770797Y1201790D1*
X3770710Y1266790D1*
X3794043D1*
X9242543Y4822740D2*
X9240307Y4803847D1*
X9236597Y4785190D1*
X9231430Y4766877D1*
X9224847Y4749030D1*
X9216883Y4731753D1*
X9207587Y4715153D1*
X9197017Y4699337D1*
X9185240Y4684397D1*
X9172323Y4670427D1*
X9158353Y4657510D1*
X9143413Y4645733D1*
X9127597Y4635163D1*
X9110997Y4625867D1*
X9093720Y4617903D1*
X9075873Y4611320D1*
X9057560Y4606153D1*
X9038903Y4602443D1*
X9020010Y4600207D1*
X9001000Y4599460D1*
X8981990Y4600207D1*
X8963097Y4602443D1*
X8944440Y4606153D1*
X8926127Y4611320D1*
X8908280Y4617903D1*
X8891003Y4625867D1*
X8874403Y4635163D1*
X8858587Y4645733D1*
X8843647Y4657510D1*
X8829677Y4670427D1*
X8816760Y4684397D1*
X8804983Y4699337D1*
X8794413Y4715153D1*
X8785117Y4731753D1*
X8777153Y4749030D1*
X8770570Y4766877D1*
X8765403Y4785190D1*
X8761693Y4803847D1*
X8759457Y4822740D1*
X8758710Y4841750D1*
X8759457Y4860760D1*
X8761693Y4879653D1*
X8765403Y4898310D1*
X8770570Y4916623D1*
X8777153Y4934470D1*
X8785117Y4951747D1*
X8794413Y4968347D1*
X8804983Y4984163D1*
X8816760Y4999103D1*
X8829677Y5013073D1*
X8843647Y5025990D1*
X8858587Y5037767D1*
X8874403Y5048337D1*
X8891003Y5057633D1*
X8908280Y5065597D1*
X8926127Y5072180D1*
X8944440Y5077347D1*
X8963097Y5081057D1*
X8981990Y5083293D1*
X9001000Y5084040D1*
X9020010Y5083293D1*
X9038903Y5081057D1*
X9057560Y5077347D1*
X9075873Y5072180D1*
X9093720Y5065597D1*
X9110997Y5057633D1*
X9127597Y5048337D1*
X9143413Y5037767D1*
X9158353Y5025990D1*
X9172323Y5013073D1*
X9185240Y4999103D1*
X9197017Y4984163D1*
X9207587Y4968347D1*
X9216883Y4951747D1*
X9224847Y4934470D1*
X9231430Y4916623D1*
X9236597Y4898310D1*
X9240307Y4879653D1*
X9242543Y4860760D1*
X9243290Y4841750D1*
X9242543Y4822740D1*
Y3139990D2*
X9240307Y3121097D1*
X9236597Y3102440D1*
X9231430Y3084127D1*
X9224847Y3066280D1*
X9216883Y3049003D1*
X9207587Y3032403D1*
X9197017Y3016587D1*
X9185240Y3001647D1*
X9172323Y2987677D1*
X9158353Y2974760D1*
X9143413Y2962983D1*
X9127597Y2952413D1*
X9110997Y2943117D1*
X9093720Y2935153D1*
X9075873Y2928570D1*
X9057560Y2923403D1*
X9038903Y2919693D1*
X9020010Y2917457D1*
X9001000Y2916710D1*
X8981990Y2917457D1*
X8963097Y2919693D1*
X8944440Y2923403D1*
X8926127Y2928570D1*
X8908280Y2935153D1*
X8891003Y2943117D1*
X8874403Y2952413D1*
X8858587Y2962983D1*
X8843647Y2974760D1*
X8829677Y2987677D1*
X8816760Y3001647D1*
X8804983Y3016587D1*
X8794413Y3032403D1*
X8785117Y3049003D1*
X8777153Y3066280D1*
X8770570Y3084127D1*
X8765403Y3102440D1*
X8761693Y3121097D1*
X8759457Y3139990D1*
X8758710Y3159000D1*
X8759457Y3178010D1*
X8761693Y3196903D1*
X8765403Y3215560D1*
X8770570Y3233873D1*
X8777153Y3251720D1*
X8785117Y3268997D1*
X8794413Y3285597D1*
X8804983Y3301413D1*
X8816760Y3316353D1*
X8829677Y3330323D1*
X8843647Y3343240D1*
X8858587Y3355017D1*
X8874403Y3365587D1*
X8891003Y3374883D1*
X8908280Y3382847D1*
X8926127Y3389430D1*
X8944440Y3394597D1*
X8963097Y3398307D1*
X8981990Y3400543D1*
X9001000Y3401290D1*
X9020010Y3400543D1*
X9038903Y3398307D1*
X9057560Y3394597D1*
X9075873Y3389430D1*
X9093720Y3382847D1*
X9110997Y3374883D1*
X9127597Y3365587D1*
X9143413Y3355017D1*
X9158353Y3343240D1*
X9172323Y3330323D1*
X9185240Y3316353D1*
X9197017Y3301413D1*
X9207587Y3285597D1*
X9216883Y3268997D1*
X9224847Y3251720D1*
X9231430Y3233873D1*
X9236597Y3215560D1*
X9240307Y3196903D1*
X9242543Y3178010D1*
X9243290Y3159000D1*
X9242543Y3139990D1*
X1622543Y4822740D2*
X1620307Y4803847D1*
X1616597Y4785190D1*
X1611430Y4766877D1*
X1604847Y4749030D1*
X1596883Y4731753D1*
X1587587Y4715153D1*
X1577017Y4699337D1*
X1565240Y4684397D1*
X1552323Y4670427D1*
X1538353Y4657510D1*
X1523413Y4645733D1*
X1507597Y4635163D1*
X1490997Y4625867D1*
X1473720Y4617903D1*
X1455873Y4611320D1*
X1437560Y4606153D1*
X1418903Y4602443D1*
X1400010Y4600207D1*
X1381000Y4599460D1*
X1361990Y4600207D1*
X1343097Y4602443D1*
X1324440Y4606153D1*
X1306127Y4611320D1*
X1288280Y4617903D1*
X1271003Y4625867D1*
X1254403Y4635163D1*
X1238587Y4645733D1*
X1223647Y4657510D1*
X1209677Y4670427D1*
X1196760Y4684397D1*
X1184983Y4699337D1*
X1174413Y4715153D1*
X1165117Y4731753D1*
X1157153Y4749030D1*
X1150570Y4766877D1*
X1145403Y4785190D1*
X1141693Y4803847D1*
X1139457Y4822740D1*
X1138710Y4841750D1*
X1139457Y4860760D1*
X1141693Y4879653D1*
X1145403Y4898310D1*
X1150570Y4916623D1*
X1157153Y4934470D1*
X1165117Y4951747D1*
X1174413Y4968347D1*
X1184983Y4984163D1*
X1196760Y4999103D1*
X1209677Y5013073D1*
X1223647Y5025990D1*
X1238587Y5037767D1*
X1254403Y5048337D1*
X1271003Y5057633D1*
X1288280Y5065597D1*
X1306127Y5072180D1*
X1324440Y5077347D1*
X1343097Y5081057D1*
X1361990Y5083293D1*
X1381000Y5084040D1*
X1400010Y5083293D1*
X1418903Y5081057D1*
X1437560Y5077347D1*
X1455873Y5072180D1*
X1473720Y5065597D1*
X1490997Y5057633D1*
X1507597Y5048337D1*
X1523413Y5037767D1*
X1538353Y5025990D1*
X1552323Y5013073D1*
X1565240Y4999103D1*
X1577017Y4984163D1*
X1587587Y4968347D1*
X1596883Y4951747D1*
X1604847Y4934470D1*
X1611430Y4916623D1*
X1616597Y4898310D1*
X1620307Y4879653D1*
X1622543Y4860760D1*
X1623290Y4841750D1*
X1622543Y4822740D1*
Y3139990D2*
X1620307Y3121097D1*
X1616597Y3102440D1*
X1611430Y3084127D1*
X1604847Y3066280D1*
X1596883Y3049003D1*
X1587587Y3032403D1*
X1577017Y3016587D1*
X1565240Y3001647D1*
X1552323Y2987677D1*
X1538353Y2974760D1*
X1523413Y2962983D1*
X1507597Y2952413D1*
X1490997Y2943117D1*
X1473720Y2935153D1*
X1455873Y2928570D1*
X1437560Y2923403D1*
X1418903Y2919693D1*
X1400010Y2917457D1*
X1381000Y2916710D1*
X1361990Y2917457D1*
X1343097Y2919693D1*
X1324440Y2923403D1*
X1306127Y2928570D1*
X1288280Y2935153D1*
X1271003Y2943117D1*
X1254403Y2952413D1*
X1238587Y2962983D1*
X1223647Y2974760D1*
X1209677Y2987677D1*
X1196760Y3001647D1*
X1184983Y3016587D1*
X1174413Y3032403D1*
X1165117Y3049003D1*
X1157153Y3066280D1*
X1150570Y3084127D1*
X1145403Y3102440D1*
X1141693Y3121097D1*
X1139457Y3139990D1*
X1138710Y3159000D1*
X1139457Y3178010D1*
X1141693Y3196903D1*
X1145403Y3215560D1*
X1150570Y3233873D1*
X1157153Y3251720D1*
X1165117Y3268997D1*
X1174413Y3285597D1*
X1184983Y3301413D1*
X1196760Y3316353D1*
X1209677Y3330323D1*
X1223647Y3343240D1*
X1238587Y3355017D1*
X1254403Y3365587D1*
X1271003Y3374883D1*
X1288280Y3382847D1*
X1306127Y3389430D1*
X1324440Y3394597D1*
X1343097Y3398307D1*
X1361990Y3400543D1*
X1381000Y3401290D1*
X1400010Y3400543D1*
X1418903Y3398307D1*
X1437560Y3394597D1*
X1455873Y3389430D1*
X1473720Y3382847D1*
X1490997Y3374883D1*
X1507597Y3365587D1*
X1523413Y3355017D1*
X1538353Y3343240D1*
X1552323Y3330323D1*
X1565240Y3316353D1*
X1577017Y3301413D1*
X1587587Y3285597D1*
X1596883Y3268997D1*
X1604847Y3251720D1*
X1611430Y3233873D1*
X1616597Y3215560D1*
X1620307Y3196903D1*
X1622543Y3178010D1*
X1623290Y3159000D1*
X1622543Y3139990D1*
X8657693Y3609577D2*
X8644607Y3606893D1*
X8620000Y3604957D1*
X8595393Y3606893D1*
X8571393Y3612653D1*
X8548593Y3622100D1*
X8527547Y3634997D1*
X8508780Y3651027D1*
X8493020Y3669453D1*
X8477220Y3651027D1*
X8458453Y3634997D1*
X8437407Y3622100D1*
X8414607Y3612653D1*
X8390607Y3606893D1*
X8366000Y3604957D1*
X8341393Y3606893D1*
X8317393Y3612653D1*
X8294593Y3622100D1*
X8273547Y3634997D1*
X8254780Y3651027D1*
X8239020Y3669453D1*
X8223220Y3651027D1*
X8204453Y3634997D1*
X8183407Y3622100D1*
X8160607Y3612653D1*
X8136607Y3606893D1*
X8112000Y3604957D1*
X8087393Y3606893D1*
X8063393Y3612653D1*
X8060723Y3613640D1*
X8060520Y3504323D1*
X8058683Y3492730D1*
X8055057Y3481570D1*
X8049730Y3471113D1*
X8042830Y3461617D1*
X7989073Y3407860D1*
X7979557Y3400950D1*
X8013340Y3400367D1*
X8657650D1*
X8657710Y3609600D1*
X3983820Y3618767D2*
X3965817Y3628133D1*
X3962567Y3630307D1*
X3925073Y3592880D1*
X3915577Y3585980D1*
X3905120Y3580653D1*
X3893960Y3577027D1*
X3882367Y3575190D1*
X3666500Y3574960D1*
X3646630Y3575190D1*
X3635037Y3577027D1*
X3623877Y3580653D1*
X3613420Y3585980D1*
X3603923Y3592880D1*
X3584983Y3611497D1*
X3564607Y3606893D1*
X3540000Y3604957D1*
X3515393Y3606893D1*
X3491393Y3612653D1*
X3468593Y3622100D1*
X3447547Y3634997D1*
X3428780Y3651027D1*
X3413020Y3669453D1*
X3397220Y3651027D1*
X3378453Y3634997D1*
X3357407Y3622100D1*
X3334607Y3612653D1*
X3310607Y3606893D1*
X3286000Y3604957D1*
X3261393Y3606893D1*
X3237393Y3612653D1*
X3214593Y3622100D1*
X3193547Y3634997D1*
X3174780Y3651027D1*
X3159020Y3669453D1*
X3143220Y3651027D1*
X3124453Y3634997D1*
X3103407Y3622100D1*
X3080607Y3612653D1*
X3056607Y3606893D1*
X3032000Y3604957D1*
X3007393Y3606893D1*
X2983393Y3612653D1*
X2965367Y3619900D1*
X2958293Y3611787D1*
X2909073Y3562890D1*
X2899577Y3555990D1*
X2889120Y3550663D1*
X2877960Y3547037D1*
X2866367Y3545200D1*
X2650500Y3544970D1*
X2406633Y3545200D1*
X2395040Y3547037D1*
X2383880Y3550663D1*
X2373423Y3555990D1*
X2363927Y3562890D1*
X2340503Y3586313D1*
X2333603Y3595810D1*
X2328277Y3606267D1*
X2326237Y3611797D1*
X2318607Y3612653D1*
X2294607Y3606893D1*
X2270000Y3604957D1*
X2245393Y3606893D1*
X2221393Y3612653D1*
X2198593Y3622100D1*
X2177547Y3634997D1*
X2158780Y3651027D1*
X2143020Y3669453D1*
X2127220Y3651027D1*
X2108453Y3634997D1*
X2087407Y3622100D1*
X2064607Y3612653D1*
X2040607Y3606893D1*
X2016000Y3604957D1*
X1991393Y3606893D1*
X1967393Y3612653D1*
X1944593Y3622100D1*
X1923547Y3634997D1*
X1904780Y3651027D1*
X1889020Y3669453D1*
X1873220Y3651027D1*
X1854453Y3634997D1*
X1833407Y3622100D1*
X1810607Y3612653D1*
X1786607Y3606893D1*
X1762000Y3604957D1*
X1737393Y3606893D1*
X1713393Y3612653D1*
X1690593Y3622100D1*
X1669547Y3634997D1*
X1650780Y3651027D1*
X1635020Y3669453D1*
X1623970Y3655987D1*
X1610573Y3643003D1*
X1595733Y3631697D1*
X1579660Y3622230D1*
X1562577Y3614730D1*
X1553330Y3611637D1*
X1926227Y3238740D1*
X4216217Y3238790D1*
X4222850Y3243247D1*
X1994590Y3243477D1*
X1982997Y3245313D1*
X1971837Y3248940D1*
X1961380Y3254267D1*
X1951883Y3261167D1*
X1885763Y3326960D1*
X1873317Y3328143D1*
X1857710Y3331890D1*
X1842880Y3338033D1*
X1829197Y3346420D1*
X1816990Y3356843D1*
X1806567Y3369050D1*
X1798180Y3382733D1*
X1792037Y3397563D1*
X1788290Y3413170D1*
X1787030Y3429173D1*
X1788290Y3445177D1*
X1792037Y3460783D1*
X1798180Y3475613D1*
X1806567Y3489297D1*
X1816990Y3501503D1*
X1829197Y3511927D1*
X1842880Y3520313D1*
X1857710Y3526457D1*
X1873317Y3530203D1*
X1889320Y3531463D1*
X1905323Y3530203D1*
X1920930Y3526457D1*
X1935760Y3520313D1*
X1949443Y3511927D1*
X1961650Y3501503D1*
X1972073Y3489297D1*
X1980460Y3475613D1*
X1986603Y3460783D1*
X1990350Y3445177D1*
X1991703Y3432560D1*
X2031467Y3392797D1*
X3977867Y3392827D1*
X3947757Y3423190D1*
X3940857Y3432687D1*
X3935530Y3443143D1*
X3931903Y3454303D1*
X3930067Y3465897D1*
Y3539633D1*
X3931903Y3551227D1*
X3935530Y3562387D1*
X3940857Y3572843D1*
X3947757Y3582340D1*
X3983773Y3618683D1*
X4332290Y1671537D2*
X4332710Y1618790D1*
X4592767D1*
X4592710Y2107267D1*
X4583860Y2121670D1*
X4577717Y2136500D1*
X4573970Y2152107D1*
X4572710Y2168110D1*
X4573970Y2184113D1*
X4577717Y2199720D1*
X4583860Y2214550D1*
X4592247Y2228233D1*
X4602670Y2240440D1*
X4614877Y2250863D1*
X4628560Y2259250D1*
X4643390Y2265393D1*
X4658997Y2269140D1*
X4675000Y2270400D1*
X4691003Y2269140D1*
X4706610Y2265393D1*
X4721440Y2259250D1*
X4735123Y2250863D1*
X4747330Y2240440D1*
X4757753Y2228233D1*
X4766140Y2214550D1*
X4772283Y2199720D1*
X4776030Y2184113D1*
X4777290Y2168110D1*
X4776030Y2152107D1*
X4772283Y2136500D1*
X4766140Y2121670D1*
X4757307Y2107420D1*
X4757290Y1618773D1*
X4920237Y1618790D1*
X4920210Y2170887D1*
X4912247Y2180487D1*
X4903860Y2194170D1*
X4897717Y2209000D1*
X4893970Y2224607D1*
X4892710Y2240610D1*
X4893970Y2256613D1*
X4897717Y2272220D1*
X4903860Y2287050D1*
X4912247Y2300733D1*
X4922670Y2312940D1*
X4934877Y2323363D1*
X4948560Y2331750D1*
X4963390Y2337893D1*
X4978997Y2341640D1*
X4995000Y2342900D1*
X5000237Y2342693D1*
X5000210Y2515967D1*
X4484367Y2516000D1*
X4474623Y2508037D1*
X4460940Y2499650D1*
X4446110Y2493507D1*
X4430503Y2489760D1*
X4424987Y2489107D1*
X4424993Y1961127D1*
X4438073Y1967763D1*
X4453337Y1972723D1*
X4469190Y1975233D1*
X4485243D1*
X4501097Y1972723D1*
X4516360Y1967763D1*
X4530663Y1960477D1*
X4543650Y1951043D1*
X4555000Y1939693D1*
X4564433Y1926707D1*
X4571720Y1912403D1*
X4576680Y1897140D1*
X4579190Y1881287D1*
Y1865233D1*
X4576680Y1849380D1*
X4571720Y1834117D1*
X4564433Y1819813D1*
X4555000Y1806827D1*
X4546897Y1798480D1*
X4540987Y1786553D1*
X4534087Y1777057D1*
X4450717Y1693363D1*
X4441793Y1685740D1*
X4431787Y1679607D1*
X4420943Y1675117D1*
X4409533Y1672377D1*
X4397833Y1671457D1*
X4332300D1*
X5892290Y1726770D2*
Y1571823D1*
X6630670Y1571790D1*
X6630710Y1726700D1*
X5892363Y1726710D1*
X5577710Y2137037D2*
Y2206737D1*
X5469857Y2206710D1*
X5469790Y2072843D1*
X5477783Y2088947D1*
X5487217Y2101933D1*
X5498567Y2113283D1*
X5511553Y2122717D1*
X5525857Y2130003D1*
X5541120Y2134963D1*
X5556973Y2137473D1*
X5573027D1*
X5577730Y2136917D1*
X5577710Y2356277D2*
X5577800Y2533790D1*
X5573027Y2537463D1*
X5556973D1*
X5541120Y2539973D1*
X5525857Y2544933D1*
X5511553Y2552220D1*
X5499777Y2560703D1*
X5499790Y2356360D1*
X5577773Y2356290D1*
X5647290Y3089193D2*
Y2963777D1*
X5852043Y2963790D1*
X5860717Y2975443D1*
X5872067Y2986793D1*
X5885053Y2996227D1*
X5899357Y3003513D1*
X5914620Y3008473D1*
X5930473Y3010983D1*
X5946527D1*
X5962380Y3008473D1*
X5977643Y3003513D1*
X5991947Y2996227D1*
X6004933Y2986793D1*
X6016283Y2975443D1*
X6025717Y2962457D1*
X6033003Y2948153D1*
X6037963Y2932890D1*
X6040473Y2917037D1*
X6040330Y2899770D1*
X6052377Y2885983D1*
X6060763Y2872300D1*
X6066907Y2857470D1*
X6070653Y2841863D1*
X6071913Y2825860D1*
X6070653Y2809857D1*
X6066907Y2794250D1*
X6060763Y2779420D1*
X6052377Y2765737D1*
X6041517Y2753127D1*
X6052060Y2745217D1*
X6063410Y2733867D1*
X6072843Y2720880D1*
X6080130Y2706577D1*
X6081163Y2703783D1*
X6096003Y2702530D1*
X6111610Y2698783D1*
X6126440Y2692640D1*
X6140123Y2684253D1*
X6152330Y2673830D1*
X6162753Y2661623D1*
X6171140Y2647940D1*
X6175210Y2638730D1*
Y3089247D1*
X5647330Y3089210D1*
X4760273Y2864210D2*
X4433527D1*
X4544597Y2753110D1*
X4764200Y2753090D1*
X4761130Y2765570D1*
X4760210Y2777270D1*
Y2864133D1*
X4331150Y3243247D2*
X4337690Y3238807D1*
X4486443Y3238537D1*
X4499197Y3236517D1*
X4511477Y3232527D1*
X4517367Y3229810D1*
X4520210Y3231500D1*
Y3243077D1*
X4331290Y3243247D1*
X5229787Y3232947D2*
X5237217Y3242933D1*
X5248567Y3254283D1*
X5261553Y3263717D1*
X5275857Y3271003D1*
X5291120Y3275963D1*
X5306973Y3278473D1*
X5323027D1*
X5338880Y3275963D1*
X5351467Y3271993D1*
X5367500Y3282163D1*
X5382330Y3288307D1*
X5400213Y3292323D1*
X5400210Y3352450D1*
X5389450Y3346090D1*
X5374620Y3339947D1*
X5359013Y3336200D1*
X5343010Y3334940D1*
X5327007Y3336200D1*
X5311400Y3339947D1*
X5296570Y3346090D1*
X5282887Y3354477D1*
X5270220Y3365230D1*
X5188827D1*
X5211870Y3341863D1*
X5218770Y3332367D1*
X5224097Y3321910D1*
X5227723Y3310750D1*
X5229560Y3299157D1*
X5229790Y3233043D1*
X6516180Y2811530D2*
X6506623Y2803557D1*
X6492940Y2795170D1*
X6478110Y2789027D1*
X6462503Y2785280D1*
X6446500Y2784020D1*
X6430497Y2785280D1*
X6414803Y2789060D1*
X6414790Y2403210D1*
X6425890Y2407593D1*
X6441497Y2411340D1*
X6457500Y2412600D1*
X6473503Y2411340D1*
X6489110Y2407593D1*
X6503940Y2401450D1*
X6517623Y2393063D1*
X6529830Y2382640D1*
X6540253Y2370433D1*
X6548640Y2356750D1*
X6554783Y2341920D1*
X6558530Y2326313D1*
X6559790Y2310310D1*
X6558530Y2294307D1*
X6554783Y2278700D1*
X6548640Y2263870D1*
X6540253Y2250187D1*
X6532290Y2240310D1*
X6532060Y1985633D1*
X6530223Y1974040D1*
X6526597Y1962880D1*
X6524127Y1957527D1*
X6528333Y1956290D1*
X6570717D1*
X6570710Y2633283D1*
X6562747Y2642897D1*
X6554360Y2656580D1*
X6548217Y2671410D1*
X6544470Y2687017D1*
X6543210Y2703020D1*
X6544470Y2719023D1*
X6548217Y2734630D1*
X6554360Y2749460D1*
X6562747Y2763143D1*
X6573170Y2775350D1*
X6585377Y2785773D1*
X6599060Y2794160D1*
X6613890Y2800303D1*
X6629497Y2804050D1*
X6645500Y2805310D1*
X6658230Y2804437D1*
X6656333Y2811520D1*
X6516243D1*
X5149763Y2178617D2*
X5163027Y2178510D1*
X5178880Y2175997D1*
X5194143Y2171037D1*
X5208447Y2163750D1*
X5221433Y2154317D1*
X5232783Y2142967D1*
X5242217Y2129980D1*
X5249503Y2115680D1*
X5254463Y2100413D1*
X5256973Y2084560D1*
X5257247Y2075437D1*
X5274143Y2070113D1*
X5288447Y2062827D1*
X5301433Y2053390D1*
X5312783Y2042040D1*
X5320213Y2032057D1*
X5320210Y2357373D1*
X5159013Y2518517D1*
X5149770Y2519383D1*
X5149790Y2178620D1*
X4312607Y3419997D2*
X4285407Y3392800D1*
X4556910Y3392597D1*
X4568503Y3390760D1*
X4579663Y3387133D1*
X4590120Y3381807D1*
X4599617Y3374907D1*
X4647670Y3327180D1*
X4647710Y3419743D1*
X4312513Y3419940D1*
X6271893Y3389940D2*
X5549837D1*
X5549790Y3230030D1*
X5561890Y3235130D1*
X5573300Y3237870D1*
X5585023Y3238790D1*
X6205247D1*
X6205440Y3301437D1*
X6207277Y3313030D1*
X6210903Y3324190D1*
X6216230Y3334647D1*
X6223130Y3344143D1*
X6257123Y3378460D1*
X6266047Y3386083D1*
X6270950Y3389357D1*
X7667500Y2689700D2*
D16*
Y2485300D1*
X7555300Y2587500D2*
X7667500D1*
X4940000Y1095250D2*
X5052200D1*
X8270750Y2714500D2*
Y2567300D1*
X8123550Y2714500D2*
X8417950D1*
X6588000Y1266700D2*
Y1127000D1*
X6705200D1*
X1508000Y3762247D2*
X1619157Y3651090D1*
X8589273Y2206073D2*
Y2113877D1*
X1762000Y1984250D2*
Y1840850D1*
X1618600Y1984250D2*
X1762000D1*
X2778000D2*
Y1840850D1*
Y1984250D2*
X2921400D1*
D17*
X7797500Y2587500D3*
X7667500D3*
X4810000Y1095250D3*
X4940000D3*
D18*
X6778500Y1825500D3*
Y1955500D3*
D19*
X8270750Y2968500D3*
D20*
Y2714500D3*
D21*
X3888000Y1127000D3*
X4048000D3*
X6428000D3*
X6588000D3*
D22*
X8874000Y4270250D3*
Y3762247D3*
X8620000Y4270250D3*
Y3762247D3*
X7604000Y4270250D3*
Y3762247D3*
X7350000Y4270250D3*
Y3762247D3*
X7096000Y4270250D3*
Y3762247D3*
X6334000D3*
Y4270250D3*
X6080000D3*
Y3762247D3*
X5064000D3*
X4810000D3*
X4556000D3*
X4302000D3*
X4048000D3*
X1508000D3*
X1762000D3*
X2016000D3*
X2270000D3*
X2524000D3*
X2778000D3*
X3032000D3*
X3286000D3*
X3540000D3*
X3794000D3*
X5064000Y4270250D3*
X4810000D3*
X4556000D3*
X4302000D3*
X4048000D3*
X3794000D3*
X3540000D3*
X3286000D3*
X3032000D3*
X2778000D3*
X2524000D3*
X2270000D3*
X2016000D3*
X1762000D3*
X1508000D3*
X5318000Y3762247D3*
Y4270250D3*
X5572000D3*
Y3762247D3*
X5826000Y4270250D3*
Y3762247D3*
X6588000D3*
Y4270250D3*
X6842000D3*
Y3762247D3*
X7858000D3*
Y4270250D3*
X8112000Y3762247D3*
Y4270250D3*
X8366000Y3762247D3*
Y4270250D3*
D24*
X8589273Y1793877D3*
Y1873877D3*
Y1953877D3*
Y2033877D3*
Y2113877D3*
D25*
X8599273Y1508877D3*
Y2398877D3*
X9149273Y1508877D3*
Y2398877D3*
D26*
X1762000Y1984250D3*
Y2238250D3*
X2016000D3*
Y1984250D3*
X2270000Y2238250D3*
Y1984250D3*
X2524000Y2238250D3*
Y1984250D3*
X2778000D3*
D27*
Y2238250D3*
D28*
X3682877Y1746123D3*
X3682873Y2698623D3*
X3682877Y2381127D3*
Y2063627D3*
D17*
X3286000Y1127000D3*
X3416000D3*
X5826000D3*
X5956000D3*
X4429000Y1095250D3*
X4559000D3*
D29*
X7032500Y1539750D3*
X7097500D3*
X7162500D3*
X7227500D3*
X7292500D3*
X7357500D3*
X7422500D3*
X7487500D3*
X7552500D3*
X7617500D3*
X7682500D3*
X7747500D3*
X7812500D3*
X7877500D3*
Y2259770D3*
X7812500Y2259750D3*
X7747500D3*
X7682500D3*
X7617500D3*
X7552500D3*
X7487500D3*
X7422500D3*
X7357500D3*
X7292500D3*
X7227500D3*
X7162500D3*
X7097500D3*
X7032500D3*
D31*
X4175000Y2841500D3*
Y2761500D3*
Y2681500D3*
Y2601500D3*
Y2521500D3*
Y2441500D3*
Y2361500D3*
Y2281500D3*
Y2201500D3*
Y2121500D3*
Y2041500D3*
Y1961500D3*
Y1881500D3*
Y1801500D3*
Y1721500D3*
Y1641500D3*
D32*
X4355000Y1461500D3*
X4435000D3*
X4515000D3*
X4595000D3*
X4675000D3*
X4755000D3*
X4835000D3*
X4915000D3*
X4995000D3*
X5075000D3*
X5155000D3*
X5235000D3*
X5315000D3*
X5395000D3*
X5475000D3*
X5555000D3*
D31*
X5735000Y1641500D3*
Y1721500D3*
Y1801500D3*
Y1881500D3*
Y1961500D3*
Y2041500D3*
Y2121500D3*
Y2201500D3*
Y2281500D3*
Y2361500D3*
Y2441500D3*
Y2521500D3*
Y2601500D3*
Y2681500D3*
Y2761500D3*
Y2841500D3*
D32*
X5555000Y3021500D3*
X5475000D3*
X5395000D3*
X5315000D3*
X5235000D3*
X5155000D3*
X5075000D3*
X4995000D3*
X4915000D3*
X4835000D3*
X4755000D3*
X4675000D3*
X4595000D3*
X4515000D3*
X4435000D3*
X4355000D3*
M02*
