G04 DipTrace 2.4.0.2*
%INTopMask.gbr*%
%MOIN*%
%ADD33C,0.1378*%
%ADD37R,0.0276X0.0787*%
%ADD39R,0.0787X0.0276*%
%ADD41R,0.0236X0.0787*%
%ADD43R,0.0669X0.0472*%
%ADD45R,0.0679X0.0679*%
%ADD47C,0.0679*%
%ADD49R,0.1063X0.0866*%
%ADD51R,0.0984X0.0276*%
%ADD53C,0.0787*%
%ADD55R,0.0472X0.065*%
%ADD57C,0.0709*%
%ADD59R,0.0709X0.0709*%
%ADD61R,0.0354X0.0433*%
%ADD63R,0.0433X0.0354*%
%FSLAX44Y44*%
G04*
G70*
G90*
G75*
G01*
%LNTopMask*%
%LPD*%
D63*
X30699Y10187D3*
X30187D3*
X18937Y4312D3*
X19449D3*
D61*
X26687Y7187D3*
Y7699D3*
D59*
X32562Y11687D3*
D57*
Y10687D3*
D55*
X15307Y4437D3*
X15937D3*
X25307D3*
X25937D3*
D33*
X35437Y19062D3*
Y12437D3*
X5437Y19062D3*
Y12437D3*
D53*
X34937Y16812D3*
Y14812D3*
X33937Y16812D3*
Y14812D3*
X29937Y16812D3*
Y14812D3*
X28937Y16812D3*
Y14812D3*
X27937Y16812D3*
Y14812D3*
X24937D3*
Y16812D3*
X23937D3*
Y14812D3*
X19937D3*
X18937D3*
X17937D3*
X16937D3*
X15937D3*
X5937D3*
X6937D3*
X7937D3*
X8937D3*
X9937D3*
X10937D3*
X11937D3*
X12937D3*
X13937D3*
X14937D3*
X19937Y16812D3*
X18937D3*
X17937D3*
X16937D3*
X15937D3*
X14937D3*
X13937D3*
X12937D3*
X11937D3*
X10937D3*
X9937D3*
X8937D3*
X7937D3*
X6937D3*
X5937D3*
X20937Y14812D3*
Y16812D3*
X21937D3*
Y14812D3*
X22937Y16812D3*
Y14812D3*
X25937D3*
Y16812D3*
X26937D3*
Y14812D3*
X30937D3*
Y16812D3*
X31937Y14812D3*
Y16812D3*
X32937Y14812D3*
Y16812D3*
D51*
X34187Y7062D3*
Y7377D3*
Y7692D3*
Y8007D3*
Y8322D3*
D49*
X34226Y5940D3*
Y9444D3*
X36392Y5940D3*
Y9444D3*
D47*
X6937Y7812D3*
Y8812D3*
X7937D3*
Y7812D3*
X8937Y8812D3*
Y7812D3*
X9937Y8812D3*
Y7812D3*
X10937D3*
D45*
Y8812D3*
D43*
X14500Y6875D3*
Y10625D3*
Y9375D3*
Y8125D3*
D63*
X12937Y4437D3*
X13449D3*
X22937D3*
X23449D3*
X17437Y4312D3*
X17949D3*
D41*
X27687Y6062D3*
X27943D3*
X28199D3*
X28455D3*
X28711D3*
X28967D3*
X29222D3*
X29478D3*
X29734D3*
X29990D3*
X30246D3*
X30502D3*
X30758D3*
X31014D3*
Y8897D3*
X30758D3*
X30502D3*
X30246D3*
X29990D3*
X29734D3*
X29478D3*
X29222D3*
X28967D3*
X28711D3*
X28455D3*
X28199D3*
X27943D3*
X27687D3*
D39*
X16437Y11187D3*
Y10872D3*
Y10557D3*
Y10242D3*
Y9927D3*
Y9612D3*
Y9297D3*
Y8982D3*
Y8667D3*
Y8352D3*
Y8037D3*
Y7722D3*
Y7407D3*
Y7093D3*
Y6778D3*
Y6463D3*
D37*
X17146Y5754D3*
X17461D3*
X17776D3*
X18091D3*
X18406D3*
X18720D3*
X19035D3*
X19350D3*
X19665D3*
X19980D3*
X20295D3*
X20610D3*
X20925D3*
X21240D3*
X21555D3*
X21870D3*
D39*
X22579Y6463D3*
Y6778D3*
Y7093D3*
Y7407D3*
Y7722D3*
Y8037D3*
Y8352D3*
Y8667D3*
Y8982D3*
Y9297D3*
Y9612D3*
Y9927D3*
Y10242D3*
Y10557D3*
Y10872D3*
Y11187D3*
D37*
X21870Y11896D3*
X21555D3*
X21240D3*
X20925D3*
X20610D3*
X20295D3*
X19980D3*
X19665D3*
X19350D3*
X19035D3*
X18720D3*
X18406D3*
X18091D3*
X17776D3*
X17461D3*
X17146D3*
M02*
