G04 DipTrace 3.1.0.1*
G04 TopPaste.gbr*
%MOMM*%
G04 #@! TF.FileFunction,Paste,Top*
G04 #@! TF.Part,Single*
%ADD40R,0.3X1.6*%
%ADD42R,1.6X0.3*%
%ADD44R,0.2X1.6*%
%ADD46R,1.3X0.8*%
%ADD52R,2.3X1.8*%
%ADD54R,2.1X0.3*%
%ADD58R,0.8X1.25*%
%ADD64R,0.5X0.7*%
%ADD66R,0.7X0.5*%
%FSLAX35Y35*%
G04*
G71*
G90*
G75*
G01*
G04 TopPaste*
%LPD*%
D66*
X7797500Y2587500D3*
X7667500D3*
X4810000Y1095250D3*
X4940000D3*
D64*
X6778500Y1825500D3*
Y1955500D3*
D58*
X3888000Y1127000D3*
X4048000D3*
X6428000D3*
X6588000D3*
D54*
X8589273Y1793877D3*
Y1873877D3*
Y1953877D3*
Y2033877D3*
Y2113877D3*
D52*
X8599273Y1508877D3*
Y2398877D3*
X9149273Y1508877D3*
Y2398877D3*
D46*
X3682877Y1746123D3*
X3682873Y2698623D3*
X3682877Y2381127D3*
Y2063627D3*
D66*
X3286000Y1127000D3*
X3416000D3*
X5826000D3*
X5956000D3*
X4429000Y1095250D3*
X4559000D3*
D44*
X7032500Y1539750D3*
X7097500D3*
X7162500D3*
X7227500D3*
X7292500D3*
X7357500D3*
X7422500D3*
X7487500D3*
X7552500D3*
X7617500D3*
X7682500D3*
X7747500D3*
X7812500D3*
X7877500D3*
Y2259770D3*
X7812500Y2259750D3*
X7747500D3*
X7682500D3*
X7617500D3*
X7552500D3*
X7487500D3*
X7422500D3*
X7357500D3*
X7292500D3*
X7227500D3*
X7162500D3*
X7097500D3*
X7032500D3*
D42*
X4175000Y2841500D3*
Y2761500D3*
Y2681500D3*
Y2601500D3*
Y2521500D3*
Y2441500D3*
Y2361500D3*
Y2281500D3*
Y2201500D3*
Y2121500D3*
Y2041500D3*
Y1961500D3*
Y1881500D3*
Y1801500D3*
Y1721500D3*
Y1641500D3*
D40*
X4355000Y1461500D3*
X4435000D3*
X4515000D3*
X4595000D3*
X4675000D3*
X4755000D3*
X4835000D3*
X4915000D3*
X4995000D3*
X5075000D3*
X5155000D3*
X5235000D3*
X5315000D3*
X5395000D3*
X5475000D3*
X5555000D3*
D42*
X5735000Y1641500D3*
Y1721500D3*
Y1801500D3*
Y1881500D3*
Y1961500D3*
Y2041500D3*
Y2121500D3*
Y2201500D3*
Y2281500D3*
Y2361500D3*
Y2441500D3*
Y2521500D3*
Y2601500D3*
Y2681500D3*
Y2761500D3*
Y2841500D3*
D40*
X5555000Y3021500D3*
X5475000D3*
X5395000D3*
X5315000D3*
X5235000D3*
X5155000D3*
X5075000D3*
X4995000D3*
X4915000D3*
X4835000D3*
X4755000D3*
X4675000D3*
X4595000D3*
X4515000D3*
X4435000D3*
X4355000D3*
M02*
