G04 DipTrace 2.4.0.2*
%INTopSilk.gbr*%
%MOIN*%
%ADD10C,0.0098*%
%ADD22C,0.0197*%
%ADD29C,0.0153*%
%ADD65C,0.0077*%
%ADD66C,0.0124*%
%FSLAX44Y44*%
G04*
G70*
G90*
G75*
G01*
%LNTopSilk*%
%LPD*%
X32444Y12486D2*
D10*
X32680D1*
X32562Y12604D2*
Y12368D1*
X31562Y11187D2*
G02X31562Y11187I1000J0D01*
G01*
X16303Y4201D2*
Y4673D1*
X26303Y4201D2*
Y4673D1*
X36750Y17687D2*
Y13937D1*
X35938Y16312D2*
Y15312D1*
X4153Y17662D2*
Y13962D1*
X4941Y16312D2*
Y15312D1*
X36750Y13937D2*
X4188D1*
X36750Y17687D2*
X4188D1*
X35938Y15312D2*
X4941D1*
X35938Y16312D2*
X4941D1*
X37553Y6156D2*
Y9227D1*
Y6156D2*
X37061D1*
X35730D2*
X34888D1*
X33853Y6511D2*
Y6786D1*
Y8597D2*
Y8873D1*
X34888Y9227D2*
X35730D1*
X37061D2*
X37553D1*
D22*
X33518Y7062D3*
X12689Y8813D2*
D10*
X12937D1*
X12689Y7812D2*
Y8813D1*
Y7812D2*
X12937D1*
X4937Y8813D2*
X5185D1*
Y7812D2*
Y8813D1*
X4937Y7812D2*
X5185D1*
X12937Y6562D2*
Y10062D1*
X4937Y6562D2*
Y10062D1*
Y6562D2*
X12937D1*
X9737Y9761D2*
Y10062D1*
X8137Y9761D2*
X9737D1*
X8137D2*
Y10062D1*
X9737D2*
X12937D1*
X4937D2*
X8137D1*
X27303Y6534D2*
X31398D1*
X27303Y8424D2*
X31398D1*
Y6534D2*
Y8424D1*
X27303Y6534D2*
Y7204D1*
Y7755D2*
Y8424D1*
Y7204D2*
G03X27303Y7755I37J276D01*
G01*
X16949Y11384D2*
X22067D1*
Y6265D1*
X16949D1*
Y11384D1*
D29*
X16430Y11498D3*
G36*
X16949Y11384D2*
Y10990D1*
X17342Y11384D1*
X16949D1*
G37*
X30485Y10938D2*
D65*
X30461Y10985D1*
X30413Y11033D1*
X30366Y11057D1*
X30270D1*
X30222Y11033D1*
X30174Y10985D1*
X30150Y10938D1*
X30126Y10866D1*
Y10746D1*
X30150Y10675D1*
X30174Y10626D1*
X30222Y10579D1*
X30270Y10555D1*
X30366D1*
X30413Y10579D1*
X30461Y10626D1*
X30485Y10675D1*
X30639Y10961D2*
X30688Y10985D1*
X30759Y11056D1*
Y10555D1*
X19128Y5063D2*
X19104Y5110D1*
X19056Y5158D1*
X19008Y5182D1*
X18913D1*
X18865Y5158D1*
X18817Y5110D1*
X18793Y5063D1*
X18769Y4991D1*
Y4871D1*
X18793Y4800D1*
X18817Y4751D1*
X18865Y4704D1*
X18913Y4680D1*
X19008D1*
X19056Y4704D1*
X19104Y4751D1*
X19128Y4800D1*
X19306Y5062D2*
Y5086D1*
X19330Y5134D1*
X19354Y5158D1*
X19402Y5181D1*
X19498D1*
X19545Y5158D1*
X19569Y5134D1*
X19593Y5086D1*
Y5038D1*
X19569Y4990D1*
X19521Y4919D1*
X19282Y4680D1*
X19617D1*
X25936Y7378D2*
X25889Y7354D1*
X25841Y7306D1*
X25817Y7258D1*
Y7163D1*
X25841Y7115D1*
X25889Y7067D1*
X25936Y7043D1*
X26008Y7019D1*
X26128D1*
X26199Y7043D1*
X26248Y7067D1*
X26295Y7115D1*
X26319Y7163D1*
Y7258D1*
X26295Y7306D1*
X26248Y7354D1*
X26199Y7378D1*
X25818Y7580D2*
Y7843D1*
X26009Y7699D1*
Y7771D1*
X26033Y7819D1*
X26056Y7843D1*
X26128Y7867D1*
X26176D1*
X26248Y7843D1*
X26296Y7795D1*
X26319Y7723D1*
Y7651D1*
X26296Y7580D1*
X26271Y7556D1*
X26224Y7532D1*
X32485Y13217D2*
X32461Y13264D1*
X32413Y13312D1*
X32365Y13336D1*
X32270D1*
X32222Y13312D1*
X32174Y13264D1*
X32150Y13217D1*
X32126Y13145D1*
Y13025D1*
X32150Y12954D1*
X32174Y12906D1*
X32222Y12858D1*
X32270Y12834D1*
X32365D1*
X32413Y12858D1*
X32461Y12906D1*
X32485Y12954D1*
X32879Y12834D2*
Y13336D1*
X32639Y13001D1*
X32998D1*
X15402Y5455D2*
Y4952D1*
X15570D1*
X15641Y4977D1*
X15689Y5024D1*
X15713Y5072D1*
X15737Y5144D1*
Y5263D1*
X15713Y5335D1*
X15689Y5383D1*
X15641Y5431D1*
X15570Y5455D1*
X15402D1*
X15891Y5359D2*
X15939Y5383D1*
X16011Y5454D1*
Y4952D1*
X25295Y5455D2*
Y4952D1*
X25462D1*
X25534Y4977D1*
X25582Y5024D1*
X25606Y5072D1*
X25629Y5144D1*
Y5263D1*
X25606Y5335D1*
X25582Y5383D1*
X25534Y5431D1*
X25462Y5455D1*
X25295D1*
X25808Y5335D2*
Y5359D1*
X25832Y5407D1*
X25856Y5430D1*
X25904Y5454D1*
X25999D1*
X26047Y5430D1*
X26071Y5407D1*
X26095Y5359D1*
Y5311D1*
X26071Y5263D1*
X26023Y5192D1*
X25784Y4952D1*
X26119D1*
X35361Y10570D2*
Y10187D1*
X35337Y10116D1*
X35313Y10092D1*
X35266Y10067D1*
X35218D1*
X35170Y10092D1*
X35146Y10116D1*
X35122Y10187D1*
Y10235D1*
X35540Y10450D2*
Y10474D1*
X35564Y10522D1*
X35587Y10546D1*
X35636Y10569D1*
X35731D1*
X35779Y10546D1*
X35802Y10522D1*
X35827Y10474D1*
Y10426D1*
X35802Y10378D1*
X35755Y10307D1*
X35516Y10067D1*
X35851D1*
X8812Y10794D2*
Y10412D1*
X8788Y10340D1*
X8764Y10316D1*
X8716Y10292D1*
X8668D1*
X8621Y10316D1*
X8597Y10340D1*
X8573Y10412D1*
Y10459D1*
X9014Y10794D2*
X9277D1*
X9134Y10602D1*
X9206D1*
X9253Y10579D1*
X9277Y10555D1*
X9301Y10483D1*
Y10436D1*
X9277Y10364D1*
X9229Y10316D1*
X9158Y10292D1*
X9086D1*
X9014Y10316D1*
X8991Y10340D1*
X8966Y10387D1*
X12888Y5068D2*
X13103D1*
X13175Y5092D1*
X13199Y5116D1*
X13223Y5163D1*
Y5211D1*
X13199Y5259D1*
X13175Y5283D1*
X13103Y5307D1*
X12888D1*
Y4805D1*
X13056Y5068D2*
X13223Y4805D1*
X13378Y5211D2*
X13426Y5235D1*
X13498Y5306D1*
Y4805D1*
X22781Y5068D2*
X22996D1*
X23068Y5092D1*
X23092Y5116D1*
X23116Y5163D1*
Y5211D1*
X23092Y5259D1*
X23068Y5283D1*
X22996Y5307D1*
X22781D1*
Y4805D1*
X22948Y5068D2*
X23116Y4805D1*
X23294Y5187D2*
Y5211D1*
X23318Y5259D1*
X23342Y5283D1*
X23390Y5306D1*
X23486D1*
X23533Y5283D1*
X23557Y5259D1*
X23581Y5211D1*
Y5163D1*
X23557Y5115D1*
X23509Y5044D1*
X23270Y4805D1*
X23605D1*
X17281Y4943D2*
X17496D1*
X17568Y4967D1*
X17592Y4991D1*
X17616Y5038D1*
Y5086D1*
X17592Y5134D1*
X17568Y5158D1*
X17496Y5182D1*
X17281D1*
Y4680D1*
X17448Y4943D2*
X17616Y4680D1*
X17818Y5181D2*
X18081D1*
X17938Y4990D1*
X18009D1*
X18057Y4966D1*
X18081Y4943D1*
X18105Y4871D1*
Y4823D1*
X18081Y4751D1*
X18033Y4703D1*
X17961Y4680D1*
X17889D1*
X17818Y4703D1*
X17794Y4728D1*
X17770Y4775D1*
X29046Y9983D2*
Y9625D1*
X29070Y9553D1*
X29118Y9505D1*
X29189Y9481D1*
X29237D1*
X29309Y9505D1*
X29357Y9553D1*
X29381Y9625D1*
Y9983D1*
X29535Y9887D2*
X29583Y9911D1*
X29655Y9983D1*
Y9481D1*
X15596Y12482D2*
Y12124D1*
X15620Y12052D1*
X15668Y12004D1*
X15739Y11980D1*
X15787D1*
X15859Y12004D1*
X15907Y12052D1*
X15931Y12124D1*
Y12482D1*
X16109Y12362D2*
Y12386D1*
X16133Y12434D1*
X16157Y12458D1*
X16205Y12482D1*
X16301D1*
X16348Y12458D1*
X16372Y12434D1*
X16396Y12386D1*
Y12339D1*
X16372Y12290D1*
X16324Y12219D1*
X16085Y11980D1*
X16420D1*
X19609Y13250D2*
D66*
X19111D1*
Y12446D1*
Y12867D2*
X19417D1*
X19856D2*
X20200D1*
X20315Y12906D1*
X20354Y12944D1*
X20392Y13020D1*
Y13097D1*
X20354Y13173D1*
X20315Y13212D1*
X20200Y13250D1*
X19856D1*
Y12446D1*
X20124Y12867D2*
X20392Y12446D1*
X20869Y13250D2*
X20792Y13212D1*
X20716Y13135D1*
X20677Y13059D1*
X20639Y12944D1*
Y12752D1*
X20677Y12638D1*
X20716Y12561D1*
X20792Y12485D1*
X20869Y12446D1*
X21022D1*
X21098Y12485D1*
X21175Y12561D1*
X21213Y12638D1*
X21251Y12752D1*
Y12944D1*
X21213Y13059D1*
X21175Y13135D1*
X21098Y13212D1*
X21022Y13250D1*
X20869D1*
X22034D2*
Y12446D1*
X21498Y13250D1*
Y12446D1*
X22549Y13250D2*
Y12446D1*
X22281Y13250D2*
X22817D1*
X19388Y19264D2*
Y18460D1*
X19733D1*
X19848Y18499D1*
X19886Y18537D1*
X19924Y18613D1*
Y18728D1*
X19886Y18805D1*
X19848Y18843D1*
X19733Y18881D1*
X19848Y18920D1*
X19886Y18958D1*
X19924Y19034D1*
Y19111D1*
X19886Y19187D1*
X19848Y19226D1*
X19733Y19264D1*
X19388D1*
Y18881D2*
X19733D1*
X20784Y18460D2*
X20477Y19264D1*
X20171Y18460D1*
X20286Y18728D2*
X20669D1*
X21605Y19073D2*
X21567Y19149D1*
X21490Y19226D1*
X21414Y19264D1*
X21261D1*
X21184Y19226D1*
X21108Y19149D1*
X21069Y19073D1*
X21031Y18958D1*
Y18766D1*
X21069Y18652D1*
X21108Y18575D1*
X21184Y18499D1*
X21261Y18460D1*
X21414D1*
X21490Y18499D1*
X21567Y18575D1*
X21605Y18652D1*
X21852Y19264D2*
Y18460D1*
X22388Y19264D2*
X21852Y18728D1*
X22043Y18920D2*
X22388Y18460D1*
M02*
