; Drill file
; Format: 2.4 (00.0000)
M48
INCH
T01C0.0118
T02C0.0283
T03C0.0394
T04C0.0433
T05C0.0472
T06C0.1181
%
G05
G90
T01
X000830Y-020440
X000830Y-018440
X002830Y-018440
X004830Y-018440
X004830Y-020440
X002830Y-020440
X010210Y-015270
X011220Y-015590
X012220Y-015900
X013190Y-016220
X013040Y-017070
X014200Y-016530
X015190Y-016860
X016190Y-017200
X016500Y-018010
X017200Y-017490
X018200Y-017800
X018150Y-018890
X020180Y-018100
X021160Y-018440
X021460Y-019900
X023460Y-019900
X025460Y-019900
X027460Y-019900
X029460Y-019900
X031460Y-019900
X033460Y-019900
X035460Y-019900
X028160Y-017200
X027160Y-016860
X026170Y-016530
X025160Y-016220
X024190Y-015900
X023180Y-015590
X022180Y-015270
X023170Y-009770
X022600Y-007960
X021440Y-007250
X021120Y-006930
X020810Y-006620
X020490Y-006300
X020180Y-005990
X019860Y-005670
X019550Y-005360
X019230Y-005040
X019550Y-003470
X020180Y-002630
X020490Y-001260
X019900Y-000330
X022060Y-001840
X023460Y-001840
X024550Y-002480
X025790Y-002500
X026420Y-002200
X027050Y-002200
X027780Y-001900
X028410Y-000330
X029780Y-001900
X027050Y-004410
X026420Y-003780
X025220Y-003850
X025160Y-004410
X023960Y-004730
X023640Y-004410
X023330Y-004100
X023010Y-003780
X022740Y-000330
X025570Y-000330
X031460Y-005270
X033460Y-007270
X035460Y-007270
X035460Y-005270
X037240Y-002500
X035460Y-001270
X033460Y-001270
X028600Y-007960
X026600Y-007960
X024600Y-007960
X028780Y-010270
X029620Y-011170
X036800Y-011250
X036800Y-009270
X020170Y-009770
X019230Y-008920
X018920Y-009300
X018600Y-009660
X018280Y-009280
X017970Y-009670
X017660Y-009280
X016670Y-009280
X016670Y-009770
X016670Y-010250
X016670Y-010720
X016670Y-011190
X016670Y-011660
X016670Y-008510
X015710Y-008060
X014700Y-008060
X013710Y-008070
X012730Y-008060
X011690Y-008060
X010690Y-008060
X009700Y-008060
X009170Y-007260
X008510Y-008080
X006700Y-007630
X005030Y-007640
X003440Y-009210
X002240Y-010800
X001460Y-007270
X001460Y-005270
X001460Y-003270
X001460Y-001270
X003460Y-001270
X005460Y-001270
X005460Y-003270
X003460Y-003270
X003460Y-005270
X007120Y-005540
X008790Y-005530
X010600Y-005960
X011190Y-006630
X012170Y-006330
X013200Y-005990
X014170Y-005700
X014590Y-005350
X015140Y-005040
X013600Y-004960
X013640Y-003060
X012170Y-003060
X011300Y-002260
X011300Y-001590
X010690Y-003060
X011220Y-003800
X009880Y-003620
X010190Y-006940
X015030Y-002260
X015030Y-001590
X017180Y-002630
X016860Y-004310
X014610Y-018010
T02
X033880Y-006620
X033880Y-005640
T03
X035920Y-003260
X035920Y-001530
T04
X006070Y-019430
X007070Y-019430
X008070Y-019430
X009070Y-019430
X009070Y-018430
X008070Y-018430
X007070Y-018430
X006070Y-018430
X010070Y-018430
X010070Y-019430
T05
X004180Y-014440
X005180Y-014440
X006180Y-014440
X007180Y-014440
X008180Y-014440
X009180Y-014440
X010180Y-014440
X011180Y-014440
X012180Y-014440
X013180Y-014440
X014180Y-014440
X015180Y-014440
X016180Y-014440
X017180Y-014440
X018180Y-014440
X019180Y-014440
X020180Y-014440
X021180Y-014440
X022180Y-014440
X023180Y-014440
X024180Y-014440
X025180Y-014440
X026180Y-014440
X027180Y-014440
X028180Y-014440
X029180Y-014440
X030180Y-014440
X031180Y-014440
X032180Y-014440
X033180Y-014440
X033180Y-012440
X032180Y-012440
X031180Y-012440
X030180Y-012440
X029180Y-012440
X028180Y-012440
X027180Y-012440
X026180Y-012440
X025180Y-012440
X024180Y-012440
X023180Y-012440
X022180Y-012440
X021180Y-012440
X020180Y-012440
X019180Y-012440
X018180Y-012440
X017180Y-012440
X016180Y-012440
X015180Y-012440
X014180Y-012440
X013180Y-012440
X012180Y-012440
X011180Y-012440
X010180Y-012440
X009180Y-012440
X008180Y-012440
X007180Y-012440
X006180Y-012440
X005180Y-012440
X004180Y-012440
T06
X001260Y-019530
X001260Y-006300
X036220Y-006300
X036220Y-019530
M30
