%FSLAX34Y34*%
%MOMM*%
%LNSOLDERMASK_TOP*%
G71*
G01*
%ADD10C, 0.00*%
%ADD11R, 0.50X1.50*%
%ADD12R, 2.70X2.20*%
%ADD13R, 2.50X0.60*%
%ADD14R, 1.40X1.00*%
%ADD15R, 1.00X1.40*%
%ADD16R, 1.70X0.60*%
%ADD17C, 2.70*%
%ADD18R, 0.60X1.70*%
%ADD19C, 2.24*%
%LPD*%
G54D10*
X0Y0D02*
X950000Y0D01*
X950000Y-530000D01*
X0Y-530000D01*
X0Y0D01*
X842610Y-27751D02*
G54D11*
D03*
X842610Y-105751D02*
G54D11*
D03*
X836110Y-27751D02*
G54D11*
D03*
X836110Y-105751D02*
G54D11*
D03*
X829610Y-27751D02*
G54D11*
D03*
X829610Y-105751D02*
G54D11*
D03*
X823110Y-27751D02*
G54D11*
D03*
X823110Y-105751D02*
G54D11*
D03*
X816610Y-27751D02*
G54D11*
D03*
X816610Y-105751D02*
G54D11*
D03*
X810110Y-27751D02*
G54D11*
D03*
X810110Y-105751D02*
G54D11*
D03*
X803610Y-27751D02*
G54D11*
D03*
X803610Y-105751D02*
G54D11*
D03*
X797110Y-27751D02*
G54D11*
D03*
X797110Y-105751D02*
G54D11*
D03*
X790610Y-27751D02*
G54D11*
D03*
X790610Y-105751D02*
G54D11*
D03*
X784110Y-27751D02*
G54D11*
D03*
X784110Y-105751D02*
G54D11*
D03*
X777610Y-27751D02*
G54D11*
D03*
X777610Y-105751D02*
G54D11*
D03*
X771110Y-27751D02*
G54D11*
D03*
X771110Y-105751D02*
G54D11*
D03*
X764610Y-27751D02*
G54D11*
D03*
X764610Y-105751D02*
G54D11*
D03*
X758110Y-27751D02*
G54D11*
D03*
X758110Y-105751D02*
G54D11*
D03*
G36*
X728072Y-79244D02*
X728072Y-67244D01*
X740072Y-67244D01*
X740072Y-79244D01*
X728072Y-79244D01*
G37*
G36*
X728072Y-68844D02*
X728072Y-56844D01*
X740072Y-56844D01*
X740072Y-68844D01*
X728072Y-68844D01*
G37*
X934500Y-14579D02*
G54D12*
D03*
X934500Y-103579D02*
G54D12*
D03*
X887500Y-14579D02*
G54D12*
D03*
X887500Y-103579D02*
G54D12*
D03*
X886200Y-43179D02*
G54D13*
D03*
X886200Y-51179D02*
G54D13*
D03*
X886200Y-59179D02*
G54D13*
D03*
X886200Y-67179D02*
G54D13*
D03*
X886200Y-75179D02*
G54D13*
D03*
X365572Y-81868D02*
G54D14*
D03*
X466410Y-12140D02*
G54D15*
D03*
X560072Y-72531D02*
G54D16*
D03*
X842848Y-366888D02*
G54D17*
D03*
X817448Y-366888D02*
G54D17*
D03*
X792048Y-366888D02*
G54D17*
D03*
X766648Y-366888D02*
G54D17*
D03*
X741248Y-366888D02*
G54D17*
D03*
X715848Y-366888D02*
G54D17*
D03*
X690448Y-366888D02*
G54D17*
D03*
X665048Y-366888D02*
G54D17*
D03*
X639648Y-366888D02*
G54D17*
D03*
X614248Y-366888D02*
G54D17*
D03*
X588848Y-366888D02*
G54D17*
D03*
X563448Y-366888D02*
G54D17*
D03*
X538048Y-366888D02*
G54D17*
D03*
X512648Y-366888D02*
G54D17*
D03*
X487248Y-366888D02*
G54D17*
D03*
X461848Y-366888D02*
G54D17*
D03*
X436448Y-366888D02*
G54D17*
D03*
X411048Y-366888D02*
G54D17*
D03*
X385648Y-366888D02*
G54D17*
D03*
X360248Y-366888D02*
G54D17*
D03*
X334848Y-366888D02*
G54D17*
D03*
X309448Y-366888D02*
G54D17*
D03*
X284048Y-366888D02*
G54D17*
D03*
X258648Y-366888D02*
G54D17*
D03*
X233248Y-366888D02*
G54D17*
D03*
X207848Y-366888D02*
G54D17*
D03*
X182448Y-366888D02*
G54D17*
D03*
X157047Y-366888D02*
G54D17*
D03*
X131647Y-366888D02*
G54D17*
D03*
X106247Y-366888D02*
G54D17*
D03*
X842848Y-316089D02*
G54D17*
D03*
X817448Y-316089D02*
G54D17*
D03*
X792048Y-316089D02*
G54D17*
D03*
X766648Y-316089D02*
G54D17*
D03*
X741248Y-316089D02*
G54D17*
D03*
X715848Y-316089D02*
G54D17*
D03*
X690448Y-316089D02*
G54D17*
D03*
X665048Y-316089D02*
G54D17*
D03*
X639648Y-316089D02*
G54D17*
D03*
X614248Y-316089D02*
G54D17*
D03*
X588848Y-316089D02*
G54D17*
D03*
X563448Y-316089D02*
G54D17*
D03*
X538048Y-316089D02*
G54D17*
D03*
X512648Y-316089D02*
G54D17*
D03*
X436448Y-316089D02*
G54D17*
D03*
X411048Y-316089D02*
G54D17*
D03*
X385648Y-316089D02*
G54D17*
D03*
X360248Y-316089D02*
G54D17*
D03*
X334848Y-316089D02*
G54D17*
D03*
X309448Y-316089D02*
G54D17*
D03*
X284048Y-316089D02*
G54D17*
D03*
X258648Y-316089D02*
G54D17*
D03*
X233248Y-316089D02*
G54D17*
D03*
X207848Y-316089D02*
G54D17*
D03*
X182448Y-316089D02*
G54D17*
D03*
X157047Y-316089D02*
G54D17*
D03*
X131647Y-316089D02*
G54D17*
D03*
X106247Y-316089D02*
G54D17*
D03*
X544372Y-48931D02*
G54D18*
D03*
X536372Y-48931D02*
G54D18*
D03*
X528372Y-48931D02*
G54D18*
D03*
X520372Y-48931D02*
G54D18*
D03*
X512372Y-48931D02*
G54D18*
D03*
X504372Y-48931D02*
G54D18*
D03*
X496372Y-48931D02*
G54D18*
D03*
X560072Y-64531D02*
G54D16*
D03*
X560072Y-72531D02*
G54D16*
D03*
X560072Y-80531D02*
G54D16*
D03*
X560072Y-88531D02*
G54D16*
D03*
X560072Y-96531D02*
G54D16*
D03*
X560072Y-104531D02*
G54D16*
D03*
X560072Y-112531D02*
G54D16*
D03*
X488372Y-200331D02*
G54D18*
D03*
X496372Y-200331D02*
G54D18*
D03*
X504372Y-200331D02*
G54D18*
D03*
X512372Y-200331D02*
G54D18*
D03*
X520372Y-200331D02*
G54D18*
D03*
X528372Y-200331D02*
G54D18*
D03*
X536372Y-200331D02*
G54D18*
D03*
X409072Y-120331D02*
G54D16*
D03*
X409072Y-112331D02*
G54D16*
D03*
X409072Y-104331D02*
G54D16*
D03*
X409072Y-96331D02*
G54D16*
D03*
X409072Y-88331D02*
G54D16*
D03*
X409072Y-80331D02*
G54D16*
D03*
X409072Y-72331D02*
G54D16*
D03*
X409072Y-64331D02*
G54D16*
D03*
X409072Y-72331D02*
G54D16*
D03*
X409072Y-80331D02*
G54D16*
D03*
X409072Y-88331D02*
G54D16*
D03*
X409072Y-96331D02*
G54D16*
D03*
X409072Y-104331D02*
G54D16*
D03*
X409072Y-112331D02*
G54D16*
D03*
X488372Y-48931D02*
G54D18*
D03*
X496372Y-48931D02*
G54D18*
D03*
X504372Y-48931D02*
G54D18*
D03*
X512372Y-48931D02*
G54D18*
D03*
X520372Y-48931D02*
G54D18*
D03*
X528372Y-48931D02*
G54D18*
D03*
X536372Y-48931D02*
G54D18*
D03*
X560072Y-120531D02*
G54D16*
D03*
X560072Y-112531D02*
G54D16*
D03*
X560072Y-104531D02*
G54D16*
D03*
X560072Y-96531D02*
G54D16*
D03*
X560072Y-88531D02*
G54D16*
D03*
X560072Y-80531D02*
G54D16*
D03*
X560072Y-72531D02*
G54D16*
D03*
X544372Y-200331D02*
G54D18*
D03*
X536372Y-200331D02*
G54D18*
D03*
X528372Y-200331D02*
G54D18*
D03*
X520372Y-200331D02*
G54D18*
D03*
X512372Y-200331D02*
G54D18*
D03*
X504372Y-200331D02*
G54D18*
D03*
X496372Y-200331D02*
G54D18*
D03*
X560072Y-128531D02*
G54D16*
D03*
X560072Y-136531D02*
G54D16*
D03*
X560072Y-144531D02*
G54D16*
D03*
X560072Y-152531D02*
G54D16*
D03*
X560072Y-160531D02*
G54D16*
D03*
X560072Y-168531D02*
G54D16*
D03*
X560072Y-176531D02*
G54D16*
D03*
X560072Y-184531D02*
G54D16*
D03*
X560072Y-176531D02*
G54D16*
D03*
X560072Y-168531D02*
G54D16*
D03*
X560072Y-160531D02*
G54D16*
D03*
X560072Y-152531D02*
G54D16*
D03*
X560072Y-144531D02*
G54D16*
D03*
X560072Y-136531D02*
G54D16*
D03*
X480372Y-48931D02*
G54D18*
D03*
X472372Y-48931D02*
G54D18*
D03*
X464372Y-48931D02*
G54D18*
D03*
X456372Y-48931D02*
G54D18*
D03*
X448372Y-48931D02*
G54D18*
D03*
X440372Y-48931D02*
G54D18*
D03*
X432372Y-48931D02*
G54D18*
D03*
X424372Y-48931D02*
G54D18*
D03*
X432372Y-48931D02*
G54D18*
D03*
X440372Y-48931D02*
G54D18*
D03*
X448372Y-48931D02*
G54D18*
D03*
X456372Y-48931D02*
G54D18*
D03*
X464372Y-48931D02*
G54D18*
D03*
X472372Y-48931D02*
G54D18*
D03*
X424372Y-200331D02*
G54D18*
D03*
X432372Y-200331D02*
G54D18*
D03*
X448372Y-200331D02*
G54D18*
D03*
X456372Y-200331D02*
G54D18*
D03*
X464372Y-200331D02*
G54D18*
D03*
X472372Y-200331D02*
G54D18*
D03*
X480372Y-200331D02*
G54D18*
D03*
X480372Y-200331D02*
G54D18*
D03*
X472372Y-200331D02*
G54D18*
D03*
X464372Y-200331D02*
G54D18*
D03*
X456372Y-200331D02*
G54D18*
D03*
X448372Y-200331D02*
G54D18*
D03*
X432372Y-200331D02*
G54D18*
D03*
X409072Y-184331D02*
G54D16*
D03*
X409072Y-176331D02*
G54D16*
D03*
X409072Y-168331D02*
G54D16*
D03*
X409072Y-160331D02*
G54D16*
D03*
X409072Y-152331D02*
G54D16*
D03*
X409072Y-144331D02*
G54D16*
D03*
X409072Y-136331D02*
G54D16*
D03*
X409072Y-128331D02*
G54D16*
D03*
X409072Y-136331D02*
G54D16*
D03*
X409072Y-144331D02*
G54D16*
D03*
X409072Y-152331D02*
G54D16*
D03*
X409072Y-160331D02*
G54D16*
D03*
X409072Y-168331D02*
G54D16*
D03*
X409072Y-176331D02*
G54D16*
D03*
X440372Y-200331D02*
G54D18*
D03*
X461848Y-316088D02*
G54D17*
D03*
X487248Y-316088D02*
G54D17*
D03*
G36*
X429500Y-503192D02*
X448500Y-503192D01*
X448500Y-522192D01*
X429500Y-522192D01*
X429500Y-503192D01*
G37*
G36*
X451250Y-503192D02*
X470250Y-503192D01*
X470250Y-522192D01*
X451250Y-522192D01*
X451250Y-503192D01*
G37*
X624372Y-21239D02*
G54D14*
D03*
X624372Y-35068D02*
G54D14*
D03*
G36*
X832019Y-5979D02*
X844019Y-5979D01*
X844019Y-17979D01*
X832019Y-17979D01*
X832019Y-5979D01*
G37*
G36*
X842419Y-5979D02*
X854419Y-5979D01*
X854419Y-17979D01*
X842419Y-17979D01*
X842419Y-5979D01*
G37*
G36*
X217900Y-505900D02*
X217900Y-480900D01*
X242900Y-480900D01*
X242900Y-505900D01*
X217900Y-505900D01*
G37*
G36*
X192500Y-505900D02*
X192500Y-480900D01*
X217500Y-480900D01*
X217500Y-505900D01*
X192500Y-505900D01*
G37*
G36*
X167100Y-505900D02*
X167100Y-480900D01*
X192100Y-480900D01*
X192100Y-505900D01*
X167100Y-505900D01*
G37*
G36*
X167100Y-480500D02*
X167100Y-455500D01*
X192100Y-455500D01*
X192100Y-480500D01*
X167100Y-480500D01*
G37*
G36*
X192500Y-480500D02*
X192500Y-455500D01*
X217500Y-455500D01*
X217500Y-480500D01*
X192500Y-480500D01*
G37*
G36*
X217900Y-480500D02*
X217900Y-455500D01*
X242900Y-455500D01*
X242900Y-480500D01*
X217900Y-480500D01*
G37*
G36*
X243300Y-505900D02*
X243300Y-480900D01*
X268300Y-480900D01*
X268300Y-505900D01*
X243300Y-505900D01*
G37*
G36*
X243300Y-480500D02*
X243300Y-455500D01*
X268300Y-455500D01*
X268300Y-480500D01*
X243300Y-480500D01*
G37*
G36*
X141700Y-505900D02*
X141700Y-480900D01*
X166700Y-480900D01*
X166700Y-505900D01*
X141700Y-505900D01*
G37*
G36*
X141700Y-480500D02*
X141700Y-455500D01*
X166700Y-455500D01*
X166700Y-480500D01*
X141700Y-480500D01*
G37*
G36*
X590082Y-65528D02*
X590082Y-77528D01*
X578082Y-77528D01*
X578082Y-65528D01*
X590082Y-65528D01*
G37*
G36*
X590082Y-75928D02*
X590082Y-87928D01*
X578082Y-87928D01*
X578082Y-75928D01*
X590082Y-75928D01*
G37*
G36*
X389925Y-77883D02*
X389925Y-89883D01*
X377925Y-89883D01*
X377925Y-77883D01*
X389925Y-77883D01*
G37*
G36*
X389925Y-88283D02*
X389925Y-100283D01*
X377925Y-100283D01*
X377925Y-88283D01*
X389925Y-88283D01*
G37*
G36*
X410137Y-502059D02*
X398137Y-502059D01*
X398137Y-490059D01*
X410137Y-490059D01*
X410137Y-502059D01*
G37*
G36*
X399737Y-502059D02*
X387737Y-502059D01*
X387737Y-490059D01*
X399737Y-490059D01*
X399737Y-502059D01*
G37*
G36*
X410116Y-485982D02*
X398116Y-485982D01*
X398116Y-473982D01*
X410116Y-473982D01*
X410116Y-485982D01*
G37*
G36*
X399716Y-485982D02*
X387716Y-485982D01*
X387716Y-473982D01*
X399716Y-473982D01*
X399716Y-485982D01*
G37*
G36*
X518333Y-522289D02*
X499333Y-522289D01*
X499333Y-503289D01*
X518333Y-503289D01*
X518333Y-522289D01*
G37*
G36*
X496583Y-522289D02*
X477583Y-522289D01*
X477583Y-503289D01*
X496583Y-503289D01*
X496583Y-522289D01*
G37*
X860630Y-168070D02*
G54D19*
D03*
X860630Y-143170D02*
G54D19*
D03*
M02*
