%FSLAX34Y34*%
%MOMM*%
%LNCOPPER_TOP*%
G71*
G01*
%ADD10C, 0.00*%
%ADD11R, 1.10X2.10*%
%ADD12R, 0.30X1.30*%
%ADD13C, 0.40*%
%ADD14C, 1.10*%
%ADD15C, 1.20*%
%ADD16C, 0.30*%
%ADD17R, 2.50X2.00*%
%ADD18R, 2.30X0.40*%
%ADD19R, 3.10X1.20*%
%ADD20C, 1.80*%
%ADD21C, 0.80*%
%ADD22R, 2.20X1.80*%
%ADD23R, 1.60X2.00*%
%ADD24C, 1.00*%
%ADD25R, 1.50X0.40*%
%ADD26C, 6.10*%
%ADD27C, 1.50*%
%ADD28C, 2.50*%
%ADD29R, 1.20X2.30*%
%ADD30R, 2.30X1.20*%
%ADD31R, 3.20X4.30*%
%ADD32C, 2.80*%
%ADD33C, 7.70*%
%ADD34C, 1.80*%
%ADD35C, 1.60*%
%ADD36C, 4.70*%
%ADD37C, 1.40*%
%ADD38C, 2.40*%
%ADD39C, 3.00*%
%ADD40C, 2.20*%
%ADD41C, 4.40*%
%ADD42R, 2.00X1.60*%
%ADD43C, 0.70*%
%ADD44C, 0.20*%
%ADD45C, 3.00*%
%ADD46C, 1.64*%
%ADD47C, 2.44*%
%ADD48C, 1.50*%
%ADD49R, 1.20X0.80*%
%ADD50R, 0.80X1.20*%
%ADD51C, 2.10*%
%ADD52R, 0.40X1.50*%
%ADD53C, 0.50*%
%LPD*%
G54D10*
X0Y0D02*
X950000Y0D01*
X950000Y-530000D01*
X0Y-530000D01*
X0Y0D01*
G36*
X0Y0D02*
X950000Y0D01*
X950000Y-530000D01*
X0Y-530000D01*
X0Y0D01*
G37*
%LPC*%
X842610Y-27751D02*
G54D11*
D03*
X842610Y-105751D02*
G54D11*
D03*
X836110Y-27751D02*
G54D11*
D03*
X836110Y-105751D02*
G54D11*
D03*
X829610Y-27751D02*
G54D11*
D03*
X829610Y-105751D02*
G54D11*
D03*
X823110Y-27751D02*
G54D12*
D03*
X823110Y-105751D02*
G54D11*
D03*
X816610Y-27751D02*
G54D11*
D03*
X816610Y-105751D02*
G54D11*
D03*
X810110Y-27751D02*
G54D11*
D03*
X810110Y-105751D02*
G54D11*
D03*
X803610Y-27751D02*
G54D12*
D03*
X803610Y-105751D02*
G54D11*
D03*
X797110Y-27751D02*
G54D11*
D03*
X797110Y-105751D02*
G54D11*
D03*
X790610Y-27751D02*
G54D11*
D03*
X790610Y-105751D02*
G54D11*
D03*
X784110Y-27751D02*
G54D11*
D03*
X784110Y-105751D02*
G54D11*
D03*
X777610Y-27751D02*
G54D12*
D03*
X777610Y-105751D02*
G54D11*
D03*
X771110Y-27751D02*
G54D12*
D03*
X771110Y-105751D02*
G54D11*
D03*
X764610Y-27751D02*
G54D11*
D03*
X764610Y-105751D02*
G54D11*
D03*
X758110Y-27751D02*
G54D11*
D03*
X758110Y-105751D02*
G54D11*
D03*
G54D13*
X850170Y-12133D02*
X886170Y-12133D01*
G54D14*
X829610Y-27751D02*
X829610Y-11429D01*
X835972Y-11429D01*
G54D14*
X842519Y-29878D02*
X842519Y-59179D01*
X886200Y-59179D01*
G54D14*
X836117Y-31168D02*
X836117Y-67179D01*
X886200Y-67179D01*
G54D15*
X886170Y-75133D02*
X810120Y-75133D01*
G54D14*
X777888Y-75227D02*
X777596Y-104858D01*
G54D13*
X854170Y-12133D02*
X854170Y-2633D01*
X823068Y-2657D01*
X823074Y-12132D01*
X771106Y-12133D01*
X771061Y-12087D01*
G54D16*
X777552Y-26857D02*
X777552Y-12276D01*
X777740Y-12087D01*
G54D16*
X803611Y-24787D02*
X803611Y-12087D01*
G54D16*
X823084Y-25540D02*
X823084Y-7948D01*
G54D15*
X810120Y-75133D02*
X733814Y-75174D01*
G36*
X727072Y-80244D02*
X727072Y-66244D01*
X741072Y-66244D01*
X741072Y-80244D01*
X727072Y-80244D01*
G37*
G36*
X731072Y-65844D02*
X731072Y-59844D01*
X737072Y-59844D01*
X737072Y-65844D01*
X731072Y-65844D01*
G37*
G54D13*
X734170Y-60133D02*
X734170Y-12133D01*
X770170Y-12133D01*
X934500Y-14579D02*
G54D17*
D03*
X934500Y-103579D02*
G54D17*
D03*
X887500Y-14579D02*
G54D17*
D03*
X887500Y-103579D02*
G54D17*
D03*
X886200Y-43179D02*
G54D18*
D03*
X886200Y-51179D02*
G54D19*
D03*
X886200Y-59179D02*
G54D19*
D03*
X886200Y-67179D02*
G54D19*
D03*
X886200Y-75179D02*
G54D19*
D03*
X912323Y-38770D02*
G54D20*
D03*
X912323Y-82770D02*
G54D20*
D03*
G54D13*
X884964Y-42682D02*
X884963Y-12031D01*
X936158Y-12031D01*
G54D13*
X560072Y-72531D02*
X711000Y-72531D01*
X711000Y-62844D01*
X734072Y-62844D01*
G54D15*
X560670Y-80531D02*
X733814Y-80531D01*
X733814Y-75174D01*
G54D15*
X560072Y-64531D02*
X540786Y-64531D01*
X540565Y-64751D01*
X540565Y-80301D01*
X559842Y-80301D01*
X560072Y-80531D01*
G54D15*
X409072Y-96331D02*
X422669Y-96331D01*
X438699Y-80301D01*
X540565Y-80301D01*
G54D14*
X810166Y-30192D02*
X810120Y-75133D01*
G54D16*
X771061Y-25540D02*
X771061Y-12087D01*
G54D21*
X934841Y-235518D02*
X934500Y-14579D01*
X365572Y-81868D02*
G54D22*
D03*
G54D15*
X409072Y-88331D02*
X401636Y-88331D01*
X390819Y-81898D01*
X381572Y-81868D01*
X365572Y-81867D01*
X466410Y-12140D02*
G54D23*
D03*
G54D24*
X424372Y-48931D02*
X238880Y-48931D01*
X39989Y-247823D01*
X39989Y-424043D01*
X283043Y-424043D01*
X354750Y-495750D01*
X390800Y-495750D01*
G54D24*
X409072Y-64331D02*
X231700Y-64331D01*
X47884Y-248146D01*
X47884Y-417340D01*
X288340Y-417340D01*
X351000Y-480000D01*
X393716Y-479982D01*
X560072Y-72531D02*
G54D25*
D03*
G54D15*
G75*
G01X529411Y-74572D02*
G03X529411Y-74572I5000J0D01*
G01*
X842848Y-366888D02*
G54D26*
D03*
X817448Y-366888D02*
G54D26*
D03*
X792048Y-366888D02*
G54D26*
D03*
X766648Y-366888D02*
G54D26*
D03*
X741248Y-366888D02*
G54D26*
D03*
X715848Y-366888D02*
G54D26*
D03*
X690448Y-366888D02*
G54D26*
D03*
X665048Y-366888D02*
G54D26*
D03*
X639648Y-366888D02*
G54D26*
D03*
X614248Y-366888D02*
G54D26*
D03*
X588848Y-366888D02*
G54D26*
D03*
X563448Y-366888D02*
G54D26*
D03*
X538048Y-366888D02*
G54D26*
D03*
X512648Y-366888D02*
G54D26*
D03*
X487248Y-366888D02*
G54D26*
D03*
X461848Y-366888D02*
G54D26*
D03*
X436448Y-366888D02*
G54D26*
D03*
X411048Y-366888D02*
G54D26*
D03*
X385648Y-366888D02*
G54D26*
D03*
X360248Y-366888D02*
G54D26*
D03*
X334848Y-366888D02*
G54D26*
D03*
X309448Y-366888D02*
G54D26*
D03*
X284048Y-366888D02*
G54D26*
D03*
X258648Y-366888D02*
G54D26*
D03*
X233248Y-366888D02*
G54D26*
D03*
X207848Y-366888D02*
G54D26*
D03*
X182448Y-366888D02*
G54D26*
D03*
X157047Y-366888D02*
G54D26*
D03*
X131647Y-366888D02*
G54D26*
D03*
X106247Y-366888D02*
G54D26*
D03*
X842848Y-316089D02*
G54D26*
D03*
X817448Y-316089D02*
G54D26*
D03*
X792048Y-316089D02*
G54D26*
D03*
X766648Y-316089D02*
G54D26*
D03*
X741248Y-316089D02*
G54D26*
D03*
X715848Y-316089D02*
G54D26*
D03*
X690448Y-316089D02*
G54D26*
D03*
X665048Y-316089D02*
G54D26*
D03*
X639648Y-316089D02*
G54D26*
D03*
X614248Y-316089D02*
G54D26*
D03*
X588848Y-316089D02*
G54D26*
D03*
X563448Y-316089D02*
G54D26*
D03*
X538048Y-316089D02*
G54D26*
D03*
X512648Y-316089D02*
G54D26*
D03*
X436448Y-316089D02*
G54D26*
D03*
X411048Y-316089D02*
G54D26*
D03*
X385648Y-316089D02*
G54D26*
D03*
X360248Y-316089D02*
G54D26*
D03*
X334848Y-316089D02*
G54D26*
D03*
X309448Y-316089D02*
G54D26*
D03*
X284048Y-316089D02*
G54D26*
D03*
X258648Y-316089D02*
G54D26*
D03*
X233248Y-316089D02*
G54D26*
D03*
X207848Y-316089D02*
G54D26*
D03*
X182448Y-316089D02*
G54D26*
D03*
X157047Y-316089D02*
G54D26*
D03*
X131647Y-316089D02*
G54D26*
D03*
X106247Y-316089D02*
G54D26*
D03*
G54D24*
X409072Y-184331D02*
X232199Y-184612D01*
X258928Y-176158D02*
G54D27*
D03*
X284328Y-168404D02*
G54D27*
D03*
X309192Y-160765D02*
G54D27*
D03*
X335343Y-152229D02*
G54D27*
D03*
X359916Y-144674D02*
G54D27*
D03*
X370598Y-135809D02*
G54D27*
D03*
X384523Y-128033D02*
G54D27*
D03*
G54D24*
X409072Y-176331D02*
X258928Y-176158D01*
G54D24*
X409072Y-128331D02*
X384821Y-128331D01*
X384523Y-128033D01*
G54D24*
X409072Y-136331D02*
X371120Y-136331D01*
X370598Y-135809D01*
G54D24*
X409072Y-144331D02*
X359936Y-144695D01*
X359916Y-144674D01*
G54D24*
X407000Y-152000D02*
X335343Y-152229D01*
G54D24*
X407000Y-160000D02*
X309957Y-160000D01*
X309192Y-160765D01*
G54D24*
X409072Y-168331D02*
X285492Y-168331D01*
X284328Y-168404D01*
X232958Y-184439D02*
G54D27*
D03*
X488523Y-128033D02*
G54D28*
D03*
X496523Y-136033D02*
G54D28*
D03*
X504523Y-144033D02*
G54D28*
D03*
X512523Y-152033D02*
G54D28*
D03*
X520523Y-160033D02*
G54D28*
D03*
X528523Y-168033D02*
G54D28*
D03*
X536523Y-176033D02*
G54D28*
D03*
X544523Y-184033D02*
G54D28*
D03*
G54D24*
X409072Y-128331D02*
X488226Y-128331D01*
X488523Y-128033D01*
G54D24*
X409072Y-136331D02*
X496226Y-136331D01*
X496523Y-136033D01*
G54D24*
X409072Y-144331D02*
X504226Y-144331D01*
X504523Y-144033D01*
G54D24*
X409072Y-152331D02*
X512226Y-152331D01*
X512523Y-152033D01*
G54D24*
X409072Y-160331D02*
X520226Y-160331D01*
X520523Y-160033D01*
G54D24*
X409072Y-168331D02*
X528226Y-168331D01*
X528523Y-168033D01*
G54D24*
X409072Y-176331D02*
X536226Y-176331D01*
X536523Y-176033D01*
G54D24*
X409072Y-184331D02*
X544226Y-184331D01*
X544523Y-184033D01*
X544372Y-48931D02*
G54D29*
D03*
X536372Y-48931D02*
G54D29*
D03*
X528372Y-48931D02*
G54D29*
D03*
X520372Y-48931D02*
G54D29*
D03*
X512372Y-48931D02*
G54D29*
D03*
X504372Y-48931D02*
G54D29*
D03*
X496372Y-48931D02*
G54D29*
D03*
X560072Y-64531D02*
G54D30*
D03*
X560072Y-72531D02*
G54D25*
D03*
X560072Y-80531D02*
G54D30*
D03*
X560072Y-88531D02*
G54D30*
D03*
X560072Y-96531D02*
G54D30*
D03*
X560072Y-104531D02*
G54D30*
D03*
X560072Y-112531D02*
G54D30*
D03*
X488372Y-200331D02*
G54D29*
D03*
X496372Y-200331D02*
G54D29*
D03*
X504372Y-200331D02*
G54D29*
D03*
X512372Y-200331D02*
G54D29*
D03*
X520372Y-200331D02*
G54D29*
D03*
X528372Y-200331D02*
G54D29*
D03*
X536372Y-200331D02*
G54D29*
D03*
X409072Y-120331D02*
G54D30*
D03*
X409072Y-112331D02*
G54D30*
D03*
X409072Y-104331D02*
G54D25*
D03*
X409072Y-96331D02*
G54D30*
D03*
X409072Y-88331D02*
G54D30*
D03*
X409072Y-80331D02*
G54D30*
D03*
X409072Y-72331D02*
G54D30*
D03*
X409072Y-64331D02*
G54D30*
D03*
X409072Y-72331D02*
G54D30*
D03*
X409072Y-80331D02*
G54D30*
D03*
X409072Y-88331D02*
G54D30*
D03*
X409072Y-96331D02*
G54D30*
D03*
X409072Y-104331D02*
G54D25*
D03*
X409072Y-112331D02*
G54D30*
D03*
X488372Y-48931D02*
G54D29*
D03*
X496372Y-48931D02*
G54D29*
D03*
X504372Y-48931D02*
G54D29*
D03*
X512372Y-48931D02*
G54D29*
D03*
X520372Y-48931D02*
G54D29*
D03*
X528372Y-48931D02*
G54D29*
D03*
X536372Y-48931D02*
G54D29*
D03*
X560072Y-120531D02*
G54D30*
D03*
X560072Y-112531D02*
G54D30*
D03*
X560072Y-104531D02*
G54D30*
D03*
X560072Y-96531D02*
G54D30*
D03*
X560072Y-88531D02*
G54D30*
D03*
X560072Y-80531D02*
G54D30*
D03*
X560072Y-72531D02*
G54D25*
D03*
X544372Y-200331D02*
G54D29*
D03*
X536372Y-200331D02*
G54D29*
D03*
X528372Y-200331D02*
G54D29*
D03*
X520372Y-200331D02*
G54D29*
D03*
X512372Y-200331D02*
G54D29*
D03*
X504372Y-200331D02*
G54D29*
D03*
X496372Y-200331D02*
G54D29*
D03*
X560072Y-128531D02*
G54D30*
D03*
X560072Y-136531D02*
G54D30*
D03*
X560072Y-144531D02*
G54D30*
D03*
X560072Y-152531D02*
G54D30*
D03*
X560072Y-160531D02*
G54D30*
D03*
X560072Y-168531D02*
G54D30*
D03*
X560072Y-176531D02*
G54D30*
D03*
X560072Y-184531D02*
G54D30*
D03*
X560072Y-176531D02*
G54D30*
D03*
X560072Y-168531D02*
G54D30*
D03*
X560072Y-160531D02*
G54D30*
D03*
X560072Y-152531D02*
G54D25*
D03*
X560072Y-144531D02*
G54D30*
D03*
X560072Y-136531D02*
G54D30*
D03*
X480372Y-48931D02*
G54D29*
D03*
X472372Y-48931D02*
G54D29*
D03*
X464372Y-48931D02*
G54D29*
D03*
X456372Y-48931D02*
G54D29*
D03*
X448372Y-48931D02*
G54D29*
D03*
X440372Y-48931D02*
G54D29*
D03*
X432372Y-48931D02*
G54D29*
D03*
X424372Y-48931D02*
G54D29*
D03*
X432372Y-48931D02*
G54D29*
D03*
X440372Y-48931D02*
G54D29*
D03*
X448372Y-48931D02*
G54D29*
D03*
X456372Y-48931D02*
G54D29*
D03*
X464372Y-48931D02*
G54D29*
D03*
X472372Y-48931D02*
G54D29*
D03*
X424372Y-200331D02*
G54D29*
D03*
X432372Y-200331D02*
G54D29*
D03*
X448372Y-200331D02*
G54D29*
D03*
X456372Y-200331D02*
G54D29*
D03*
X464372Y-200331D02*
G54D29*
D03*
X472372Y-200331D02*
G54D29*
D03*
X480372Y-200331D02*
G54D29*
D03*
X480372Y-200331D02*
G54D29*
D03*
X472372Y-200331D02*
G54D29*
D03*
X464372Y-200331D02*
G54D29*
D03*
X456372Y-200331D02*
G54D29*
D03*
X448372Y-200331D02*
G54D29*
D03*
X432372Y-200331D02*
G54D31*
D03*
X409072Y-184331D02*
G54D30*
D03*
X409072Y-176331D02*
G54D30*
D03*
X409072Y-168331D02*
G54D30*
D03*
X409072Y-160331D02*
G54D30*
D03*
X409072Y-152331D02*
G54D30*
D03*
X409072Y-144331D02*
G54D30*
D03*
X409072Y-136331D02*
G54D30*
D03*
X409072Y-128331D02*
G54D30*
D03*
X409072Y-136331D02*
G54D30*
D03*
X409072Y-144331D02*
G54D30*
D03*
X409072Y-152331D02*
G54D30*
D03*
X409072Y-160331D02*
G54D30*
D03*
X409072Y-168331D02*
G54D30*
D03*
X409072Y-176331D02*
G54D30*
D03*
X440372Y-200331D02*
G54D29*
D03*
X461848Y-316088D02*
G54D26*
D03*
X487248Y-316088D02*
G54D26*
D03*
G54D32*
X440372Y-200331D02*
X440372Y-261372D01*
X475000Y-296000D01*
X611000Y-296000D01*
X614248Y-299248D01*
X614248Y-316089D01*
G54D32*
X448372Y-200331D02*
X448372Y-257372D01*
X479000Y-288000D01*
X627000Y-288000D01*
X639000Y-300000D01*
X639000Y-315441D01*
X639648Y-316089D01*
G54D32*
X456372Y-200331D02*
X456372Y-253372D01*
X483000Y-280000D01*
X647000Y-280000D01*
X665048Y-298048D01*
X665048Y-316089D01*
G54D32*
X464372Y-200331D02*
X464372Y-249372D01*
X487000Y-272000D01*
X666424Y-272000D01*
X690452Y-296028D01*
X690448Y-316089D01*
G54D32*
X472372Y-200331D02*
X472372Y-245372D01*
X491000Y-264000D01*
X684112Y-264000D01*
X715873Y-295761D01*
X715848Y-316089D01*
G54D32*
X480372Y-200331D02*
X480372Y-241372D01*
X495000Y-256000D01*
X701390Y-256000D01*
X741243Y-295853D01*
X741248Y-316089D01*
X512380Y-248105D02*
G54D33*
D03*
G54D24*
X512372Y-200331D02*
X512228Y-247954D01*
X512380Y-248105D01*
G54D34*
X520372Y-200331D02*
X520372Y-233372D01*
X527000Y-240000D01*
X791000Y-240000D01*
X863000Y-312000D01*
X863000Y-387953D01*
X563317Y-387953D01*
G54D34*
X528372Y-200331D02*
X528372Y-225372D01*
X535000Y-232000D01*
X791000Y-232000D01*
X871000Y-312000D01*
X871000Y-395935D01*
X588883Y-395935D01*
X588883Y-395935D02*
G54D27*
D03*
X614329Y-403866D02*
G54D27*
D03*
X639119Y-412048D02*
G54D27*
D03*
X664764Y-419771D02*
G54D27*
D03*
X689920Y-428156D02*
G54D27*
D03*
X715320Y-436855D02*
G54D27*
D03*
G54D34*
X536372Y-200331D02*
X536372Y-217372D01*
X543000Y-224000D01*
X791000Y-224000D01*
X879000Y-312000D01*
X879000Y-403866D01*
X614329Y-403866D01*
G54D24*
X544372Y-200331D02*
X544372Y-209372D01*
X551000Y-216000D01*
X791000Y-216000D01*
X887000Y-312000D01*
X887000Y-412048D01*
X639119Y-412048D01*
G54D24*
X560072Y-184531D02*
X767531Y-184531D01*
X895000Y-312000D01*
X895000Y-419771D01*
X664764Y-419771D01*
G54D24*
X560072Y-176531D02*
X767531Y-176531D01*
X903000Y-312000D01*
X903000Y-428156D01*
X689920Y-428156D01*
G54D32*
X560072Y-168531D02*
X767531Y-168531D01*
X911000Y-312000D01*
X911000Y-436855D01*
X715320Y-436855D01*
X563317Y-387953D02*
G54D27*
D03*
X284883Y-395935D02*
G54D27*
D03*
X310329Y-403866D02*
G54D27*
D03*
X335119Y-412048D02*
G54D27*
D03*
X360764Y-419771D02*
G54D27*
D03*
X385920Y-428156D02*
G54D27*
D03*
X411320Y-436855D02*
G54D27*
D03*
X259317Y-387953D02*
G54D27*
D03*
G54D35*
X563317Y-387953D02*
X259317Y-387953D01*
G54D24*
X588883Y-395935D02*
X284883Y-395935D01*
G54D24*
X614329Y-403866D02*
X310329Y-403866D01*
G54D24*
X639119Y-412048D02*
X335119Y-412048D01*
G54D24*
X664764Y-419771D02*
X360764Y-419771D01*
G54D24*
X689920Y-428156D02*
X385920Y-428156D01*
G54D24*
X715320Y-436855D02*
X411320Y-436855D01*
X423343Y-216229D02*
G54D27*
D03*
X423343Y-235754D02*
G54D27*
D03*
X423343Y-248229D02*
G54D27*
D03*
X423343Y-260229D02*
G54D27*
D03*
X423343Y-272229D02*
G54D36*
D03*
X423343Y-284229D02*
G54D36*
D03*
X480580Y-236146D02*
G54D27*
D03*
G54D24*
X488372Y-200331D02*
X488372Y-226628D01*
X488372Y-226628D02*
G54D33*
D03*
X423343Y-296229D02*
G54D27*
D03*
G54D34*
X423343Y-296229D02*
X207848Y-296229D01*
X207848Y-316089D01*
G54D15*
X423343Y-284229D02*
X183000Y-284229D01*
X183000Y-315536D01*
X182448Y-316089D01*
X472372Y-245372D02*
G54D27*
D03*
X464244Y-235786D02*
G54D27*
D03*
X456366Y-245512D02*
G54D27*
D03*
X448439Y-235634D02*
G54D27*
D03*
G54D37*
X423343Y-272229D02*
X157047Y-272229D01*
X157047Y-316089D01*
G54D38*
X423343Y-260229D02*
X130771Y-260229D01*
X88032Y-304196D01*
X88032Y-383855D01*
X131632Y-383855D01*
X131647Y-366888D01*
G54D39*
X423343Y-248229D02*
X135637Y-248229D01*
X80235Y-303630D01*
X80235Y-390792D01*
X157047Y-390792D01*
X157047Y-366888D01*
G54D40*
X423343Y-235754D02*
X139246Y-235754D01*
X71982Y-304000D01*
X71982Y-397653D01*
X164596Y-397653D01*
X182448Y-379801D01*
X182448Y-366888D01*
G54D41*
X440192Y-226960D02*
X140040Y-226960D01*
X64126Y-304188D01*
X64126Y-404000D01*
X183783Y-404000D01*
X207848Y-379935D01*
X207848Y-366888D01*
G54D24*
X423343Y-216229D02*
X142771Y-216229D01*
X55844Y-304188D01*
X55844Y-410301D01*
X202638Y-410301D01*
X233269Y-379670D01*
X233248Y-366888D01*
X588523Y-248033D02*
G54D27*
D03*
G54D24*
X588523Y-248033D02*
X512380Y-248105D01*
X496523Y-88033D02*
G54D27*
D03*
X584523Y-96033D02*
G54D27*
D03*
G54D24*
X560072Y-88531D02*
X497021Y-88531D01*
X496523Y-88033D01*
X592523Y-104033D02*
G54D27*
D03*
X600523Y-112033D02*
G54D27*
D03*
G54D24*
X560072Y-96531D02*
X584026Y-96531D01*
X584523Y-96033D01*
G54D24*
X560072Y-104531D02*
X592026Y-104531D01*
X592523Y-104033D01*
G54D24*
X560072Y-112531D02*
X600026Y-112531D01*
X600523Y-112033D01*
X608523Y-120033D02*
G54D27*
D03*
G54D24*
X560072Y-120531D02*
X608026Y-120531D01*
X608523Y-120033D01*
X436905Y-444162D02*
G54D27*
D03*
X462267Y-452066D02*
G54D27*
D03*
X512531Y-459715D02*
G54D27*
D03*
X537443Y-468361D02*
G54D27*
D03*
G54D32*
X436905Y-444162D02*
X919000Y-444162D01*
X919000Y-312000D01*
X767000Y-160000D01*
X639000Y-160000D01*
X623531Y-144531D01*
X560072Y-144531D01*
G54D15*
X462267Y-452066D02*
X927000Y-452066D01*
X927000Y-312000D01*
X767000Y-152000D01*
X647000Y-152000D01*
X631531Y-136531D01*
X560072Y-136531D01*
G54D15*
X512531Y-459715D02*
X935000Y-459715D01*
X935000Y-312000D01*
X767000Y-144000D01*
X655000Y-144000D01*
X639531Y-128531D01*
X560072Y-128531D01*
G54D15*
X537443Y-468361D02*
X943000Y-468361D01*
X943000Y-312000D01*
X767000Y-136000D01*
X663000Y-136000D01*
X639000Y-112000D01*
X520523Y-32033D02*
G54D27*
D03*
G54D24*
X520372Y-48931D02*
X520372Y-32184D01*
X520523Y-32033D01*
X639000Y-112000D02*
G54D27*
D03*
G54D15*
X536372Y-48931D02*
X536372Y-38628D01*
X543000Y-32000D01*
X647000Y-32000D01*
X671000Y-56000D01*
G54D15*
X528372Y-48931D02*
X528372Y-38628D01*
X543000Y-24000D01*
X655000Y-24000D01*
X687000Y-56000D01*
X671000Y-56000D02*
G54D27*
D03*
X671000Y-96000D02*
G54D27*
D03*
X687000Y-112000D02*
G54D27*
D03*
X687000Y-56000D02*
G54D27*
D03*
G54D24*
X687000Y-112000D02*
X687000Y-120000D01*
X695000Y-128000D01*
X784110Y-128000D01*
X784110Y-105751D01*
G54D24*
X671000Y-96000D02*
X718000Y-96000D01*
X718000Y-120915D01*
X758098Y-120915D01*
X758098Y-105763D01*
X758110Y-105751D01*
X284958Y-96439D02*
G54D27*
D03*
G36*
X428500Y-502192D02*
X449500Y-502192D01*
X449500Y-523192D01*
X428500Y-523192D01*
X428500Y-502192D01*
G37*
G36*
X454250Y-506192D02*
X467250Y-506192D01*
X467250Y-519192D01*
X454250Y-519192D01*
X454250Y-506192D01*
G37*
X624372Y-21239D02*
G54D42*
D03*
X624372Y-35068D02*
G54D42*
D03*
G54D15*
X409072Y-96331D02*
X284958Y-96439D01*
G36*
X831019Y-4979D02*
X845019Y-4979D01*
X845019Y-18979D01*
X831019Y-18979D01*
X831019Y-4979D01*
G37*
G36*
X845419Y-8979D02*
X851419Y-8979D01*
X851419Y-14979D01*
X845419Y-14979D01*
X845419Y-8979D01*
G37*
G36*
X216900Y-506900D02*
X216900Y-479900D01*
X243900Y-479900D01*
X243900Y-506900D01*
X216900Y-506900D01*
G37*
G36*
X191500Y-506900D02*
X191500Y-479900D01*
X218500Y-479900D01*
X218500Y-506900D01*
X191500Y-506900D01*
G37*
G36*
X166100Y-506900D02*
X166100Y-479900D01*
X193100Y-479900D01*
X193100Y-506900D01*
X166100Y-506900D01*
G37*
G36*
X166100Y-481500D02*
X166100Y-454500D01*
X193100Y-454500D01*
X193100Y-481500D01*
X166100Y-481500D01*
G37*
G36*
X191500Y-481500D02*
X191500Y-454500D01*
X218500Y-454500D01*
X218500Y-481500D01*
X191500Y-481500D01*
G37*
G36*
X216900Y-481500D02*
X216900Y-454500D01*
X243900Y-454500D01*
X243900Y-481500D01*
X216900Y-481500D01*
G37*
G36*
X246300Y-502900D02*
X246300Y-483900D01*
X265300Y-483900D01*
X265300Y-502900D01*
X246300Y-502900D01*
G37*
G36*
X242300Y-481500D02*
X242300Y-454500D01*
X269300Y-454500D01*
X269300Y-481500D01*
X242300Y-481500D01*
G37*
G36*
X144700Y-502900D02*
X144700Y-483900D01*
X163700Y-483900D01*
X163700Y-502900D01*
X144700Y-502900D01*
G37*
G36*
X140700Y-481500D02*
X140700Y-454500D01*
X167700Y-454500D01*
X167700Y-481500D01*
X140700Y-481500D01*
G37*
G54D24*
X404116Y-479982D02*
X420611Y-479982D01*
X437796Y-462796D01*
X480589Y-462796D01*
X512589Y-494796D01*
X512750Y-512692D01*
G54D24*
X407200Y-495750D02*
X422058Y-495750D01*
X439000Y-512692D01*
X461122Y-479902D02*
G54D43*
D03*
G54D44*
X460750Y-512692D02*
X460750Y-480274D01*
X461122Y-479902D01*
G54D44*
X491000Y-512692D02*
X460750Y-512692D01*
G54D24*
X440372Y-48931D02*
X440372Y-33372D01*
X439000Y-32000D01*
X248067Y-32000D01*
X32071Y-247996D01*
X32071Y-430671D01*
X255800Y-430671D01*
X255800Y-468000D01*
G54D24*
X448372Y-48931D02*
X448372Y-25372D01*
X447000Y-24000D01*
X248017Y-24000D01*
X24154Y-247863D01*
X24154Y-437026D01*
X230400Y-437026D01*
X230400Y-468000D01*
G54D24*
X456372Y-48931D02*
X456372Y-17372D01*
X455000Y-16000D01*
X247886Y-16000D01*
X16003Y-247882D01*
X16003Y-444000D01*
X205000Y-444000D01*
X205000Y-468000D01*
G54D24*
X464372Y-48931D02*
X464372Y-7068D01*
X248950Y-7068D01*
X8009Y-248009D01*
X8009Y-452000D01*
X154200Y-452000D01*
X154200Y-468000D01*
G54D13*
X409072Y-104331D02*
X251000Y-104331D01*
X251000Y-91883D01*
G36*
X597082Y-58528D02*
X597082Y-84528D01*
X571082Y-84528D01*
X571082Y-58528D01*
X597082Y-58528D01*
G37*
G36*
X597082Y-68928D02*
X597082Y-94928D01*
X571082Y-94928D01*
X571082Y-68928D01*
X597082Y-68928D01*
G37*
G36*
X392925Y-74883D02*
X392925Y-92883D01*
X374925Y-92883D01*
X374925Y-74883D01*
X392925Y-74883D01*
G37*
G36*
X392925Y-85283D02*
X392925Y-103283D01*
X374925Y-103283D01*
X374925Y-85283D01*
X392925Y-85283D01*
G37*
X251000Y-91883D02*
G54D43*
D03*
X945803Y-63465D02*
G54D43*
D03*
X900741Y-32318D02*
G54D43*
D03*
X849941Y-32318D02*
G54D43*
D03*
X756341Y-48318D02*
G54D43*
D03*
X705541Y-48318D02*
G54D43*
D03*
X138741Y-32318D02*
G54D43*
D03*
X87941Y-32318D02*
G54D43*
D03*
X37141Y-32318D02*
G54D43*
D03*
X37141Y-83118D02*
G54D43*
D03*
X87941Y-83118D02*
G54D43*
D03*
X138741Y-83118D02*
G54D43*
D03*
X37141Y-133918D02*
G54D43*
D03*
X87941Y-133918D02*
G54D43*
D03*
X37141Y-184718D02*
G54D43*
D03*
X934841Y-235518D02*
G54D43*
D03*
X934817Y-285708D02*
G54D43*
D03*
X752386Y-283636D02*
G54D43*
D03*
X730941Y-260918D02*
G54D43*
D03*
X726420Y-202290D02*
G54D43*
D03*
X675620Y-202290D02*
G54D43*
D03*
X624820Y-202290D02*
G54D43*
D03*
X574020Y-202290D02*
G54D43*
D03*
X269220Y-151490D02*
G54D43*
D03*
X345420Y-126090D02*
G54D43*
D03*
X428134Y-109358D02*
G54D43*
D03*
X436362Y-66756D02*
G54D43*
D03*
X512501Y-66756D02*
G54D43*
D03*
X560268Y-46690D02*
G54D43*
D03*
X595808Y-46690D02*
G54D43*
D03*
X623683Y-63066D02*
G54D43*
D03*
X655042Y-63415D02*
G54D43*
D03*
X381670Y-40483D02*
G54D43*
D03*
X287032Y-40483D02*
G54D43*
D03*
X381670Y-57373D02*
G54D43*
D03*
X287032Y-57373D02*
G54D43*
D03*
X271418Y-77700D02*
G54D43*
D03*
X309049Y-77700D02*
G54D43*
D03*
X346331Y-77700D02*
G54D43*
D03*
X180902Y-140736D02*
G54D43*
D03*
X223261Y-140467D02*
G54D43*
D03*
X127783Y-194102D02*
G54D43*
D03*
X170142Y-193834D02*
G54D43*
D03*
X87289Y-234021D02*
G54D43*
D03*
X56856Y-274392D02*
G54D43*
D03*
X799141Y-133918D02*
G54D43*
D03*
X640665Y-97738D02*
G54D43*
D03*
X545141Y-505518D02*
G54D43*
D03*
X595941Y-505518D02*
G54D43*
D03*
X646741Y-505518D02*
G54D43*
D03*
X697541Y-505518D02*
G54D43*
D03*
X748341Y-505518D02*
G54D43*
D03*
X799141Y-505518D02*
G54D43*
D03*
X849941Y-505518D02*
G54D43*
D03*
X900741Y-505518D02*
G54D43*
D03*
X216163Y-205341D02*
G54D43*
D03*
X246430Y-204748D02*
G54D43*
D03*
X271653Y-204748D02*
G54D43*
D03*
X296875Y-204748D02*
G54D43*
D03*
X323285Y-204748D02*
G54D43*
D03*
X348211Y-205044D02*
G54D43*
D03*
X373433Y-204748D02*
G54D43*
D03*
X398952Y-204748D02*
G54D43*
D03*
G36*
X413137Y-505059D02*
X395137Y-505059D01*
X395137Y-487059D01*
X413137Y-487059D01*
X413137Y-505059D01*
G37*
G36*
X402737Y-505059D02*
X384737Y-505059D01*
X384737Y-487059D01*
X402737Y-487059D01*
X402737Y-505059D01*
G37*
G36*
X413116Y-488982D02*
X395116Y-488982D01*
X395116Y-470982D01*
X413116Y-470982D01*
X413116Y-488982D01*
G37*
G36*
X402716Y-488982D02*
X384716Y-488982D01*
X384716Y-470982D01*
X402716Y-470982D01*
X402716Y-488982D01*
G37*
G54D13*
X560072Y-152531D02*
X535531Y-152531D01*
X535000Y-152000D01*
X331141Y-433518D02*
G54D43*
D03*
X371141Y-457518D02*
G54D43*
D03*
X419141Y-457518D02*
G54D43*
D03*
G36*
X519333Y-523289D02*
X498333Y-523289D01*
X498333Y-502289D01*
X519333Y-502289D01*
X519333Y-523289D01*
G37*
G36*
X493583Y-519289D02*
X480583Y-519289D01*
X480583Y-506289D01*
X493583Y-506289D01*
X493583Y-519289D01*
G37*
X849941Y-184718D02*
G54D43*
D03*
X900741Y-184718D02*
G54D43*
D03*
X122741Y-468318D02*
G54D43*
D03*
X71941Y-468318D02*
G54D43*
D03*
X21141Y-468318D02*
G54D43*
D03*
X21141Y-519118D02*
G54D43*
D03*
X71941Y-519118D02*
G54D43*
D03*
X122741Y-519118D02*
G54D43*
D03*
X505541Y-8318D02*
G54D43*
D03*
X577541Y-8318D02*
G54D43*
D03*
X649541Y-8318D02*
G54D43*
D03*
X721541Y-8318D02*
G54D43*
D03*
X32000Y-496000D02*
G54D45*
D03*
X32000Y-160000D02*
G54D45*
D03*
X920000Y-496000D02*
G54D45*
D03*
X920000Y-160000D02*
G54D45*
D03*
G36*
X112000Y-264000D02*
X192000Y-264000D01*
X192000Y-304000D01*
X112000Y-304000D01*
X112000Y-264000D01*
G37*
G54D21*
X112000Y-264000D02*
X192000Y-264000D01*
X192000Y-304000D01*
X112000Y-304000D01*
X112000Y-264000D01*
X860630Y-168070D02*
G54D46*
D03*
X860630Y-143170D02*
G54D47*
D03*
G54D48*
X860630Y-143170D02*
X860630Y-76405D01*
X860425Y-76200D01*
X900741Y-133918D02*
G54D43*
D03*
%LPD*%
X842610Y-27751D02*
G54D12*
D03*
X842610Y-105751D02*
G54D12*
D03*
X836110Y-27751D02*
G54D12*
D03*
X836110Y-105751D02*
G54D12*
D03*
X829610Y-27751D02*
G54D12*
D03*
X829610Y-105751D02*
G54D12*
D03*
X823110Y-27751D02*
G54D12*
D03*
X823110Y-105751D02*
G54D12*
D03*
X816610Y-27751D02*
G54D12*
D03*
X816610Y-105751D02*
G54D12*
D03*
X810110Y-27751D02*
G54D12*
D03*
X810110Y-105751D02*
G54D12*
D03*
X803610Y-27751D02*
G54D12*
D03*
X803610Y-105751D02*
G54D12*
D03*
X797110Y-27751D02*
G54D12*
D03*
X797110Y-105751D02*
G54D12*
D03*
X790610Y-27751D02*
G54D12*
D03*
X790610Y-105751D02*
G54D12*
D03*
X784110Y-27751D02*
G54D12*
D03*
X784110Y-105751D02*
G54D12*
D03*
X777610Y-27751D02*
G54D12*
D03*
X777610Y-105751D02*
G54D12*
D03*
X771110Y-27751D02*
G54D12*
D03*
X771110Y-105751D02*
G54D12*
D03*
X764610Y-27751D02*
G54D12*
D03*
X764610Y-105751D02*
G54D12*
D03*
X758110Y-27751D02*
G54D12*
D03*
X758110Y-105751D02*
G54D12*
D03*
G54D13*
X850170Y-12133D02*
X886170Y-12133D01*
G54D16*
X829610Y-27751D02*
X829610Y-11429D01*
X835972Y-11429D01*
G54D16*
X842519Y-29878D02*
X842519Y-59179D01*
X886200Y-59179D01*
G54D16*
X836117Y-31168D02*
X836117Y-67179D01*
X886200Y-67179D01*
G54D13*
X886170Y-75133D02*
X810120Y-75133D01*
G54D16*
X777888Y-75227D02*
X777596Y-104858D01*
G54D13*
X854170Y-12133D02*
X854170Y-2633D01*
X823068Y-2657D01*
X823074Y-12132D01*
X771106Y-12133D01*
X771061Y-12087D01*
G54D16*
X777552Y-26857D02*
X777552Y-12276D01*
X777740Y-12087D01*
G54D16*
X803611Y-24787D02*
X803611Y-12087D01*
G54D16*
X823084Y-25540D02*
X823084Y-7948D01*
G54D13*
X810120Y-75133D02*
X733814Y-75174D01*
G36*
X731072Y-76244D02*
X731072Y-70244D01*
X737072Y-70244D01*
X737072Y-76244D01*
X731072Y-76244D01*
G37*
G36*
X731072Y-65844D02*
X731072Y-59844D01*
X737072Y-59844D01*
X737072Y-65844D01*
X731072Y-65844D01*
G37*
G54D13*
X734170Y-60133D02*
X734170Y-12133D01*
X770170Y-12133D01*
X934500Y-14579D02*
G54D17*
D03*
X934500Y-103579D02*
G54D17*
D03*
X887500Y-14579D02*
G54D17*
D03*
X887500Y-103579D02*
G54D17*
D03*
X886200Y-43179D02*
G54D18*
D03*
X886200Y-51179D02*
G54D18*
D03*
X886200Y-59179D02*
G54D18*
D03*
X886200Y-67179D02*
G54D18*
D03*
X886200Y-75179D02*
G54D18*
D03*
G54D13*
X884964Y-42682D02*
X884963Y-12031D01*
X936158Y-12031D01*
G54D13*
X560072Y-72531D02*
X711000Y-72531D01*
X711000Y-62844D01*
X734072Y-62844D01*
G54D13*
X560670Y-80531D02*
X733814Y-80531D01*
X733814Y-75174D01*
G54D13*
X560072Y-64531D02*
X540786Y-64531D01*
X540565Y-64751D01*
X540565Y-80301D01*
X559842Y-80301D01*
X560072Y-80531D01*
G54D13*
X409072Y-96331D02*
X422669Y-96331D01*
X438699Y-80301D01*
X540565Y-80301D01*
G54D16*
X810166Y-30192D02*
X810120Y-75133D01*
G54D16*
X771061Y-25540D02*
X771061Y-12087D01*
G54D21*
X934841Y-235518D02*
X934500Y-14579D01*
X365572Y-81868D02*
G54D49*
D03*
G54D13*
X409072Y-88331D02*
X401636Y-88331D01*
X390819Y-81898D01*
X381572Y-81868D01*
X365572Y-81867D01*
X466410Y-12140D02*
G54D50*
D03*
G54D44*
X424372Y-48931D02*
X238880Y-48931D01*
X39989Y-247823D01*
X39989Y-424043D01*
X283043Y-424043D01*
X354750Y-495750D01*
X390800Y-495750D01*
G54D44*
X409072Y-64331D02*
X231700Y-64331D01*
X47884Y-248146D01*
X47884Y-417340D01*
X288340Y-417340D01*
X351000Y-480000D01*
X393716Y-479982D01*
X560072Y-72531D02*
G54D25*
D03*
G54D13*
G75*
G01X529411Y-74572D02*
G03X529411Y-74572I5000J0D01*
G01*
X842848Y-366888D02*
G54D51*
D03*
X817448Y-366888D02*
G54D51*
D03*
X792048Y-366888D02*
G54D51*
D03*
X766648Y-366888D02*
G54D51*
D03*
X741248Y-366888D02*
G54D51*
D03*
X715848Y-366888D02*
G54D51*
D03*
X690448Y-366888D02*
G54D51*
D03*
X665048Y-366888D02*
G54D51*
D03*
X639648Y-366888D02*
G54D51*
D03*
X614248Y-366888D02*
G54D51*
D03*
X588848Y-366888D02*
G54D51*
D03*
X563448Y-366888D02*
G54D51*
D03*
X538048Y-366888D02*
G54D51*
D03*
X512648Y-366888D02*
G54D51*
D03*
X487248Y-366888D02*
G54D51*
D03*
X461848Y-366888D02*
G54D51*
D03*
X436448Y-366888D02*
G54D51*
D03*
X411048Y-366888D02*
G54D51*
D03*
X385648Y-366888D02*
G54D51*
D03*
X360248Y-366888D02*
G54D51*
D03*
X334848Y-366888D02*
G54D51*
D03*
X309448Y-366888D02*
G54D51*
D03*
X284048Y-366888D02*
G54D51*
D03*
X258648Y-366888D02*
G54D51*
D03*
X233248Y-366888D02*
G54D51*
D03*
X207848Y-366888D02*
G54D51*
D03*
X182448Y-366888D02*
G54D51*
D03*
X157047Y-366888D02*
G54D51*
D03*
X131647Y-366888D02*
G54D51*
D03*
X106247Y-366888D02*
G54D51*
D03*
X842848Y-316089D02*
G54D51*
D03*
X817448Y-316089D02*
G54D51*
D03*
X792048Y-316089D02*
G54D51*
D03*
X766648Y-316089D02*
G54D51*
D03*
X741248Y-316089D02*
G54D51*
D03*
X715848Y-316089D02*
G54D51*
D03*
X690448Y-316089D02*
G54D51*
D03*
X665048Y-316089D02*
G54D51*
D03*
X639648Y-316089D02*
G54D51*
D03*
X614248Y-316089D02*
G54D51*
D03*
X588848Y-316089D02*
G54D51*
D03*
X563448Y-316089D02*
G54D51*
D03*
X538048Y-316089D02*
G54D51*
D03*
X512648Y-316089D02*
G54D51*
D03*
X436448Y-316089D02*
G54D51*
D03*
X411048Y-316089D02*
G54D51*
D03*
X385648Y-316089D02*
G54D51*
D03*
X360248Y-316089D02*
G54D51*
D03*
X334848Y-316089D02*
G54D51*
D03*
X309448Y-316089D02*
G54D51*
D03*
X284048Y-316089D02*
G54D51*
D03*
X258648Y-316089D02*
G54D51*
D03*
X233248Y-316089D02*
G54D51*
D03*
X207848Y-316089D02*
G54D51*
D03*
X182448Y-316089D02*
G54D51*
D03*
X157047Y-316089D02*
G54D51*
D03*
X131647Y-316089D02*
G54D51*
D03*
X106247Y-316089D02*
G54D51*
D03*
G54D44*
X409072Y-184331D02*
X232199Y-184612D01*
X258928Y-176158D02*
G54D43*
D03*
X284328Y-168404D02*
G54D43*
D03*
X309192Y-160765D02*
G54D43*
D03*
X335343Y-152229D02*
G54D43*
D03*
X359916Y-144674D02*
G54D43*
D03*
X370598Y-135809D02*
G54D43*
D03*
X384523Y-128033D02*
G54D43*
D03*
G54D44*
X409072Y-176331D02*
X258928Y-176158D01*
G54D44*
X409072Y-128331D02*
X384821Y-128331D01*
X384523Y-128033D01*
G54D44*
X409072Y-136331D02*
X371120Y-136331D01*
X370598Y-135809D01*
G54D44*
X409072Y-144331D02*
X359936Y-144695D01*
X359916Y-144674D01*
G54D44*
X407000Y-152000D02*
X335343Y-152229D01*
G54D44*
X407000Y-160000D02*
X309957Y-160000D01*
X309192Y-160765D01*
G54D44*
X409072Y-168331D02*
X285492Y-168331D01*
X284328Y-168404D01*
X232958Y-184439D02*
G54D43*
D03*
X488523Y-128033D02*
G54D43*
D03*
X496523Y-136033D02*
G54D43*
D03*
X504523Y-144033D02*
G54D43*
D03*
X512523Y-152033D02*
G54D43*
D03*
X520523Y-160033D02*
G54D43*
D03*
X528523Y-168033D02*
G54D43*
D03*
X536523Y-176033D02*
G54D43*
D03*
X544523Y-184033D02*
G54D43*
D03*
G54D44*
X409072Y-128331D02*
X488226Y-128331D01*
X488523Y-128033D01*
G54D44*
X409072Y-136331D02*
X496226Y-136331D01*
X496523Y-136033D01*
G54D44*
X409072Y-144331D02*
X504226Y-144331D01*
X504523Y-144033D01*
G54D44*
X409072Y-152331D02*
X512226Y-152331D01*
X512523Y-152033D01*
G54D44*
X409072Y-160331D02*
X520226Y-160331D01*
X520523Y-160033D01*
G54D44*
X409072Y-168331D02*
X528226Y-168331D01*
X528523Y-168033D01*
G54D44*
X409072Y-176331D02*
X536226Y-176331D01*
X536523Y-176033D01*
G54D44*
X409072Y-184331D02*
X544226Y-184331D01*
X544523Y-184033D01*
X544372Y-48931D02*
G54D52*
D03*
X536372Y-48931D02*
G54D52*
D03*
X528372Y-48931D02*
G54D52*
D03*
X520372Y-48931D02*
G54D52*
D03*
X512372Y-48931D02*
G54D52*
D03*
X504372Y-48931D02*
G54D52*
D03*
X496372Y-48931D02*
G54D52*
D03*
X560072Y-64531D02*
G54D25*
D03*
X560072Y-72531D02*
G54D25*
D03*
X560072Y-80531D02*
G54D25*
D03*
X560072Y-88531D02*
G54D25*
D03*
X560072Y-96531D02*
G54D25*
D03*
X560072Y-104531D02*
G54D25*
D03*
X560072Y-112531D02*
G54D25*
D03*
X488372Y-200331D02*
G54D52*
D03*
X496372Y-200331D02*
G54D52*
D03*
X504372Y-200331D02*
G54D52*
D03*
X512372Y-200331D02*
G54D52*
D03*
X520372Y-200331D02*
G54D52*
D03*
X528372Y-200331D02*
G54D52*
D03*
X536372Y-200331D02*
G54D52*
D03*
X409072Y-120331D02*
G54D25*
D03*
X409072Y-112331D02*
G54D25*
D03*
X409072Y-104331D02*
G54D25*
D03*
X409072Y-96331D02*
G54D25*
D03*
X409072Y-88331D02*
G54D25*
D03*
X409072Y-80331D02*
G54D25*
D03*
X409072Y-72331D02*
G54D25*
D03*
X409072Y-64331D02*
G54D25*
D03*
X409072Y-72331D02*
G54D25*
D03*
X409072Y-80331D02*
G54D25*
D03*
X409072Y-88331D02*
G54D25*
D03*
X409072Y-96331D02*
G54D25*
D03*
X409072Y-104331D02*
G54D25*
D03*
X409072Y-112331D02*
G54D25*
D03*
X488372Y-48931D02*
G54D52*
D03*
X496372Y-48931D02*
G54D52*
D03*
X504372Y-48931D02*
G54D52*
D03*
X512372Y-48931D02*
G54D52*
D03*
X520372Y-48931D02*
G54D52*
D03*
X528372Y-48931D02*
G54D52*
D03*
X536372Y-48931D02*
G54D52*
D03*
X560072Y-120531D02*
G54D25*
D03*
X560072Y-112531D02*
G54D25*
D03*
X560072Y-104531D02*
G54D25*
D03*
X560072Y-96531D02*
G54D25*
D03*
X560072Y-88531D02*
G54D25*
D03*
X560072Y-80531D02*
G54D25*
D03*
X560072Y-72531D02*
G54D25*
D03*
X544372Y-200331D02*
G54D52*
D03*
X536372Y-200331D02*
G54D52*
D03*
X528372Y-200331D02*
G54D52*
D03*
X520372Y-200331D02*
G54D52*
D03*
X512372Y-200331D02*
G54D52*
D03*
X504372Y-200331D02*
G54D52*
D03*
X496372Y-200331D02*
G54D52*
D03*
X560072Y-128531D02*
G54D25*
D03*
X560072Y-136531D02*
G54D25*
D03*
X560072Y-144531D02*
G54D25*
D03*
X560072Y-152531D02*
G54D25*
D03*
X560072Y-160531D02*
G54D25*
D03*
X560072Y-168531D02*
G54D25*
D03*
X560072Y-176531D02*
G54D25*
D03*
X560072Y-184531D02*
G54D25*
D03*
X560072Y-176531D02*
G54D25*
D03*
X560072Y-168531D02*
G54D25*
D03*
X560072Y-160531D02*
G54D25*
D03*
X560072Y-152531D02*
G54D25*
D03*
X560072Y-144531D02*
G54D25*
D03*
X560072Y-136531D02*
G54D25*
D03*
X480372Y-48931D02*
G54D52*
D03*
X472372Y-48931D02*
G54D52*
D03*
X464372Y-48931D02*
G54D52*
D03*
X456372Y-48931D02*
G54D52*
D03*
X448372Y-48931D02*
G54D52*
D03*
X440372Y-48931D02*
G54D52*
D03*
X432372Y-48931D02*
G54D52*
D03*
X424372Y-48931D02*
G54D52*
D03*
X432372Y-48931D02*
G54D52*
D03*
X440372Y-48931D02*
G54D52*
D03*
X448372Y-48931D02*
G54D52*
D03*
X456372Y-48931D02*
G54D52*
D03*
X464372Y-48931D02*
G54D52*
D03*
X472372Y-48931D02*
G54D52*
D03*
X424372Y-200331D02*
G54D52*
D03*
X432372Y-200331D02*
G54D52*
D03*
X448372Y-200331D02*
G54D52*
D03*
X456372Y-200331D02*
G54D52*
D03*
X464372Y-200331D02*
G54D52*
D03*
X472372Y-200331D02*
G54D52*
D03*
X480372Y-200331D02*
G54D52*
D03*
X480372Y-200331D02*
G54D52*
D03*
X472372Y-200331D02*
G54D52*
D03*
X464372Y-200331D02*
G54D52*
D03*
X456372Y-200331D02*
G54D52*
D03*
X448372Y-200331D02*
G54D52*
D03*
X432372Y-200331D02*
G54D52*
D03*
X409072Y-184331D02*
G54D25*
D03*
X409072Y-176331D02*
G54D25*
D03*
X409072Y-168331D02*
G54D25*
D03*
X409072Y-160331D02*
G54D25*
D03*
X409072Y-152331D02*
G54D25*
D03*
X409072Y-144331D02*
G54D25*
D03*
X409072Y-136331D02*
G54D25*
D03*
X409072Y-128331D02*
G54D25*
D03*
X409072Y-136331D02*
G54D25*
D03*
X409072Y-144331D02*
G54D25*
D03*
X409072Y-152331D02*
G54D25*
D03*
X409072Y-160331D02*
G54D25*
D03*
X409072Y-168331D02*
G54D25*
D03*
X409072Y-176331D02*
G54D25*
D03*
X440372Y-200331D02*
G54D52*
D03*
X461848Y-316088D02*
G54D51*
D03*
X487248Y-316088D02*
G54D51*
D03*
G54D44*
X440372Y-200331D02*
X440372Y-261372D01*
X475000Y-296000D01*
X611000Y-296000D01*
X614248Y-299248D01*
X614248Y-316089D01*
G54D44*
X448372Y-200331D02*
X448372Y-257372D01*
X479000Y-288000D01*
X627000Y-288000D01*
X639000Y-300000D01*
X639000Y-315441D01*
X639648Y-316089D01*
G54D44*
X456372Y-200331D02*
X456372Y-253372D01*
X483000Y-280000D01*
X647000Y-280000D01*
X665048Y-298048D01*
X665048Y-316089D01*
G54D44*
X464372Y-200331D02*
X464372Y-249372D01*
X487000Y-272000D01*
X666424Y-272000D01*
X690452Y-296028D01*
X690448Y-316089D01*
G54D44*
X472372Y-200331D02*
X472372Y-245372D01*
X491000Y-264000D01*
X684112Y-264000D01*
X715873Y-295761D01*
X715848Y-316089D01*
G54D44*
X480372Y-200331D02*
X480372Y-241372D01*
X495000Y-256000D01*
X701390Y-256000D01*
X741243Y-295853D01*
X741248Y-316089D01*
X512380Y-248105D02*
G54D43*
D03*
G54D44*
X512372Y-200331D02*
X512228Y-247954D01*
X512380Y-248105D01*
G54D44*
X520372Y-200331D02*
X520372Y-233372D01*
X527000Y-240000D01*
X791000Y-240000D01*
X863000Y-312000D01*
X863000Y-387953D01*
X563317Y-387953D01*
G54D44*
X528372Y-200331D02*
X528372Y-225372D01*
X535000Y-232000D01*
X791000Y-232000D01*
X871000Y-312000D01*
X871000Y-395935D01*
X588883Y-395935D01*
X588883Y-395935D02*
G54D43*
D03*
X614329Y-403866D02*
G54D43*
D03*
X639119Y-412048D02*
G54D43*
D03*
X664764Y-419771D02*
G54D43*
D03*
X689920Y-428156D02*
G54D43*
D03*
X715320Y-436855D02*
G54D43*
D03*
G54D44*
X536372Y-200331D02*
X536372Y-217372D01*
X543000Y-224000D01*
X791000Y-224000D01*
X879000Y-312000D01*
X879000Y-403866D01*
X614329Y-403866D01*
G54D44*
X544372Y-200331D02*
X544372Y-209372D01*
X551000Y-216000D01*
X791000Y-216000D01*
X887000Y-312000D01*
X887000Y-412048D01*
X639119Y-412048D01*
G54D44*
X560072Y-184531D02*
X767531Y-184531D01*
X895000Y-312000D01*
X895000Y-419771D01*
X664764Y-419771D01*
G54D44*
X560072Y-176531D02*
X767531Y-176531D01*
X903000Y-312000D01*
X903000Y-428156D01*
X689920Y-428156D01*
G54D44*
X560072Y-168531D02*
X767531Y-168531D01*
X911000Y-312000D01*
X911000Y-436855D01*
X715320Y-436855D01*
X563317Y-387953D02*
G54D43*
D03*
X284883Y-395935D02*
G54D43*
D03*
X310329Y-403866D02*
G54D43*
D03*
X335119Y-412048D02*
G54D43*
D03*
X360764Y-419771D02*
G54D43*
D03*
X385920Y-428156D02*
G54D43*
D03*
X411320Y-436855D02*
G54D43*
D03*
X259317Y-387953D02*
G54D43*
D03*
G54D44*
X563317Y-387953D02*
X259317Y-387953D01*
G54D44*
X588883Y-395935D02*
X284883Y-395935D01*
G54D44*
X614329Y-403866D02*
X310329Y-403866D01*
G54D44*
X639119Y-412048D02*
X335119Y-412048D01*
G54D44*
X664764Y-419771D02*
X360764Y-419771D01*
G54D44*
X689920Y-428156D02*
X385920Y-428156D01*
G54D44*
X715320Y-436855D02*
X411320Y-436855D01*
X423343Y-216229D02*
G54D43*
D03*
X423343Y-235754D02*
G54D43*
D03*
X423343Y-248229D02*
G54D43*
D03*
X423343Y-260229D02*
G54D43*
D03*
X423343Y-272229D02*
G54D43*
D03*
X423343Y-284229D02*
G54D43*
D03*
X480580Y-236146D02*
G54D43*
D03*
G54D44*
X488372Y-200331D02*
X488372Y-226628D01*
X488372Y-226628D02*
G54D43*
D03*
X423343Y-296229D02*
G54D43*
D03*
G54D44*
X423343Y-296229D02*
X207848Y-296229D01*
X207848Y-316089D01*
G54D44*
X423343Y-284229D02*
X183000Y-284229D01*
X183000Y-315536D01*
X182448Y-316089D01*
X472372Y-245372D02*
G54D43*
D03*
X464244Y-235786D02*
G54D43*
D03*
X456366Y-245512D02*
G54D43*
D03*
X448439Y-235634D02*
G54D43*
D03*
G54D44*
X423343Y-272229D02*
X157047Y-272229D01*
X157047Y-316089D01*
G54D44*
X423343Y-260229D02*
X130771Y-260229D01*
X88032Y-304196D01*
X88032Y-383855D01*
X131632Y-383855D01*
X131647Y-366888D01*
G54D44*
X423343Y-248229D02*
X135637Y-248229D01*
X80235Y-303630D01*
X80235Y-390792D01*
X157047Y-390792D01*
X157047Y-366888D01*
G54D44*
X423343Y-235754D02*
X139246Y-235754D01*
X71982Y-304000D01*
X71982Y-397653D01*
X164596Y-397653D01*
X182448Y-379801D01*
X182448Y-366888D01*
G54D44*
X440192Y-226960D02*
X140040Y-226960D01*
X64126Y-304188D01*
X64126Y-404000D01*
X183783Y-404000D01*
X207848Y-379935D01*
X207848Y-366888D01*
G54D44*
X423343Y-216229D02*
X142771Y-216229D01*
X55844Y-304188D01*
X55844Y-410301D01*
X202638Y-410301D01*
X233269Y-379670D01*
X233248Y-366888D01*
X588523Y-248033D02*
G54D43*
D03*
G54D44*
X588523Y-248033D02*
X512380Y-248105D01*
X496523Y-88033D02*
G54D43*
D03*
X584523Y-96033D02*
G54D43*
D03*
G54D44*
X560072Y-88531D02*
X497021Y-88531D01*
X496523Y-88033D01*
X592523Y-104033D02*
G54D43*
D03*
X600523Y-112033D02*
G54D43*
D03*
G54D44*
X560072Y-96531D02*
X584026Y-96531D01*
X584523Y-96033D01*
G54D44*
X560072Y-104531D02*
X592026Y-104531D01*
X592523Y-104033D01*
G54D44*
X560072Y-112531D02*
X600026Y-112531D01*
X600523Y-112033D01*
X608523Y-120033D02*
G54D43*
D03*
G54D44*
X560072Y-120531D02*
X608026Y-120531D01*
X608523Y-120033D01*
X436905Y-444162D02*
G54D43*
D03*
X462267Y-452066D02*
G54D43*
D03*
X512531Y-459715D02*
G54D43*
D03*
X537443Y-468361D02*
G54D43*
D03*
G54D44*
X436905Y-444162D02*
X919000Y-444162D01*
X919000Y-312000D01*
X767000Y-160000D01*
X639000Y-160000D01*
X623531Y-144531D01*
X560072Y-144531D01*
G54D44*
X462267Y-452066D02*
X927000Y-452066D01*
X927000Y-312000D01*
X767000Y-152000D01*
X647000Y-152000D01*
X631531Y-136531D01*
X560072Y-136531D01*
G54D44*
X512531Y-459715D02*
X935000Y-459715D01*
X935000Y-312000D01*
X767000Y-144000D01*
X655000Y-144000D01*
X639531Y-128531D01*
X560072Y-128531D01*
G54D44*
X537443Y-468361D02*
X943000Y-468361D01*
X943000Y-312000D01*
X767000Y-136000D01*
X663000Y-136000D01*
X639000Y-112000D01*
X520523Y-32033D02*
G54D43*
D03*
G54D44*
X520372Y-48931D02*
X520372Y-32184D01*
X520523Y-32033D01*
X639000Y-112000D02*
G54D43*
D03*
G54D44*
X536372Y-48931D02*
X536372Y-38628D01*
X543000Y-32000D01*
X647000Y-32000D01*
X671000Y-56000D01*
G54D44*
X528372Y-48931D02*
X528372Y-38628D01*
X543000Y-24000D01*
X655000Y-24000D01*
X687000Y-56000D01*
X671000Y-56000D02*
G54D43*
D03*
X671000Y-96000D02*
G54D43*
D03*
X687000Y-112000D02*
G54D43*
D03*
X687000Y-56000D02*
G54D43*
D03*
G54D44*
X687000Y-112000D02*
X687000Y-120000D01*
X695000Y-128000D01*
X784110Y-128000D01*
X784110Y-105751D01*
G54D44*
X671000Y-96000D02*
X718000Y-96000D01*
X718000Y-120915D01*
X758098Y-120915D01*
X758098Y-105763D01*
X758110Y-105751D01*
X284958Y-96439D02*
G54D43*
D03*
G36*
X432500Y-506192D02*
X445500Y-506192D01*
X445500Y-519192D01*
X432500Y-519192D01*
X432500Y-506192D01*
G37*
G36*
X454250Y-506192D02*
X467250Y-506192D01*
X467250Y-519192D01*
X454250Y-519192D01*
X454250Y-506192D01*
G37*
X624372Y-21239D02*
G54D49*
D03*
X624372Y-35068D02*
G54D49*
D03*
G54D13*
X409072Y-96331D02*
X284958Y-96439D01*
G36*
X835019Y-8979D02*
X841019Y-8979D01*
X841019Y-14979D01*
X835019Y-14979D01*
X835019Y-8979D01*
G37*
G36*
X845419Y-8979D02*
X851419Y-8979D01*
X851419Y-14979D01*
X845419Y-14979D01*
X845419Y-8979D01*
G37*
G36*
X220900Y-502900D02*
X220900Y-483900D01*
X239900Y-483900D01*
X239900Y-502900D01*
X220900Y-502900D01*
G37*
G36*
X195500Y-502900D02*
X195500Y-483900D01*
X214500Y-483900D01*
X214500Y-502900D01*
X195500Y-502900D01*
G37*
G36*
X170100Y-502900D02*
X170100Y-483900D01*
X189100Y-483900D01*
X189100Y-502900D01*
X170100Y-502900D01*
G37*
G36*
X170100Y-477500D02*
X170100Y-458500D01*
X189100Y-458500D01*
X189100Y-477500D01*
X170100Y-477500D01*
G37*
G36*
X195500Y-477500D02*
X195500Y-458500D01*
X214500Y-458500D01*
X214500Y-477500D01*
X195500Y-477500D01*
G37*
G36*
X220900Y-477500D02*
X220900Y-458500D01*
X239900Y-458500D01*
X239900Y-477500D01*
X220900Y-477500D01*
G37*
G36*
X246300Y-502900D02*
X246300Y-483900D01*
X265300Y-483900D01*
X265300Y-502900D01*
X246300Y-502900D01*
G37*
G36*
X246300Y-477500D02*
X246300Y-458500D01*
X265300Y-458500D01*
X265300Y-477500D01*
X246300Y-477500D01*
G37*
G36*
X144700Y-502900D02*
X144700Y-483900D01*
X163700Y-483900D01*
X163700Y-502900D01*
X144700Y-502900D01*
G37*
G36*
X144700Y-477500D02*
X144700Y-458500D01*
X163700Y-458500D01*
X163700Y-477500D01*
X144700Y-477500D01*
G37*
G54D44*
X404116Y-479982D02*
X420611Y-479982D01*
X437796Y-462796D01*
X480589Y-462796D01*
X512589Y-494796D01*
X512750Y-512692D01*
G54D44*
X407200Y-495750D02*
X422058Y-495750D01*
X439000Y-512692D01*
X461122Y-479902D02*
G54D43*
D03*
G54D44*
X460750Y-512692D02*
X460750Y-480274D01*
X461122Y-479902D01*
G54D44*
X491000Y-512692D02*
X460750Y-512692D01*
G54D44*
X440372Y-48931D02*
X440372Y-33372D01*
X439000Y-32000D01*
X248067Y-32000D01*
X32071Y-247996D01*
X32071Y-430671D01*
X255800Y-430671D01*
X255800Y-468000D01*
G54D44*
X448372Y-48931D02*
X448372Y-25372D01*
X447000Y-24000D01*
X248017Y-24000D01*
X24154Y-247863D01*
X24154Y-437026D01*
X230400Y-437026D01*
X230400Y-468000D01*
G54D44*
X456372Y-48931D02*
X456372Y-17372D01*
X455000Y-16000D01*
X247886Y-16000D01*
X16003Y-247882D01*
X16003Y-444000D01*
X205000Y-444000D01*
X205000Y-468000D01*
G54D44*
X464372Y-48931D02*
X464372Y-7068D01*
X248950Y-7068D01*
X8009Y-248009D01*
X8009Y-452000D01*
X154200Y-452000D01*
X154200Y-468000D01*
G54D13*
X409072Y-104331D02*
X251000Y-104331D01*
X251000Y-91883D01*
G36*
X587082Y-68528D02*
X587082Y-74528D01*
X581082Y-74528D01*
X581082Y-68528D01*
X587082Y-68528D01*
G37*
G36*
X587082Y-78928D02*
X587082Y-84928D01*
X581082Y-84928D01*
X581082Y-78928D01*
X587082Y-78928D01*
G37*
G36*
X386925Y-80883D02*
X386925Y-86883D01*
X380925Y-86883D01*
X380925Y-80883D01*
X386925Y-80883D01*
G37*
G36*
X386925Y-91283D02*
X386925Y-97283D01*
X380925Y-97283D01*
X380925Y-91283D01*
X386925Y-91283D01*
G37*
X251000Y-91883D02*
G54D43*
D03*
X945803Y-63465D02*
G54D43*
D03*
X900741Y-32318D02*
G54D43*
D03*
X849941Y-32318D02*
G54D43*
D03*
X756341Y-48318D02*
G54D43*
D03*
X705541Y-48318D02*
G54D43*
D03*
X138741Y-32318D02*
G54D43*
D03*
X87941Y-32318D02*
G54D43*
D03*
X37141Y-32318D02*
G54D43*
D03*
X37141Y-83118D02*
G54D43*
D03*
X87941Y-83118D02*
G54D43*
D03*
X138741Y-83118D02*
G54D43*
D03*
X37141Y-133918D02*
G54D43*
D03*
X87941Y-133918D02*
G54D43*
D03*
X37141Y-184718D02*
G54D43*
D03*
X934841Y-235518D02*
G54D43*
D03*
X934817Y-285708D02*
G54D43*
D03*
X752386Y-283636D02*
G54D43*
D03*
X730941Y-260918D02*
G54D43*
D03*
X726420Y-202290D02*
G54D43*
D03*
X675620Y-202290D02*
G54D43*
D03*
X624820Y-202290D02*
G54D43*
D03*
X574020Y-202290D02*
G54D43*
D03*
X269220Y-151490D02*
G54D43*
D03*
X345420Y-126090D02*
G54D43*
D03*
X428134Y-109358D02*
G54D43*
D03*
X436362Y-66756D02*
G54D43*
D03*
X512501Y-66756D02*
G54D43*
D03*
X560268Y-46690D02*
G54D43*
D03*
X595808Y-46690D02*
G54D43*
D03*
X623683Y-63066D02*
G54D43*
D03*
X655042Y-63415D02*
G54D43*
D03*
X381670Y-40483D02*
G54D43*
D03*
X287032Y-40483D02*
G54D43*
D03*
X381670Y-57373D02*
G54D43*
D03*
X287032Y-57373D02*
G54D43*
D03*
X271418Y-77700D02*
G54D43*
D03*
X309049Y-77700D02*
G54D43*
D03*
X346331Y-77700D02*
G54D43*
D03*
X180902Y-140736D02*
G54D43*
D03*
X223261Y-140467D02*
G54D43*
D03*
X127783Y-194102D02*
G54D43*
D03*
X170142Y-193834D02*
G54D43*
D03*
X87289Y-234021D02*
G54D43*
D03*
X56856Y-274392D02*
G54D43*
D03*
X799141Y-133918D02*
G54D43*
D03*
X640665Y-97738D02*
G54D43*
D03*
X545141Y-505518D02*
G54D43*
D03*
X595941Y-505518D02*
G54D43*
D03*
X646741Y-505518D02*
G54D43*
D03*
X697541Y-505518D02*
G54D43*
D03*
X748341Y-505518D02*
G54D43*
D03*
X799141Y-505518D02*
G54D43*
D03*
X849941Y-505518D02*
G54D43*
D03*
X900741Y-505518D02*
G54D43*
D03*
X216163Y-205341D02*
G54D43*
D03*
X246430Y-204748D02*
G54D43*
D03*
X271653Y-204748D02*
G54D43*
D03*
X296875Y-204748D02*
G54D43*
D03*
X323285Y-204748D02*
G54D43*
D03*
X348211Y-205044D02*
G54D43*
D03*
X373433Y-204748D02*
G54D43*
D03*
X398952Y-204748D02*
G54D43*
D03*
G36*
X407137Y-499059D02*
X401137Y-499059D01*
X401137Y-493059D01*
X407137Y-493059D01*
X407137Y-499059D01*
G37*
G36*
X396737Y-499059D02*
X390737Y-499059D01*
X390737Y-493059D01*
X396737Y-493059D01*
X396737Y-499059D01*
G37*
G36*
X407116Y-482982D02*
X401116Y-482982D01*
X401116Y-476982D01*
X407116Y-476982D01*
X407116Y-482982D01*
G37*
G36*
X396716Y-482982D02*
X390716Y-482982D01*
X390716Y-476982D01*
X396716Y-476982D01*
X396716Y-482982D01*
G37*
G54D13*
X560072Y-152531D02*
X535531Y-152531D01*
X535000Y-152000D01*
X331141Y-433518D02*
G54D43*
D03*
X371141Y-457518D02*
G54D43*
D03*
X419141Y-457518D02*
G54D43*
D03*
G36*
X515333Y-519289D02*
X502333Y-519289D01*
X502333Y-506289D01*
X515333Y-506289D01*
X515333Y-519289D01*
G37*
G36*
X493583Y-519289D02*
X480583Y-519289D01*
X480583Y-506289D01*
X493583Y-506289D01*
X493583Y-519289D01*
G37*
X849941Y-184718D02*
G54D43*
D03*
X900741Y-184718D02*
G54D43*
D03*
X122741Y-468318D02*
G54D43*
D03*
X71941Y-468318D02*
G54D43*
D03*
X21141Y-468318D02*
G54D43*
D03*
X21141Y-519118D02*
G54D43*
D03*
X71941Y-519118D02*
G54D43*
D03*
X122741Y-519118D02*
G54D43*
D03*
X505541Y-8318D02*
G54D43*
D03*
X577541Y-8318D02*
G54D43*
D03*
X649541Y-8318D02*
G54D43*
D03*
X721541Y-8318D02*
G54D43*
D03*
X860630Y-168070D02*
G54D46*
D03*
X860630Y-143170D02*
G54D46*
D03*
G54D53*
X860630Y-143170D02*
X860630Y-76405D01*
X860425Y-76200D01*
X900741Y-133918D02*
G54D43*
D03*
M02*
